M48
; DRILL file {KiCad (7.0.0)} date Mon Feb 26 20:32:32 2024
; FORMAT={-:-/ absolute / inch / decimal}
; #@! TF.CreationDate,2024-02-26T20:32:32-08:00
; #@! TF.GenerationSoftware,Kicad,Pcbnew,(7.0.0)
; #@! TF.FileFunction,Plated,1,2,PTH
FMAT,2
INCH
; #@! TA.AperFunction,Plated,PTH,ViaDrill
T1C0.0157
; #@! TA.AperFunction,Plated,PTH,ComponentDrill
T2C0.0382
; #@! TA.AperFunction,Plated,PTH,ComponentDrill
T3C0.0394
%
G90
G05
T1
X1.85Y-3.16
X1.85Y-3.31
X1.85Y-3.46
X1.93Y-3.16
X1.93Y-3.31
X1.94Y-3.46
X2.02Y-3.16
X2.02Y-3.31
X2.02Y-3.46
X2.12Y-3.16
X2.12Y-3.46
X2.13Y-3.3
X2.19Y-3.9
X2.59Y-3.21
X2.7Y-3.21
X2.85Y-3.21
X2.89Y-3.8
X3.06Y-3.02
X3.27Y-3.89
X3.35Y-3.15
X3.58Y-3.25
X3.58Y-3.95
X3.68Y-3.12
X3.68Y-4.02
X3.99Y-3.89
X4.07Y-3.52
T2
X2.95Y-4.0226
X3.05Y-4.0226
X3.15Y-4.0226
X3.25Y-4.0226
T3
X3.8Y-2.6
X3.9Y-2.6
X4.0Y-2.6
X4.1Y-2.6
X4.2Y-2.6
X4.3Y-2.6
T0
M30
