%TF.GenerationSoftware,KiCad,Pcbnew,(7.0.0)*%
%TF.CreationDate,2024-02-26T20:32:27-08:00*%
%TF.ProjectId,Blutooth_Serial,426c7574-6f6f-4746-985f-53657269616c,rev?*%
%TF.SameCoordinates,Original*%
%TF.FileFunction,Copper,L1,Top*%
%TF.FilePolarity,Positive*%
%FSLAX46Y46*%
G04 Gerber Fmt 4.6, Leading zero omitted, Abs format (unit mm)*
G04 Created by KiCad (PCBNEW (7.0.0)) date 2024-02-26 20:32:27*
%MOMM*%
%LPD*%
G01*
G04 APERTURE LIST*
G04 Aperture macros list*
%AMRoundRect*
0 Rectangle with rounded corners*
0 $1 Rounding radius*
0 $2 $3 $4 $5 $6 $7 $8 $9 X,Y pos of 4 corners*
0 Add a 4 corners polygon primitive as box body*
4,1,4,$2,$3,$4,$5,$6,$7,$8,$9,$2,$3,0*
0 Add four circle primitives for the rounded corners*
1,1,$1+$1,$2,$3*
1,1,$1+$1,$4,$5*
1,1,$1+$1,$6,$7*
1,1,$1+$1,$8,$9*
0 Add four rect primitives between the rounded corners*
20,1,$1+$1,$2,$3,$4,$5,0*
20,1,$1+$1,$4,$5,$6,$7,0*
20,1,$1+$1,$6,$7,$8,$9,0*
20,1,$1+$1,$8,$9,$2,$3,0*%
G04 Aperture macros list end*
%TA.AperFunction,SMDPad,CuDef*%
%ADD10RoundRect,0.243750X0.456250X-0.243750X0.456250X0.243750X-0.456250X0.243750X-0.456250X-0.243750X0*%
%TD*%
%TA.AperFunction,ComponentPad*%
%ADD11C,1.509000*%
%TD*%
%TA.AperFunction,SMDPad,CuDef*%
%ADD12RoundRect,0.250000X2.050000X0.300000X-2.050000X0.300000X-2.050000X-0.300000X2.050000X-0.300000X0*%
%TD*%
%TA.AperFunction,SMDPad,CuDef*%
%ADD13RoundRect,0.250000X2.025000X2.375000X-2.025000X2.375000X-2.025000X-2.375000X2.025000X-2.375000X0*%
%TD*%
%TA.AperFunction,SMDPad,CuDef*%
%ADD14RoundRect,0.250002X4.449998X5.149998X-4.449998X5.149998X-4.449998X-5.149998X4.449998X-5.149998X0*%
%TD*%
%TA.AperFunction,SMDPad,CuDef*%
%ADD15R,1.700000X3.600000*%
%TD*%
%TA.AperFunction,SMDPad,CuDef*%
%ADD16R,2.800000X6.800000*%
%TD*%
%TA.AperFunction,SMDPad,CuDef*%
%ADD17R,5.650000X2.350000*%
%TD*%
%TA.AperFunction,SMDPad,CuDef*%
%ADD18RoundRect,0.250000X-0.475000X0.250000X-0.475000X-0.250000X0.475000X-0.250000X0.475000X0.250000X0*%
%TD*%
%TA.AperFunction,SMDPad,CuDef*%
%ADD19RoundRect,0.250000X0.250000X0.475000X-0.250000X0.475000X-0.250000X-0.475000X0.250000X-0.475000X0*%
%TD*%
%TA.AperFunction,ComponentPad*%
%ADD20R,1.700000X1.700000*%
%TD*%
%TA.AperFunction,ComponentPad*%
%ADD21O,1.700000X1.700000*%
%TD*%
%TA.AperFunction,SMDPad,CuDef*%
%ADD22R,1.000000X1.500000*%
%TD*%
%TA.AperFunction,SMDPad,CuDef*%
%ADD23R,1.500000X1.000000*%
%TD*%
%TA.AperFunction,SMDPad,CuDef*%
%ADD24R,1.525000X0.650000*%
%TD*%
%TA.AperFunction,SMDPad,CuDef*%
%ADD25R,3.000000X5.494000*%
%TD*%
%TA.AperFunction,ViaPad*%
%ADD26C,0.800000*%
%TD*%
%TA.AperFunction,Conductor*%
%ADD27C,0.250000*%
%TD*%
%TA.AperFunction,Conductor*%
%ADD28C,0.400000*%
%TD*%
G04 APERTURE END LIST*
D10*
%TO.P,D1,1,K*%
%TO.N,Net-(D1-K)*%
X65278000Y-86027500D03*
%TO.P,D1,2,A*%
%TO.N,GND*%
X65278000Y-84152500D03*
%TD*%
D11*
%TO.P,J1,1,Pin_1*%
%TO.N,+24V*%
X74930000Y-102175000D03*
%TO.P,J1,2,Pin_2*%
%TO.N,GND*%
X77470000Y-102175000D03*
%TO.P,J1,3,Pin_3*%
%TO.N,Net-(J1-Pin_3)*%
X80010000Y-102175000D03*
%TO.P,J1,4,Pin_4*%
%TO.N,Net-(J1-Pin_4)*%
X82550000Y-102175000D03*
%TD*%
D12*
%TO.P,U1,1,VIN*%
%TO.N,+24V*%
X59557000Y-87455000D03*
%TO.P,U1,2,OUT*%
%TO.N,Net-(D1-K)*%
X59557000Y-85755000D03*
%TO.P,U1,3,GND*%
%TO.N,GND*%
X59557000Y-84055000D03*
D13*
X52832000Y-86830000D03*
X52832000Y-81280000D03*
D14*
X50407000Y-84055000D03*
D13*
X47982000Y-86830000D03*
X47982000Y-81280000D03*
D12*
%TO.P,U1,4,FB*%
%TO.N,5V*%
X59557000Y-82355000D03*
%TO.P,U1,5,~{ON}/OFF*%
%TO.N,unconnected-(U1-~{ON}{slash}OFF-Pad5)*%
X59557000Y-80655000D03*
%TD*%
D15*
%TO.P,C7,1*%
%TO.N,+24V*%
X53284999Y-106679999D03*
D16*
X55534999Y-106979999D03*
D15*
X57784999Y-106679999D03*
%TO.P,C7,2*%
%TO.N,GND*%
X53284999Y-94679999D03*
D16*
X55534999Y-94379999D03*
D15*
X57784999Y-94679999D03*
%TD*%
D17*
%TO.P,C1,1*%
%TO.N,5V*%
X58189999Y-70484999D03*
%TO.P,C1,2*%
%TO.N,GND*%
X48489999Y-70484999D03*
%TD*%
D18*
%TO.P,C3,1*%
%TO.N,Net-(U2-C1+)*%
X70485000Y-79380000D03*
%TO.P,C3,2*%
%TO.N,Net-(U2-C1-)*%
X70485000Y-81280000D03*
%TD*%
%TO.P,C4,1*%
%TO.N,Net-(U2-VS+)*%
X73914000Y-79380000D03*
%TO.P,C4,2*%
%TO.N,GND*%
X73914000Y-81280000D03*
%TD*%
%TO.P,C5,1*%
%TO.N,Net-(U2-C2+)*%
X73914000Y-83886000D03*
%TO.P,C5,2*%
%TO.N,Net-(U2-C2-)*%
X73914000Y-85786000D03*
%TD*%
%TO.P,C6,1*%
%TO.N,Net-(U2-VS-)*%
X73914000Y-88204000D03*
%TO.P,C6,2*%
%TO.N,GND*%
X73914000Y-90104000D03*
%TD*%
D19*
%TO.P,C2,1*%
%TO.N,5V*%
X81534000Y-76708000D03*
%TO.P,C2,2*%
%TO.N,GND*%
X79634000Y-76708000D03*
%TD*%
D20*
%TO.P,IC1,1,EN*%
%TO.N,unconnected-(IC1-EN-Pad1)*%
X96519999Y-66039999D03*
D21*
%TO.P,IC1,2,Vcc*%
%TO.N,Net-(IC1-Vcc)*%
X99059999Y-66039999D03*
%TO.P,IC1,3,GND*%
%TO.N,GND*%
X101599999Y-66039999D03*
%TO.P,IC1,4,TXD*%
%TO.N,T1IN*%
X104139999Y-66039999D03*
%TO.P,IC1,5,RXD*%
%TO.N,R1OUT*%
X106679999Y-66039999D03*
%TO.P,IC1,6,STATE*%
%TO.N,unconnected-(IC1-STATE-Pad6)*%
X109219999Y-66039999D03*
%TD*%
D22*
%TO.P,JP2,1,A*%
%TO.N,Net-(JP2-A)*%
X87009999Y-79120999D03*
%TO.P,JP2,2,B*%
%TO.N,Net-(J1-Pin_4)*%
X88309999Y-79120999D03*
%TD*%
D23*
%TO.P,JP7,1,A*%
%TO.N,Net-(JP7-A)*%
X75437999Y-93329999D03*
%TO.P,JP7,2,B*%
%TO.N,unconnected-(JP7-B-Pad2)*%
X75437999Y-94629999D03*
%TD*%
D22*
%TO.P,JP3,1,A*%
%TO.N,Net-(JP3-A)*%
X87009999Y-82600799D03*
%TO.P,JP3,2,B*%
%TO.N,Net-(J1-Pin_3)*%
X88309999Y-82600799D03*
%TD*%
D23*
%TO.P,JP8,1,A*%
%TO.N,Net-(JP8-A)*%
X81025999Y-93329999D03*
%TO.P,JP8,2,B*%
%TO.N,unconnected-(JP8-B-Pad2)*%
X81025999Y-94629999D03*
%TD*%
D22*
%TO.P,JP5,1,A*%
%TO.N,T1IN*%
X88309999Y-89560399D03*
%TO.P,JP5,2,B*%
%TO.N,Net-(JP5-B)*%
X87009999Y-89560399D03*
%TD*%
%TO.P,JP6,1,A*%
%TO.N,unconnected-(JP6-A-Pad1)*%
X87009999Y-93040199D03*
%TO.P,JP6,2,B*%
%TO.N,Net-(JP6-B)*%
X88309999Y-93040199D03*
%TD*%
%TO.P,JP4,1,A*%
%TO.N,R1OUT*%
X88309999Y-86080599D03*
%TO.P,JP4,2,B*%
%TO.N,Net-(JP4-B)*%
X87009999Y-86080599D03*
%TD*%
%TO.P,JP9,1,A*%
%TO.N,unconnected-(JP9-A-Pad1)*%
X88309999Y-96519999D03*
%TO.P,JP9,2,B*%
%TO.N,Net-(JP9-B)*%
X87009999Y-96519999D03*
%TD*%
%TO.P,JP1,1,A*%
%TO.N,5V*%
X86979999Y-75691999D03*
%TO.P,JP1,2,B*%
%TO.N,Net-(IC1-Vcc)*%
X88279999Y-75691999D03*
%TD*%
D24*
%TO.P,U2,1,C1+*%
%TO.N,Net-(U2-C1+)*%
X77805999Y-80517999D03*
%TO.P,U2,2,VS+*%
%TO.N,Net-(U2-VS+)*%
X77805999Y-81787999D03*
%TO.P,U2,3,C1-*%
%TO.N,Net-(U2-C1-)*%
X77805999Y-83057999D03*
%TO.P,U2,4,C2+*%
%TO.N,Net-(U2-C2+)*%
X77805999Y-84327999D03*
%TO.P,U2,5,C2-*%
%TO.N,Net-(U2-C2-)*%
X77805999Y-85597999D03*
%TO.P,U2,6,VS-*%
%TO.N,Net-(U2-VS-)*%
X77805999Y-86867999D03*
%TO.P,U2,7,T2OUT*%
%TO.N,Net-(JP7-A)*%
X77805999Y-88137999D03*
%TO.P,U2,8,R2IN*%
%TO.N,Net-(JP8-A)*%
X77805999Y-89407999D03*
%TO.P,U2,9,R2OUT*%
%TO.N,Net-(JP9-B)*%
X83229999Y-89407999D03*
%TO.P,U2,10,T2IN*%
%TO.N,Net-(JP6-B)*%
X83229999Y-88137999D03*
%TO.P,U2,11,T1IN*%
%TO.N,Net-(JP5-B)*%
X83229999Y-86867999D03*
%TO.P,U2,12,R1OUT*%
%TO.N,Net-(JP4-B)*%
X83229999Y-85597999D03*
%TO.P,U2,13,R1IN*%
%TO.N,Net-(JP3-A)*%
X83229999Y-84327999D03*
%TO.P,U2,14,T1OUT*%
%TO.N,Net-(JP2-A)*%
X83229999Y-83057999D03*
%TO.P,U2,15,GND*%
%TO.N,GND*%
X83229999Y-81787999D03*
%TO.P,U2,16,VCC*%
%TO.N,5V*%
X83229999Y-80517999D03*
%TD*%
D25*
%TO.P,L1,1,1*%
%TO.N,Net-(D1-K)*%
X64294999Y-70484999D03*
%TO.P,L1,2,2*%
%TO.N,5V*%
X74294999Y-70484999D03*
%TD*%
D26*
%TO.N,GND*%
X73406000Y-96520000D03*
X83058000Y-98806000D03*
X55626000Y-99060000D03*
X53848000Y-87884000D03*
X51308000Y-87884000D03*
X49276000Y-87884000D03*
X46990000Y-87884000D03*
X46990000Y-84074000D03*
X49022000Y-84074000D03*
X51308000Y-84074000D03*
X54102000Y-83820000D03*
X53848000Y-80264000D03*
X51308000Y-80264000D03*
X49022000Y-80264000D03*
X46990000Y-80264000D03*
X101346000Y-98806000D03*
X68580000Y-81534000D03*
X65786000Y-81534000D03*
X77724000Y-76708000D03*
X72390000Y-81534000D03*
%TO.N,Net-(J1-Pin_3)*%
X90932000Y-82550000D03*
%TO.N,Net-(J1-Pin_4)*%
X93472000Y-79248000D03*
X93472000Y-102108000D03*
%TO.N,Net-(J1-Pin_3)*%
X90932000Y-100330000D03*
%TO.N,GND*%
X85090000Y-80010000D03*
%TO.N,T1IN*%
X103378000Y-89408000D03*
%TD*%
D27*
%TO.N,GND*%
X73406000Y-96520000D02*
X73406000Y-98111000D01*
X83058000Y-98806000D02*
X101346000Y-98806000D01*
X85090000Y-80518000D02*
X85090000Y-80010000D01*
X83820000Y-81788000D02*
X85090000Y-80518000D01*
X83230000Y-81788000D02*
X83820000Y-81788000D01*
X55535000Y-98969000D02*
X55626000Y-99060000D01*
X55535000Y-94380000D02*
X55535000Y-98969000D01*
X53886000Y-87884000D02*
X55535000Y-89533000D01*
X53848000Y-87884000D02*
X53886000Y-87884000D01*
X53848000Y-87846000D02*
X53848000Y-87884000D01*
X51327000Y-84055000D02*
X53867000Y-84055000D01*
X51308000Y-84074000D02*
X51327000Y-84055000D01*
X51289000Y-84055000D02*
X51308000Y-84074000D01*
X54337000Y-84055000D02*
X59557000Y-84055000D01*
X54102000Y-83820000D02*
X54337000Y-84055000D01*
X53867000Y-84055000D02*
X54102000Y-83820000D01*
X80839000Y-98806000D02*
X83058000Y-98806000D01*
X77470000Y-102175000D02*
X80839000Y-98806000D01*
X85090000Y-79141000D02*
X85090000Y-80010000D01*
X86761000Y-77470000D02*
X85090000Y-79141000D01*
X90170000Y-77470000D02*
X86761000Y-77470000D01*
X101600000Y-66040000D02*
X90170000Y-77470000D01*
X69276000Y-90104000D02*
X73914000Y-90104000D01*
X68580000Y-89408000D02*
X69276000Y-90104000D01*
X68580000Y-81534000D02*
X68580000Y-89408000D01*
%TO.N,5V*%
X77851000Y-70485000D02*
X81534000Y-74168000D01*
X74295000Y-70485000D02*
X77851000Y-70485000D01*
X81534000Y-74168000D02*
X81534000Y-76708000D01*
X62635000Y-66040000D02*
X58190000Y-70485000D01*
X69850000Y-66040000D02*
X62635000Y-66040000D01*
X74295000Y-70485000D02*
X69850000Y-66040000D01*
D28*
%TO.N,+24V*%
X60452000Y-100563000D02*
X58840000Y-102175000D01*
X59557000Y-87455000D02*
X60452000Y-88350000D01*
X60452000Y-88350000D02*
X60452000Y-100563000D01*
D27*
%TO.N,GND*%
X59654500Y-84152500D02*
X59557000Y-84055000D01*
X65278000Y-84152500D02*
X59654500Y-84152500D01*
X65278000Y-82042000D02*
X65786000Y-81534000D01*
X65278000Y-84152500D02*
X65278000Y-82042000D01*
X77724000Y-76708000D02*
X79634000Y-76708000D01*
X73660000Y-81534000D02*
X72390000Y-81534000D01*
X73914000Y-81280000D02*
X73660000Y-81534000D01*
X73406000Y-98111000D02*
X77470000Y-102175000D01*
X73406000Y-90612000D02*
X73406000Y-96520000D01*
X73914000Y-90104000D02*
X73406000Y-90612000D01*
X55535000Y-94380000D02*
X55535000Y-93630000D01*
X55535000Y-89533000D02*
X55535000Y-94380000D01*
X52832000Y-86830000D02*
X53848000Y-87846000D01*
X50407000Y-84055000D02*
X51289000Y-84055000D01*
X48490000Y-70485000D02*
X48490000Y-80772000D01*
X48490000Y-80772000D02*
X47982000Y-81280000D01*
%TO.N,Net-(J1-Pin_3)*%
X90881200Y-82600800D02*
X88310000Y-82600800D01*
X90932000Y-82550000D02*
X90881200Y-82600800D01*
%TO.N,Net-(J1-Pin_4)*%
X88310000Y-79121000D02*
X93345000Y-79121000D01*
X93345000Y-79121000D02*
X93472000Y-79248000D01*
%TO.N,Net-(J1-Pin_3)*%
X81855000Y-100330000D02*
X90932000Y-100330000D01*
X80010000Y-102175000D02*
X81855000Y-100330000D01*
%TO.N,Net-(J1-Pin_4)*%
X93405000Y-102175000D02*
X93472000Y-102108000D01*
X82550000Y-102175000D02*
X93405000Y-102175000D01*
%TO.N,T1IN*%
X103225600Y-89560400D02*
X103378000Y-89408000D01*
X88310000Y-89560400D02*
X103225600Y-89560400D01*
%TO.N,R1OUT*%
X106680000Y-68834000D02*
X106680000Y-66040000D01*
X89433400Y-86080600D02*
X106680000Y-68834000D01*
X88310000Y-86080600D02*
X89433400Y-86080600D01*
%TO.N,Net-(IC1-Vcc)*%
X88280000Y-75692000D02*
X89408000Y-75692000D01*
X89408000Y-75692000D02*
X99060000Y-66040000D01*
%TO.N,5V*%
X82550000Y-75692000D02*
X81534000Y-76708000D01*
X86980000Y-75692000D02*
X82550000Y-75692000D01*
X83230000Y-80518000D02*
X83230000Y-78404000D01*
X83230000Y-78404000D02*
X81534000Y-76708000D01*
%TO.N,Net-(JP2-A)*%
X87010000Y-79715500D02*
X87010000Y-79121000D01*
X83667500Y-83058000D02*
X87010000Y-79715500D01*
X83230000Y-83058000D02*
X83667500Y-83058000D01*
%TO.N,Net-(JP3-A)*%
X83230000Y-84328000D02*
X85282800Y-84328000D01*
X85282800Y-84328000D02*
X87010000Y-82600800D01*
%TO.N,Net-(JP5-B)*%
X83697500Y-86868000D02*
X86389900Y-89560400D01*
X83230000Y-86868000D02*
X83697500Y-86868000D01*
X86389900Y-89560400D02*
X87010000Y-89560400D01*
%TO.N,Net-(JP4-B)*%
X83712600Y-86080600D02*
X83230000Y-85598000D01*
X87010000Y-86080600D02*
X83712600Y-86080600D01*
%TO.N,Net-(JP6-B)*%
X85852000Y-91186000D02*
X87455800Y-91186000D01*
X87455800Y-91186000D02*
X88310000Y-92040200D01*
X85344000Y-90678000D02*
X85852000Y-91186000D01*
X85344000Y-89662000D02*
X85344000Y-90678000D01*
X88310000Y-92040200D02*
X88310000Y-93040200D01*
X83820000Y-88138000D02*
X85344000Y-89662000D01*
X83230000Y-88138000D02*
X83820000Y-88138000D01*
%TO.N,Net-(JP9-B)*%
X83230000Y-89408000D02*
X83230000Y-92740000D01*
X83230000Y-92740000D02*
X87010000Y-96520000D01*
%TO.N,Net-(JP8-A)*%
X77806000Y-90110000D02*
X81026000Y-93330000D01*
X77806000Y-89408000D02*
X77806000Y-90110000D01*
%TO.N,Net-(JP7-A)*%
X75438000Y-90068500D02*
X75438000Y-93330000D01*
X77368500Y-88138000D02*
X75438000Y-90068500D01*
X77806000Y-88138000D02*
X77368500Y-88138000D01*
%TO.N,Net-(U2-VS-)*%
X75250000Y-86868000D02*
X77806000Y-86868000D01*
X73914000Y-88204000D02*
X75250000Y-86868000D01*
%TO.N,Net-(U2-C2-)*%
X74102000Y-85598000D02*
X77806000Y-85598000D01*
X73914000Y-85786000D02*
X74102000Y-85598000D01*
%TO.N,Net-(U2-C2+)*%
X74356000Y-84328000D02*
X77806000Y-84328000D01*
X73914000Y-83886000D02*
X74356000Y-84328000D01*
%TO.N,Net-(U2-C1-)*%
X75184000Y-82550000D02*
X75692000Y-83058000D01*
X71755000Y-82550000D02*
X75184000Y-82550000D01*
X75692000Y-83058000D02*
X77806000Y-83058000D01*
X70485000Y-81280000D02*
X71755000Y-82550000D01*
%TO.N,Net-(U2-VS+)*%
X76322000Y-81788000D02*
X77806000Y-81788000D01*
X73914000Y-79380000D02*
X76322000Y-81788000D01*
%TO.N,Net-(U2-C1+)*%
X75012000Y-77724000D02*
X77806000Y-80518000D01*
X72141000Y-77724000D02*
X75012000Y-77724000D01*
X70485000Y-79380000D02*
X72141000Y-77724000D01*
%TO.N,Net-(D1-K)*%
X67310000Y-83995500D02*
X65278000Y-86027500D01*
X67310000Y-76708000D02*
X67310000Y-83995500D01*
X64295000Y-73693000D02*
X67310000Y-76708000D01*
X64295000Y-70485000D02*
X64295000Y-73693000D01*
%TO.N,5V*%
X58190000Y-72668000D02*
X58190000Y-70485000D01*
X63754000Y-81280000D02*
X63754000Y-78232000D01*
X62679000Y-82355000D02*
X63754000Y-81280000D01*
X63754000Y-78232000D02*
X58190000Y-72668000D01*
X59557000Y-82355000D02*
X62679000Y-82355000D01*
%TO.N,Net-(D1-K)*%
X65005500Y-85755000D02*
X65278000Y-86027500D01*
X59557000Y-85755000D02*
X65005500Y-85755000D01*
D28*
%TO.N,+24V*%
X58840000Y-102175000D02*
X74930000Y-102175000D01*
X55535000Y-105480000D02*
X58840000Y-102175000D01*
X55535000Y-106980000D02*
X55535000Y-105480000D01*
%TD*%
%TA.AperFunction,Conductor*%
%TO.N,+24V*%
G36*
X64401474Y-86886460D02*
G01*
X64505075Y-86950362D01*
X64670225Y-87005087D01*
X64772152Y-87015500D01*
X65780699Y-87015500D01*
X65783848Y-87015500D01*
X65885775Y-87005087D01*
X66050925Y-86950362D01*
X66154525Y-86886460D01*
X66219620Y-86868000D01*
X67440000Y-86868000D01*
X67502000Y-86884613D01*
X67547387Y-86930000D01*
X67564000Y-86992000D01*
X67564000Y-89154000D01*
X68834000Y-90932000D01*
X72266000Y-90932000D01*
X72328000Y-90948613D01*
X72373387Y-90994000D01*
X72390000Y-91056000D01*
X72390000Y-98044000D01*
X72400073Y-98052730D01*
X72400074Y-98052731D01*
X72891377Y-98478527D01*
X72905434Y-98493369D01*
X72907830Y-98497420D01*
X72913344Y-98502934D01*
X72921990Y-98511580D01*
X72934626Y-98526374D01*
X72941819Y-98536275D01*
X72941823Y-98536279D01*
X72946406Y-98542587D01*
X72952415Y-98547558D01*
X72952416Y-98547559D01*
X72980058Y-98570426D01*
X72988699Y-98578289D01*
X76152890Y-101742481D01*
X76180290Y-101783985D01*
X76189178Y-101832917D01*
X75971283Y-111638255D01*
X75953771Y-111699084D01*
X75908517Y-111743343D01*
X75847314Y-111759500D01*
X45724877Y-111759500D01*
X45715147Y-111759118D01*
X45710829Y-111758778D01*
X45663562Y-111755057D01*
X45662487Y-111754967D01*
X45522430Y-111742714D01*
X45504290Y-111739760D01*
X45425589Y-111720866D01*
X45422442Y-111720067D01*
X45317205Y-111691868D01*
X45301848Y-111686655D01*
X45221531Y-111653388D01*
X45216577Y-111651208D01*
X45123224Y-111607676D01*
X45110852Y-111601028D01*
X45063554Y-111572044D01*
X45034845Y-111554451D01*
X45028513Y-111550299D01*
X44993624Y-111525869D01*
X44945839Y-111492410D01*
X44936442Y-111485135D01*
X44868023Y-111426699D01*
X44860874Y-111420090D01*
X44789908Y-111349124D01*
X44783299Y-111341975D01*
X44762545Y-111317675D01*
X44724860Y-111273551D01*
X44717594Y-111264166D01*
X44659694Y-111181477D01*
X44655547Y-111175153D01*
X44608963Y-111099135D01*
X44602329Y-111086788D01*
X44558770Y-110993376D01*
X44556622Y-110988496D01*
X44523343Y-110908150D01*
X44518130Y-110892793D01*
X44489910Y-110787476D01*
X44489153Y-110784494D01*
X44470236Y-110705698D01*
X44467285Y-110687579D01*
X44455008Y-110547244D01*
X44454957Y-110546632D01*
X44450882Y-110494853D01*
X44450500Y-110485126D01*
X44450500Y-100200000D01*
X44467113Y-100138000D01*
X44512500Y-100092613D01*
X44574500Y-100076000D01*
X58912015Y-100076000D01*
X58928000Y-100076000D01*
X59033004Y-96820850D01*
X59039932Y-96783805D01*
X59057669Y-96750552D01*
X59078796Y-96722331D01*
X59129091Y-96587483D01*
X59135500Y-96527873D01*
X59135499Y-93645523D01*
X59135563Y-93641539D01*
X59182000Y-92202000D01*
X56178979Y-89429980D01*
X56156624Y-89402439D01*
X56145691Y-89376198D01*
X56145664Y-89376209D01*
X56145664Y-89376208D01*
X56129582Y-89335591D01*
X56125803Y-89324551D01*
X56115795Y-89290102D01*
X56115793Y-89290099D01*
X56113618Y-89282610D01*
X56109647Y-89275896D01*
X56109645Y-89275891D01*
X56103421Y-89265368D01*
X56094858Y-89247890D01*
X56087486Y-89229268D01*
X56082902Y-89222959D01*
X56082899Y-89222953D01*
X56061817Y-89193937D01*
X56055401Y-89184170D01*
X56037143Y-89153296D01*
X56037140Y-89153292D01*
X56033170Y-89146579D01*
X56019006Y-89132415D01*
X56006368Y-89117618D01*
X55999184Y-89107729D01*
X55999178Y-89107723D01*
X55994594Y-89101413D01*
X55960946Y-89073577D01*
X55952305Y-89065714D01*
X55916319Y-89029728D01*
X55889439Y-88989500D01*
X55880000Y-88942047D01*
X55880000Y-86992000D01*
X55896613Y-86930000D01*
X55942000Y-86884613D01*
X56004000Y-86868000D01*
X64336380Y-86868000D01*
X64401474Y-86886460D01*
G37*
%TD.AperFunction*%
%TD*%
%TA.AperFunction,Conductor*%
%TO.N,Net-(D1-K)*%
G36*
X68010000Y-67072613D02*
G01*
X68055387Y-67118000D01*
X68072000Y-67180000D01*
X68072000Y-80726824D01*
X68058485Y-80783119D01*
X68020885Y-80827142D01*
X67979388Y-80857290D01*
X67979381Y-80857295D01*
X67974129Y-80861112D01*
X67969784Y-80865937D01*
X67969779Y-80865942D01*
X67851813Y-80996956D01*
X67851808Y-80996962D01*
X67847467Y-81001784D01*
X67844222Y-81007404D01*
X67844218Y-81007410D01*
X67756069Y-81160089D01*
X67756066Y-81160094D01*
X67752821Y-81165716D01*
X67750815Y-81171888D01*
X67750813Y-81171894D01*
X67696333Y-81339564D01*
X67696331Y-81339573D01*
X67694326Y-81345744D01*
X67693648Y-81352194D01*
X67693646Y-81352204D01*
X67686137Y-81423656D01*
X67674540Y-81534000D01*
X67675219Y-81540460D01*
X67693646Y-81715795D01*
X67693647Y-81715803D01*
X67694326Y-81722256D01*
X67696331Y-81728428D01*
X67696333Y-81728435D01*
X67722806Y-81809908D01*
X67752821Y-81902284D01*
X67847467Y-82066216D01*
X67851811Y-82071041D01*
X67851813Y-82071043D01*
X67922650Y-82149715D01*
X67946264Y-82188249D01*
X67954500Y-82232687D01*
X67954500Y-86236000D01*
X67937887Y-86298000D01*
X67892500Y-86343387D01*
X67830500Y-86360000D01*
X56004000Y-86360000D01*
X55942000Y-86343387D01*
X55896613Y-86298000D01*
X55880000Y-86236000D01*
X55880000Y-84960000D01*
X55896613Y-84898000D01*
X55942000Y-84852613D01*
X56004000Y-84836000D01*
X56875270Y-84836000D01*
X56922723Y-84845439D01*
X56962951Y-84872319D01*
X57038344Y-84947712D01*
X57044485Y-84951500D01*
X57044488Y-84951502D01*
X57058266Y-84960000D01*
X57187666Y-85039814D01*
X57354203Y-85094999D01*
X57456991Y-85105500D01*
X61657008Y-85105499D01*
X61759797Y-85094999D01*
X61926334Y-85039814D01*
X62075656Y-84947712D01*
X62151049Y-84872319D01*
X62191277Y-84845439D01*
X62238730Y-84836000D01*
X64157609Y-84836000D01*
X64205062Y-84845439D01*
X64245290Y-84872319D01*
X64356997Y-84984026D01*
X64505075Y-85075362D01*
X64670225Y-85130087D01*
X64772152Y-85140500D01*
X65780699Y-85140500D01*
X65783848Y-85140500D01*
X65885775Y-85130087D01*
X66050925Y-85075362D01*
X66199003Y-84984026D01*
X66322026Y-84861003D01*
X66413362Y-84712925D01*
X66468087Y-84547775D01*
X66468330Y-84545394D01*
X66490644Y-84497366D01*
X66533220Y-84462389D01*
X66802000Y-84328000D01*
X66802000Y-78740000D01*
X62266318Y-74204318D01*
X62239439Y-74164091D01*
X62230000Y-74116638D01*
X62230000Y-67630363D01*
X62244672Y-67571853D01*
X62285217Y-67527189D01*
X62960761Y-67076826D01*
X62993611Y-67061321D01*
X63029544Y-67056000D01*
X67948000Y-67056000D01*
X68010000Y-67072613D01*
G37*
%TD.AperFunction*%
%TD*%
%TA.AperFunction,Conductor*%
%TO.N,5V*%
G36*
X76585333Y-64006681D02*
G01*
X76646768Y-64023734D01*
X76691609Y-64069059D01*
X76708000Y-64130674D01*
X76708000Y-75314000D01*
X76691387Y-75376000D01*
X76646000Y-75421387D01*
X76584000Y-75438000D01*
X68704000Y-75438000D01*
X68642000Y-75421387D01*
X68596613Y-75376000D01*
X68580000Y-75314000D01*
X68580000Y-66310326D01*
X68580000Y-66294000D01*
X68563674Y-66294000D01*
X62750211Y-66294000D01*
X62738000Y-66294000D01*
X62729364Y-66302635D01*
X62729361Y-66302638D01*
X61730242Y-67301757D01*
X61730239Y-67301760D01*
X61722000Y-67310000D01*
X61721584Y-67321644D01*
X61721584Y-67321645D01*
X61468455Y-74409238D01*
X61468455Y-74409241D01*
X61468000Y-74422000D01*
X61477032Y-74431032D01*
X66003681Y-78957681D01*
X66030561Y-78997909D01*
X66040000Y-79045362D01*
X66040000Y-80140000D01*
X66023387Y-80202000D01*
X65978000Y-80247387D01*
X65916000Y-80264000D01*
X64008000Y-80264000D01*
X64008000Y-80280326D01*
X64008000Y-83188000D01*
X63991387Y-83250000D01*
X63946000Y-83295387D01*
X63884000Y-83312000D01*
X62276730Y-83312000D01*
X62229277Y-83302561D01*
X62189049Y-83275681D01*
X62080761Y-83167393D01*
X62075656Y-83162288D01*
X62069515Y-83158500D01*
X62069511Y-83158497D01*
X61932480Y-83073977D01*
X61926334Y-83070186D01*
X61759797Y-83015001D01*
X61753064Y-83014313D01*
X61753059Y-83014312D01*
X61660140Y-83004819D01*
X61660123Y-83004818D01*
X61657009Y-83004500D01*
X61653860Y-83004500D01*
X57460140Y-83004500D01*
X57460120Y-83004500D01*
X57456992Y-83004501D01*
X57453860Y-83004820D01*
X57453858Y-83004821D01*
X57360938Y-83014312D01*
X57360928Y-83014313D01*
X57354203Y-83015001D01*
X57347781Y-83017128D01*
X57347776Y-83017130D01*
X57194521Y-83067914D01*
X57194517Y-83067915D01*
X57187666Y-83070186D01*
X57181522Y-83073975D01*
X57181519Y-83073977D01*
X57044488Y-83158497D01*
X57044480Y-83158503D01*
X57038344Y-83162288D01*
X57033242Y-83167389D01*
X57033238Y-83167393D01*
X56924951Y-83275681D01*
X56884723Y-83302561D01*
X56837270Y-83312000D01*
X56004000Y-83312000D01*
X55942000Y-83295387D01*
X55896613Y-83250000D01*
X55880000Y-83188000D01*
X55880000Y-81658000D01*
X55896613Y-81596000D01*
X55942000Y-81550613D01*
X56004000Y-81534000D01*
X56980947Y-81534000D01*
X57046043Y-81552461D01*
X57187666Y-81639814D01*
X57354203Y-81694999D01*
X57456991Y-81705500D01*
X61657008Y-81705499D01*
X61759797Y-81694999D01*
X61926334Y-81639814D01*
X62067956Y-81552461D01*
X62133053Y-81534000D01*
X62213674Y-81534000D01*
X62230000Y-81534000D01*
X62230000Y-81409718D01*
X62248461Y-81344622D01*
X62288021Y-81280483D01*
X62291814Y-81274334D01*
X62346999Y-81107797D01*
X62357500Y-81005009D01*
X62357499Y-80304992D01*
X62346999Y-80202203D01*
X62291814Y-80035666D01*
X62288021Y-80029516D01*
X62248461Y-79965378D01*
X62230000Y-79900282D01*
X62230000Y-77232035D01*
X62230000Y-77216000D01*
X62213976Y-77215554D01*
X62213973Y-77215554D01*
X54957999Y-77013999D01*
X53206556Y-76965348D01*
X53146023Y-76947618D01*
X53102044Y-76902400D01*
X53086000Y-76841397D01*
X53086000Y-63879341D01*
X53102836Y-63816957D01*
X53148771Y-63771512D01*
X53211333Y-63755348D01*
X76585333Y-64006681D01*
G37*
%TD.AperFunction*%
%TD*%
%TA.AperFunction,Conductor*%
%TO.N,GND*%
G36*
X72915065Y-78363015D02*
G01*
X72959088Y-78400615D01*
X72981243Y-78454102D01*
X72976701Y-78511818D01*
X72946451Y-78561181D01*
X72851393Y-78656238D01*
X72851389Y-78656242D01*
X72846288Y-78661344D01*
X72842503Y-78667480D01*
X72842497Y-78667488D01*
X72757977Y-78804519D01*
X72754186Y-78810666D01*
X72751915Y-78817517D01*
X72751914Y-78817521D01*
X72710195Y-78943421D01*
X72699001Y-78977203D01*
X72698313Y-78983933D01*
X72698312Y-78983940D01*
X72688819Y-79076859D01*
X72688818Y-79076877D01*
X72688500Y-79079991D01*
X72688500Y-79083138D01*
X72688500Y-79083139D01*
X72688500Y-79676858D01*
X72688500Y-79676877D01*
X72688501Y-79680008D01*
X72688820Y-79683140D01*
X72688821Y-79683141D01*
X72698312Y-79776061D01*
X72698313Y-79776069D01*
X72699001Y-79782797D01*
X72754186Y-79949334D01*
X72757977Y-79955480D01*
X72842497Y-80092511D01*
X72842500Y-80092515D01*
X72846288Y-80098656D01*
X72970344Y-80222712D01*
X72976485Y-80226500D01*
X72976488Y-80226502D01*
X72996751Y-80239000D01*
X73119666Y-80314814D01*
X73286203Y-80369999D01*
X73388991Y-80380500D01*
X73978547Y-80380499D01*
X74026000Y-80389938D01*
X74066228Y-80416818D01*
X75363894Y-81714485D01*
X75395069Y-81766822D01*
X75397558Y-81827690D01*
X75370759Y-81882398D01*
X75321141Y-81917741D01*
X75264073Y-81924770D01*
X75263019Y-81924500D01*
X75255222Y-81924500D01*
X75242983Y-81924500D01*
X75223597Y-81922974D01*
X75203804Y-81919840D01*
X75196038Y-81920574D01*
X75196035Y-81920574D01*
X75160324Y-81923950D01*
X75148655Y-81924500D01*
X72065453Y-81924500D01*
X72018000Y-81915061D01*
X71977772Y-81888181D01*
X71746818Y-81657227D01*
X71719938Y-81616999D01*
X71710499Y-81569550D01*
X71710499Y-80979992D01*
X71699999Y-80877203D01*
X71644814Y-80710666D01*
X71552712Y-80561344D01*
X71428656Y-80437288D01*
X71422511Y-80433498D01*
X71416843Y-80429016D01*
X71418079Y-80427451D01*
X71382641Y-80390435D01*
X71366916Y-80330000D01*
X71382641Y-80269565D01*
X71418079Y-80232548D01*
X71416843Y-80230984D01*
X71422511Y-80226502D01*
X71428656Y-80222712D01*
X71552712Y-80098656D01*
X71644814Y-79949334D01*
X71699999Y-79782797D01*
X71710500Y-79680009D01*
X71710499Y-79090451D01*
X71719938Y-79042999D01*
X71746818Y-79002771D01*
X72363771Y-78385819D01*
X72403999Y-78358939D01*
X72451452Y-78349500D01*
X72858770Y-78349500D01*
X72915065Y-78363015D01*
G37*
%TD.AperFunction*%
%TA.AperFunction,Conductor*%
G36*
X77588001Y-71119939D02*
G01*
X77628229Y-71146819D01*
X80872181Y-74390771D01*
X80899061Y-74430999D01*
X80908500Y-74478452D01*
X80908500Y-75513622D01*
X80892777Y-75574054D01*
X80849596Y-75619161D01*
X80821496Y-75636492D01*
X80821487Y-75636498D01*
X80815344Y-75640288D01*
X80810236Y-75645395D01*
X80810232Y-75645399D01*
X80696393Y-75759238D01*
X80696389Y-75759242D01*
X80691288Y-75764344D01*
X80687503Y-75770480D01*
X80687497Y-75770488D01*
X80602977Y-75907519D01*
X80599186Y-75913666D01*
X80596915Y-75920517D01*
X80596914Y-75920521D01*
X80546131Y-76073774D01*
X80544001Y-76080203D01*
X80543313Y-76086933D01*
X80543312Y-76086940D01*
X80533819Y-76179859D01*
X80533818Y-76179877D01*
X80533500Y-76182991D01*
X80533500Y-76186138D01*
X80533500Y-76186139D01*
X80533500Y-77229859D01*
X80533500Y-77229878D01*
X80533501Y-77233008D01*
X80533820Y-77236140D01*
X80533821Y-77236141D01*
X80543312Y-77329061D01*
X80543313Y-77329069D01*
X80544001Y-77335797D01*
X80546129Y-77342219D01*
X80546130Y-77342223D01*
X80558861Y-77380641D01*
X80599186Y-77502334D01*
X80602977Y-77508480D01*
X80687497Y-77645511D01*
X80687500Y-77645515D01*
X80691288Y-77651656D01*
X80815344Y-77775712D01*
X80821485Y-77779500D01*
X80821488Y-77779502D01*
X80878558Y-77814702D01*
X80964666Y-77867814D01*
X81131203Y-77922999D01*
X81233991Y-77933500D01*
X81823546Y-77933499D01*
X81870999Y-77942938D01*
X81911227Y-77969818D01*
X82568181Y-78626772D01*
X82595061Y-78667000D01*
X82604500Y-78714453D01*
X82604500Y-79568501D01*
X82587887Y-79630501D01*
X82542500Y-79675888D01*
X82480500Y-79692501D01*
X82419628Y-79692501D01*
X82416350Y-79692853D01*
X82416338Y-79692854D01*
X82367731Y-79698079D01*
X82367725Y-79698080D01*
X82360017Y-79698909D01*
X82352752Y-79701618D01*
X82352746Y-79701620D01*
X82233480Y-79746104D01*
X82233478Y-79746104D01*
X82225169Y-79749204D01*
X82218072Y-79754516D01*
X82218068Y-79754519D01*
X82117050Y-79830141D01*
X82117046Y-79830144D01*
X82109954Y-79835454D01*
X82104644Y-79842546D01*
X82104641Y-79842550D01*
X82029019Y-79943568D01*
X82029016Y-79943572D01*
X82023704Y-79950669D01*
X82020604Y-79958978D01*
X82020604Y-79958980D01*
X81976120Y-80078247D01*
X81976119Y-80078250D01*
X81973409Y-80085517D01*
X81972579Y-80093227D01*
X81972579Y-80093232D01*
X81967355Y-80141819D01*
X81967354Y-80141831D01*
X81967000Y-80145127D01*
X81967000Y-80148448D01*
X81967000Y-80148449D01*
X81967000Y-80887560D01*
X81967000Y-80887578D01*
X81967001Y-80890872D01*
X81967353Y-80894150D01*
X81967354Y-80894161D01*
X81972579Y-80942768D01*
X81972580Y-80942773D01*
X81973409Y-80950483D01*
X81976119Y-80957749D01*
X81976120Y-80957753D01*
X81993745Y-81005008D01*
X82023704Y-81085331D01*
X82029018Y-81092430D01*
X82029019Y-81092431D01*
X82102576Y-81190691D01*
X82109954Y-81200546D01*
X82225169Y-81286796D01*
X82360017Y-81337091D01*
X82419627Y-81343500D01*
X84040372Y-81343499D01*
X84099983Y-81337091D01*
X84209961Y-81296071D01*
X84276178Y-81290384D01*
X84335823Y-81319710D01*
X84371757Y-81375624D01*
X84373655Y-81442061D01*
X84340972Y-81499935D01*
X83644726Y-82196181D01*
X83604498Y-82223061D01*
X83557045Y-82232500D01*
X82422939Y-82232500D01*
X82422920Y-82232500D01*
X82419628Y-82232501D01*
X82416350Y-82232853D01*
X82416338Y-82232854D01*
X82367731Y-82238079D01*
X82367725Y-82238080D01*
X82360017Y-82238909D01*
X82352752Y-82241618D01*
X82352746Y-82241620D01*
X82233480Y-82286104D01*
X82233478Y-82286104D01*
X82225169Y-82289204D01*
X82218072Y-82294516D01*
X82218068Y-82294519D01*
X82117050Y-82370141D01*
X82117046Y-82370144D01*
X82109954Y-82375454D01*
X82104644Y-82382546D01*
X82104641Y-82382550D01*
X82029019Y-82483568D01*
X82029016Y-82483572D01*
X82023704Y-82490669D01*
X82020604Y-82498978D01*
X82020604Y-82498980D01*
X81976120Y-82618247D01*
X81976119Y-82618250D01*
X81973409Y-82625517D01*
X81972579Y-82633227D01*
X81972579Y-82633232D01*
X81967355Y-82681819D01*
X81967354Y-82681831D01*
X81967000Y-82685127D01*
X81967000Y-82688448D01*
X81967000Y-82688449D01*
X81967000Y-83427560D01*
X81967000Y-83427578D01*
X81967001Y-83430872D01*
X81967353Y-83434150D01*
X81967354Y-83434161D01*
X81972579Y-83482768D01*
X81972580Y-83482773D01*
X81973409Y-83490483D01*
X81976119Y-83497749D01*
X81976120Y-83497753D01*
X82010205Y-83589139D01*
X82023704Y-83625331D01*
X82029016Y-83632427D01*
X82029643Y-83633575D01*
X82044810Y-83693000D01*
X82029643Y-83752425D01*
X82029016Y-83753572D01*
X82023704Y-83760669D01*
X82020607Y-83768971D01*
X82020605Y-83768976D01*
X81976120Y-83888247D01*
X81976119Y-83888250D01*
X81973409Y-83895517D01*
X81972579Y-83903227D01*
X81972579Y-83903232D01*
X81967355Y-83951819D01*
X81967354Y-83951831D01*
X81967000Y-83955127D01*
X81967000Y-83958448D01*
X81967000Y-83958449D01*
X81967000Y-84697560D01*
X81967000Y-84697578D01*
X81967001Y-84700872D01*
X81967353Y-84704150D01*
X81967354Y-84704161D01*
X81972579Y-84752768D01*
X81972580Y-84752773D01*
X81973409Y-84760483D01*
X81976119Y-84767749D01*
X81976120Y-84767753D01*
X82001575Y-84836000D01*
X82023704Y-84895331D01*
X82029016Y-84902427D01*
X82029643Y-84903575D01*
X82044810Y-84963000D01*
X82029643Y-85022425D01*
X82029016Y-85023572D01*
X82023704Y-85030669D01*
X82020607Y-85038971D01*
X82020605Y-85038976D01*
X81976120Y-85158247D01*
X81976119Y-85158250D01*
X81973409Y-85165517D01*
X81972579Y-85173227D01*
X81972579Y-85173232D01*
X81967355Y-85221819D01*
X81967354Y-85221831D01*
X81967000Y-85225127D01*
X81967000Y-85228448D01*
X81967000Y-85228449D01*
X81967000Y-85967560D01*
X81967000Y-85967578D01*
X81967001Y-85970872D01*
X81967353Y-85974150D01*
X81967354Y-85974161D01*
X81972579Y-86022768D01*
X81972580Y-86022773D01*
X81973409Y-86030483D01*
X81976119Y-86037749D01*
X81976120Y-86037753D01*
X82020604Y-86157021D01*
X82020605Y-86157024D01*
X82023704Y-86165331D01*
X82029018Y-86172430D01*
X82029642Y-86173572D01*
X82044810Y-86232997D01*
X82029644Y-86292422D01*
X82029014Y-86293575D01*
X82023704Y-86300669D01*
X82020607Y-86308971D01*
X82020606Y-86308974D01*
X81976120Y-86428247D01*
X81976119Y-86428250D01*
X81973409Y-86435517D01*
X81972579Y-86443227D01*
X81972579Y-86443232D01*
X81967355Y-86491819D01*
X81967354Y-86491831D01*
X81967000Y-86495127D01*
X81967000Y-86498448D01*
X81967000Y-86498449D01*
X81967000Y-87237560D01*
X81967000Y-87237578D01*
X81967001Y-87240872D01*
X81967353Y-87244150D01*
X81967354Y-87244161D01*
X81972579Y-87292768D01*
X81972580Y-87292773D01*
X81973409Y-87300483D01*
X81976119Y-87307749D01*
X81976120Y-87307753D01*
X82020604Y-87427020D01*
X82023704Y-87435331D01*
X82029016Y-87442427D01*
X82029643Y-87443575D01*
X82044810Y-87503000D01*
X82029643Y-87562425D01*
X82029016Y-87563572D01*
X82023704Y-87570669D01*
X82020607Y-87578971D01*
X82020605Y-87578976D01*
X81976120Y-87698247D01*
X81976119Y-87698250D01*
X81973409Y-87705517D01*
X81972579Y-87713227D01*
X81972579Y-87713232D01*
X81967355Y-87761819D01*
X81967354Y-87761831D01*
X81967000Y-87765127D01*
X81967000Y-87768448D01*
X81967000Y-87768449D01*
X81967000Y-88507560D01*
X81967000Y-88507578D01*
X81967001Y-88510872D01*
X81967353Y-88514150D01*
X81967354Y-88514161D01*
X81972579Y-88562768D01*
X81972580Y-88562773D01*
X81973409Y-88570483D01*
X81976119Y-88577749D01*
X81976120Y-88577753D01*
X82020604Y-88697020D01*
X82023704Y-88705331D01*
X82029016Y-88712427D01*
X82029643Y-88713575D01*
X82044810Y-88773000D01*
X82029643Y-88832425D01*
X82029016Y-88833572D01*
X82023704Y-88840669D01*
X82020607Y-88848971D01*
X82020605Y-88848976D01*
X81976120Y-88968247D01*
X81976119Y-88968250D01*
X81973409Y-88975517D01*
X81972579Y-88983227D01*
X81972579Y-88983232D01*
X81967355Y-89031819D01*
X81967354Y-89031831D01*
X81967000Y-89035127D01*
X81967000Y-89038448D01*
X81967000Y-89038449D01*
X81967000Y-89777560D01*
X81967000Y-89777578D01*
X81967001Y-89780872D01*
X81967353Y-89784150D01*
X81967354Y-89784161D01*
X81972579Y-89832768D01*
X81972580Y-89832773D01*
X81973409Y-89840483D01*
X81976119Y-89847749D01*
X81976120Y-89847753D01*
X81990180Y-89885448D01*
X82023704Y-89975331D01*
X82029018Y-89982430D01*
X82029019Y-89982431D01*
X82067117Y-90033324D01*
X82109954Y-90090546D01*
X82225169Y-90176796D01*
X82360017Y-90227091D01*
X82419627Y-90233500D01*
X82480500Y-90233500D01*
X82542500Y-90250113D01*
X82587887Y-90295500D01*
X82604500Y-90357500D01*
X82604500Y-92662225D01*
X82603978Y-92673280D01*
X82602327Y-92680667D01*
X82602571Y-92688453D01*
X82602571Y-92688461D01*
X82604439Y-92747873D01*
X82604500Y-92751768D01*
X82604500Y-92779350D01*
X82604988Y-92783219D01*
X82604989Y-92783225D01*
X82605004Y-92783343D01*
X82605918Y-92794966D01*
X82607045Y-92830830D01*
X82607046Y-92830837D01*
X82607291Y-92838627D01*
X82609467Y-92846119D01*
X82609468Y-92846121D01*
X82612879Y-92857862D01*
X82616825Y-92876915D01*
X82619336Y-92896792D01*
X82622206Y-92904042D01*
X82622208Y-92904048D01*
X82635414Y-92937404D01*
X82639197Y-92948451D01*
X82651382Y-92990390D01*
X82655353Y-92997105D01*
X82655354Y-92997107D01*
X82661581Y-93007637D01*
X82670136Y-93025099D01*
X82674642Y-93036480D01*
X82674643Y-93036483D01*
X82677514Y-93043732D01*
X82699440Y-93073912D01*
X82703181Y-93079060D01*
X82709593Y-93088822D01*
X82727856Y-93119702D01*
X82727859Y-93119707D01*
X82731830Y-93126420D01*
X82737344Y-93131934D01*
X82737345Y-93131935D01*
X82745990Y-93140580D01*
X82758626Y-93155374D01*
X82765819Y-93165275D01*
X82765823Y-93165279D01*
X82770406Y-93171587D01*
X82776415Y-93176558D01*
X82776416Y-93176559D01*
X82804058Y-93199426D01*
X82812699Y-93207289D01*
X85561681Y-95956272D01*
X85588561Y-95996500D01*
X85598000Y-96043953D01*
X85598000Y-99580500D01*
X85581387Y-99642500D01*
X85536000Y-99687887D01*
X85474000Y-99704500D01*
X81932775Y-99704500D01*
X81921719Y-99703978D01*
X81914333Y-99702327D01*
X81906545Y-99702571D01*
X81906538Y-99702571D01*
X81847127Y-99704439D01*
X81843232Y-99704500D01*
X81815650Y-99704500D01*
X81811805Y-99704985D01*
X81811780Y-99704987D01*
X81811653Y-99705004D01*
X81800034Y-99705918D01*
X81764172Y-99707045D01*
X81764165Y-99707046D01*
X81756373Y-99707291D01*
X81748888Y-99709465D01*
X81748872Y-99709468D01*
X81737126Y-99712881D01*
X81718083Y-99716825D01*
X81705949Y-99718358D01*
X81705948Y-99718358D01*
X81698208Y-99719336D01*
X81690958Y-99722205D01*
X81690951Y-99722208D01*
X81657598Y-99735413D01*
X81646554Y-99739194D01*
X81612101Y-99749204D01*
X81612090Y-99749208D01*
X81604610Y-99751382D01*
X81597898Y-99755351D01*
X81597896Y-99755352D01*
X81587364Y-99761580D01*
X81569904Y-99770134D01*
X81558519Y-99774642D01*
X81558513Y-99774644D01*
X81551268Y-99777514D01*
X81544963Y-99782094D01*
X81544955Y-99782099D01*
X81515932Y-99803185D01*
X81506174Y-99809595D01*
X81475296Y-99827857D01*
X81475290Y-99827861D01*
X81468580Y-99831830D01*
X81463067Y-99837341D01*
X81463060Y-99837348D01*
X81454410Y-99845998D01*
X81439627Y-99858624D01*
X81429726Y-99865817D01*
X81429716Y-99865826D01*
X81423413Y-99870406D01*
X81418444Y-99876411D01*
X81418441Y-99876415D01*
X81395572Y-99904059D01*
X81387711Y-99912697D01*
X80387670Y-100912737D01*
X80332083Y-100944831D01*
X80267896Y-100944831D01*
X80233986Y-100935745D01*
X80233985Y-100935744D01*
X80228761Y-100934345D01*
X80223373Y-100933873D01*
X80223370Y-100933873D01*
X80015395Y-100915678D01*
X80010000Y-100915206D01*
X80004605Y-100915678D01*
X79796637Y-100933872D01*
X79796628Y-100933873D01*
X79791239Y-100934345D01*
X79786018Y-100935743D01*
X79786006Y-100935746D01*
X79584346Y-100989781D01*
X79584335Y-100989784D01*
X79579125Y-100991181D01*
X79574224Y-100993465D01*
X79574222Y-100993467D01*
X79385017Y-101081694D01*
X79385011Y-101081696D01*
X79380103Y-101083986D01*
X79375669Y-101087090D01*
X79375665Y-101087093D01*
X79204654Y-101206836D01*
X79204644Y-101206843D01*
X79200220Y-101209942D01*
X79196394Y-101213767D01*
X79196388Y-101213773D01*
X79048773Y-101361388D01*
X79048767Y-101361394D01*
X79044942Y-101365220D01*
X79041843Y-101369644D01*
X79041836Y-101369654D01*
X78922093Y-101540665D01*
X78922090Y-101540669D01*
X78918986Y-101545103D01*
X78916696Y-101550011D01*
X78916694Y-101550017D01*
X78828467Y-101739222D01*
X78826181Y-101744125D01*
X78824784Y-101749335D01*
X78824781Y-101749346D01*
X78770746Y-101951006D01*
X78770743Y-101951018D01*
X78769345Y-101956239D01*
X78768873Y-101961628D01*
X78768872Y-101961637D01*
X78750710Y-102169236D01*
X78750206Y-102175000D01*
X78750678Y-102180395D01*
X78768872Y-102388362D01*
X78768873Y-102388369D01*
X78769345Y-102393761D01*
X78770744Y-102398983D01*
X78770746Y-102398993D01*
X78824781Y-102600653D01*
X78824783Y-102600660D01*
X78826181Y-102605875D01*
X78828467Y-102610777D01*
X78910017Y-102785664D01*
X78918986Y-102804897D01*
X78922093Y-102809334D01*
X79041836Y-102980345D01*
X79041839Y-102980349D01*
X79044942Y-102984780D01*
X79200220Y-103140058D01*
X79380103Y-103266014D01*
X79579125Y-103358819D01*
X79584345Y-103360217D01*
X79584346Y-103360218D01*
X79786006Y-103414253D01*
X79786008Y-103414253D01*
X79791239Y-103415655D01*
X80010000Y-103434794D01*
X80228761Y-103415655D01*
X80440875Y-103358819D01*
X80639897Y-103266014D01*
X80819780Y-103140058D01*
X80975058Y-102984780D01*
X81101014Y-102804897D01*
X81167618Y-102662062D01*
X81213375Y-102609887D01*
X81280000Y-102590467D01*
X81346625Y-102609887D01*
X81392382Y-102662063D01*
X81450017Y-102785664D01*
X81458986Y-102804897D01*
X81462093Y-102809334D01*
X81581836Y-102980345D01*
X81581839Y-102980349D01*
X81584942Y-102984780D01*
X81740220Y-103140058D01*
X81920103Y-103266014D01*
X82119125Y-103358819D01*
X82124345Y-103360217D01*
X82124346Y-103360218D01*
X82326006Y-103414253D01*
X82326008Y-103414253D01*
X82331239Y-103415655D01*
X82550000Y-103434794D01*
X82768761Y-103415655D01*
X82980875Y-103358819D01*
X83179897Y-103266014D01*
X83359780Y-103140058D01*
X83515058Y-102984780D01*
X83607067Y-102853377D01*
X83651386Y-102814511D01*
X83708643Y-102800500D01*
X85448107Y-102800500D01*
X85510693Y-102817453D01*
X85556165Y-102863677D01*
X85572089Y-102926532D01*
X85543989Y-104640632D01*
X85429286Y-111637533D01*
X85412006Y-111698670D01*
X85366715Y-111743224D01*
X85305303Y-111759500D01*
X76600999Y-111759500D01*
X76538205Y-111742425D01*
X76492705Y-111695903D01*
X76477030Y-111632745D01*
X76501435Y-110534513D01*
X76694553Y-101844147D01*
X76686540Y-101742576D01*
X76677652Y-101693644D01*
X76649432Y-101595739D01*
X76622906Y-101545103D01*
X76603603Y-101508254D01*
X76602151Y-101505482D01*
X76574751Y-101463978D01*
X76510333Y-101385039D01*
X73346142Y-98220847D01*
X73328914Y-98204412D01*
X73320273Y-98196549D01*
X73316993Y-98193703D01*
X73306402Y-98183237D01*
X73306365Y-98183272D01*
X73305591Y-98182434D01*
X73305585Y-98182428D01*
X73303508Y-98180181D01*
X73279513Y-98154225D01*
X73275908Y-98150150D01*
X73274535Y-98148528D01*
X73272451Y-98145764D01*
X73258394Y-98130922D01*
X73245659Y-98118737D01*
X73223541Y-98097574D01*
X73223526Y-98097561D01*
X73222445Y-98096526D01*
X72938288Y-97850256D01*
X72906703Y-97808058D01*
X72895500Y-97756552D01*
X72895500Y-91060053D01*
X72895500Y-91056000D01*
X72878275Y-90925166D01*
X72861662Y-90863166D01*
X72811163Y-90741250D01*
X72804806Y-90732966D01*
X72733308Y-90639789D01*
X72730829Y-90636558D01*
X72685442Y-90591171D01*
X72667351Y-90577289D01*
X72587199Y-90515785D01*
X72587196Y-90515783D01*
X72580750Y-90510837D01*
X72573241Y-90507726D01*
X72573240Y-90507726D01*
X72462589Y-90461893D01*
X72462584Y-90461891D01*
X72458834Y-90460338D01*
X72454913Y-90459287D01*
X72454909Y-90459286D01*
X72400754Y-90444775D01*
X72400748Y-90444773D01*
X72396834Y-90443725D01*
X72392819Y-90443196D01*
X72392807Y-90443194D01*
X72270019Y-90427029D01*
X72270017Y-90427028D01*
X72266000Y-90426500D01*
X72261947Y-90426500D01*
X69157952Y-90426500D01*
X69101212Y-90412757D01*
X69057049Y-90374574D01*
X68810149Y-90028914D01*
X68092596Y-89024340D01*
X68075415Y-88990109D01*
X68069500Y-88952267D01*
X68069500Y-86996053D01*
X68069500Y-86992000D01*
X68059514Y-86916151D01*
X68064193Y-86862677D01*
X68091036Y-86816189D01*
X68130735Y-86788395D01*
X68130702Y-86788337D01*
X68131373Y-86787949D01*
X68135006Y-86785405D01*
X68145250Y-86781163D01*
X68249942Y-86700829D01*
X68295329Y-86655442D01*
X68375663Y-86550750D01*
X68426162Y-86428834D01*
X68442775Y-86366834D01*
X68460000Y-86236000D01*
X68460000Y-82232687D01*
X68451536Y-82140568D01*
X68443300Y-82096130D01*
X68418189Y-82007093D01*
X68377272Y-81924123D01*
X68353658Y-81885589D01*
X68298309Y-81811469D01*
X68267398Y-81777139D01*
X68252162Y-81756169D01*
X68223678Y-81706833D01*
X68213136Y-81683155D01*
X68195529Y-81628969D01*
X68190140Y-81603613D01*
X68187659Y-81580009D01*
X68187330Y-81576877D01*
X69259500Y-81576877D01*
X69259501Y-81580008D01*
X69259820Y-81583140D01*
X69259821Y-81583141D01*
X69269312Y-81676061D01*
X69269313Y-81676069D01*
X69270001Y-81682797D01*
X69272129Y-81689219D01*
X69272130Y-81689223D01*
X69318014Y-81827690D01*
X69325186Y-81849334D01*
X69328977Y-81855480D01*
X69413497Y-81992511D01*
X69413500Y-81992515D01*
X69417288Y-81998656D01*
X69541344Y-82122712D01*
X69547485Y-82126500D01*
X69547488Y-82126502D01*
X69570293Y-82140568D01*
X69690666Y-82214814D01*
X69857203Y-82269999D01*
X69959991Y-82280500D01*
X70549546Y-82280499D01*
X70596999Y-82289938D01*
X70637227Y-82316818D01*
X71257707Y-82937298D01*
X71265159Y-82945487D01*
X71269214Y-82951877D01*
X71318223Y-82997900D01*
X71321019Y-83000610D01*
X71340529Y-83020120D01*
X71343709Y-83022587D01*
X71352571Y-83030155D01*
X71366020Y-83042785D01*
X71378732Y-83054723D01*
X71378734Y-83054724D01*
X71384418Y-83060062D01*
X71391251Y-83063818D01*
X71391252Y-83063819D01*
X71401973Y-83069713D01*
X71418234Y-83080394D01*
X71434064Y-83092673D01*
X71474155Y-83110021D01*
X71484635Y-83115155D01*
X71522908Y-83136197D01*
X71542316Y-83141180D01*
X71560719Y-83147481D01*
X71571944Y-83152339D01*
X71571946Y-83152339D01*
X71579104Y-83155437D01*
X71622258Y-83162271D01*
X71633644Y-83164629D01*
X71675981Y-83175500D01*
X71696017Y-83175500D01*
X71715415Y-83177027D01*
X71727486Y-83178939D01*
X71727487Y-83178939D01*
X71735196Y-83180160D01*
X71773276Y-83176560D01*
X71778676Y-83176050D01*
X71790345Y-83175500D01*
X72629244Y-83175500D01*
X72685700Y-83189097D01*
X72729774Y-83226907D01*
X72751801Y-83280637D01*
X72746950Y-83338502D01*
X72699001Y-83483203D01*
X72698313Y-83489933D01*
X72698312Y-83489940D01*
X72688819Y-83582859D01*
X72688818Y-83582877D01*
X72688500Y-83585991D01*
X72688500Y-83589138D01*
X72688500Y-83589139D01*
X72688500Y-84182858D01*
X72688500Y-84182877D01*
X72688501Y-84186008D01*
X72688820Y-84189140D01*
X72688821Y-84189141D01*
X72698312Y-84282061D01*
X72698313Y-84282069D01*
X72699001Y-84288797D01*
X72701129Y-84295219D01*
X72701130Y-84295223D01*
X72744737Y-84426818D01*
X72754186Y-84455334D01*
X72757977Y-84461480D01*
X72842497Y-84598511D01*
X72842500Y-84598515D01*
X72846288Y-84604656D01*
X72970344Y-84728712D01*
X72976488Y-84732502D01*
X72982157Y-84736984D01*
X72980918Y-84738549D01*
X73016348Y-84775545D01*
X73032083Y-84835967D01*
X73016379Y-84896398D01*
X72980924Y-84933457D01*
X72982157Y-84935016D01*
X72976486Y-84939499D01*
X72970344Y-84943288D01*
X72965242Y-84948389D01*
X72965238Y-84948393D01*
X72851393Y-85062238D01*
X72851389Y-85062242D01*
X72846288Y-85067344D01*
X72842503Y-85073480D01*
X72842497Y-85073488D01*
X72757977Y-85210519D01*
X72754186Y-85216666D01*
X72751915Y-85223517D01*
X72751914Y-85223521D01*
X72750281Y-85228449D01*
X72699001Y-85383203D01*
X72698313Y-85389933D01*
X72698312Y-85389940D01*
X72688819Y-85482859D01*
X72688818Y-85482877D01*
X72688500Y-85485991D01*
X72688500Y-85489138D01*
X72688500Y-85489139D01*
X72688500Y-86082858D01*
X72688500Y-86082877D01*
X72688501Y-86086008D01*
X72688820Y-86089140D01*
X72688821Y-86089141D01*
X72698312Y-86182061D01*
X72698313Y-86182069D01*
X72699001Y-86188797D01*
X72701129Y-86195219D01*
X72701130Y-86195223D01*
X72717721Y-86245291D01*
X72754186Y-86355334D01*
X72757977Y-86361480D01*
X72842497Y-86498511D01*
X72842500Y-86498515D01*
X72846288Y-86504656D01*
X72970344Y-86628712D01*
X72976485Y-86632500D01*
X72976488Y-86632502D01*
X73013680Y-86655442D01*
X73119666Y-86720814D01*
X73286203Y-86775999D01*
X73388991Y-86786500D01*
X74147547Y-86786499D01*
X74203841Y-86800014D01*
X74247864Y-86837614D01*
X74270019Y-86891101D01*
X74265477Y-86948817D01*
X74235227Y-86998180D01*
X74066226Y-87167181D01*
X74025998Y-87194061D01*
X73978545Y-87203500D01*
X73392141Y-87203500D01*
X73392121Y-87203500D01*
X73388992Y-87203501D01*
X73385860Y-87203820D01*
X73385858Y-87203821D01*
X73292938Y-87213312D01*
X73292928Y-87213313D01*
X73286203Y-87214001D01*
X73279781Y-87216128D01*
X73279776Y-87216130D01*
X73126521Y-87266914D01*
X73126517Y-87266915D01*
X73119666Y-87269186D01*
X73113522Y-87272975D01*
X73113519Y-87272977D01*
X72976488Y-87357497D01*
X72976480Y-87357503D01*
X72970344Y-87361288D01*
X72965242Y-87366389D01*
X72965238Y-87366393D01*
X72851393Y-87480238D01*
X72851389Y-87480242D01*
X72846288Y-87485344D01*
X72842503Y-87491480D01*
X72842497Y-87491488D01*
X72757977Y-87628519D01*
X72754186Y-87634666D01*
X72751915Y-87641517D01*
X72751914Y-87641521D01*
X72701131Y-87794774D01*
X72699001Y-87801203D01*
X72698313Y-87807933D01*
X72698312Y-87807940D01*
X72688819Y-87900859D01*
X72688818Y-87900877D01*
X72688500Y-87903991D01*
X72688500Y-87907138D01*
X72688500Y-87907139D01*
X72688500Y-88500858D01*
X72688500Y-88500877D01*
X72688501Y-88504008D01*
X72688820Y-88507140D01*
X72688821Y-88507141D01*
X72698312Y-88600061D01*
X72698313Y-88600069D01*
X72699001Y-88606797D01*
X72754186Y-88773334D01*
X72757977Y-88779480D01*
X72842497Y-88916511D01*
X72842500Y-88916515D01*
X72846288Y-88922656D01*
X72970344Y-89046712D01*
X72976485Y-89050500D01*
X72976488Y-89050502D01*
X73032612Y-89085119D01*
X73119666Y-89138814D01*
X73286203Y-89193999D01*
X73388991Y-89204500D01*
X74439008Y-89204499D01*
X74541797Y-89193999D01*
X74708334Y-89138814D01*
X74857656Y-89046712D01*
X74981712Y-88922656D01*
X75073814Y-88773334D01*
X75128999Y-88606797D01*
X75139500Y-88504009D01*
X75139499Y-87914452D01*
X75148938Y-87867000D01*
X75175818Y-87826772D01*
X75472772Y-87529819D01*
X75513000Y-87502939D01*
X75560453Y-87493500D01*
X76449893Y-87493500D01*
X76507368Y-87507624D01*
X76551749Y-87546780D01*
X76572926Y-87602046D01*
X76566075Y-87660833D01*
X76552120Y-87698247D01*
X76552119Y-87698250D01*
X76549409Y-87705517D01*
X76548579Y-87713227D01*
X76548579Y-87713232D01*
X76543355Y-87761819D01*
X76543354Y-87761831D01*
X76543000Y-87765127D01*
X76543000Y-87768449D01*
X76543000Y-88027546D01*
X76533561Y-88074999D01*
X76506681Y-88115227D01*
X75050696Y-89571211D01*
X75042511Y-89578659D01*
X75036123Y-89582714D01*
X75030788Y-89588394D01*
X75030783Y-89588399D01*
X74990096Y-89631725D01*
X74987392Y-89634516D01*
X74970628Y-89651280D01*
X74970621Y-89651287D01*
X74967880Y-89654029D01*
X74965500Y-89657096D01*
X74965489Y-89657109D01*
X74965400Y-89657225D01*
X74957842Y-89666070D01*
X74933280Y-89692227D01*
X74933273Y-89692236D01*
X74927938Y-89697918D01*
X74924182Y-89704749D01*
X74924179Y-89704754D01*
X74918285Y-89715475D01*
X74907609Y-89731727D01*
X74900109Y-89741396D01*
X74900101Y-89741407D01*
X74895327Y-89747564D01*
X74892234Y-89754708D01*
X74892229Y-89754719D01*
X74877974Y-89787660D01*
X74872838Y-89798143D01*
X74871035Y-89801423D01*
X74851803Y-89836408D01*
X74849864Y-89843956D01*
X74849863Y-89843961D01*
X74846822Y-89855807D01*
X74840521Y-89874211D01*
X74835658Y-89885448D01*
X74835656Y-89885452D01*
X74832562Y-89892604D01*
X74831342Y-89900303D01*
X74831342Y-89900305D01*
X74825729Y-89935741D01*
X74823361Y-89947176D01*
X74814438Y-89981928D01*
X74814436Y-89981936D01*
X74812500Y-89989481D01*
X74812500Y-89997277D01*
X74812500Y-90009517D01*
X74810974Y-90028902D01*
X74807840Y-90048696D01*
X74808574Y-90056461D01*
X74808574Y-90056464D01*
X74811950Y-90092176D01*
X74812500Y-90103845D01*
X74812500Y-92205501D01*
X74795887Y-92267501D01*
X74750500Y-92312888D01*
X74688500Y-92329501D01*
X74640128Y-92329501D01*
X74636850Y-92329853D01*
X74636838Y-92329854D01*
X74588231Y-92335079D01*
X74588225Y-92335080D01*
X74580517Y-92335909D01*
X74573252Y-92338618D01*
X74573246Y-92338620D01*
X74453980Y-92383104D01*
X74453978Y-92383104D01*
X74445669Y-92386204D01*
X74438572Y-92391516D01*
X74438568Y-92391519D01*
X74337550Y-92467141D01*
X74337546Y-92467144D01*
X74330454Y-92472454D01*
X74325144Y-92479546D01*
X74325141Y-92479550D01*
X74249519Y-92580568D01*
X74249516Y-92580572D01*
X74244204Y-92587669D01*
X74241104Y-92595978D01*
X74241104Y-92595980D01*
X74196620Y-92715247D01*
X74196619Y-92715250D01*
X74193909Y-92722517D01*
X74193079Y-92730227D01*
X74193079Y-92730232D01*
X74187855Y-92778819D01*
X74187854Y-92778831D01*
X74187500Y-92782127D01*
X74187500Y-92785448D01*
X74187500Y-92785449D01*
X74187500Y-93874560D01*
X74187500Y-93874578D01*
X74187501Y-93877872D01*
X74187853Y-93881150D01*
X74187854Y-93881161D01*
X74193079Y-93929770D01*
X74193080Y-93929776D01*
X74193909Y-93937483D01*
X74196617Y-93944746D01*
X74198211Y-93951488D01*
X74198211Y-94008511D01*
X74196617Y-94015254D01*
X74193909Y-94022517D01*
X74193080Y-94030224D01*
X74193079Y-94030230D01*
X74187855Y-94078819D01*
X74187854Y-94078831D01*
X74187500Y-94082127D01*
X74187500Y-94085448D01*
X74187500Y-94085449D01*
X74187500Y-95174560D01*
X74187500Y-95174578D01*
X74187501Y-95177872D01*
X74187853Y-95181150D01*
X74187854Y-95181161D01*
X74193079Y-95229768D01*
X74193080Y-95229773D01*
X74193909Y-95237483D01*
X74196619Y-95244749D01*
X74196620Y-95244753D01*
X74230217Y-95334831D01*
X74244204Y-95372331D01*
X74330454Y-95487546D01*
X74445669Y-95573796D01*
X74580517Y-95624091D01*
X74640127Y-95630500D01*
X76235872Y-95630499D01*
X76295483Y-95624091D01*
X76430331Y-95573796D01*
X76545546Y-95487546D01*
X76631796Y-95372331D01*
X76682091Y-95237483D01*
X76688500Y-95177873D01*
X76688499Y-94082128D01*
X76682091Y-94022517D01*
X76679380Y-94015251D01*
X76677789Y-94008514D01*
X76677789Y-93951484D01*
X76679379Y-93944753D01*
X76682091Y-93937483D01*
X76688500Y-93877873D01*
X76688499Y-92782128D01*
X76682091Y-92722517D01*
X76631796Y-92587669D01*
X76545546Y-92472454D01*
X76430331Y-92386204D01*
X76295483Y-92335909D01*
X76287770Y-92335079D01*
X76287767Y-92335079D01*
X76239180Y-92329855D01*
X76239169Y-92329854D01*
X76235873Y-92329500D01*
X76232551Y-92329500D01*
X76187500Y-92329500D01*
X76125500Y-92312887D01*
X76080113Y-92267500D01*
X76063500Y-92205500D01*
X76063500Y-90378952D01*
X76072939Y-90331499D01*
X76099819Y-90291271D01*
X76225252Y-90165838D01*
X76419765Y-89971323D01*
X76481087Y-89937839D01*
X76550779Y-89942823D01*
X76606713Y-89984694D01*
X76643117Y-90033324D01*
X76685954Y-90090546D01*
X76801169Y-90176796D01*
X76936017Y-90227091D01*
X76995627Y-90233500D01*
X77097415Y-90233499D01*
X77149031Y-90244753D01*
X77191280Y-90276473D01*
X77216489Y-90322900D01*
X77227382Y-90360390D01*
X77231353Y-90367105D01*
X77231354Y-90367107D01*
X77237581Y-90377637D01*
X77246136Y-90395099D01*
X77250642Y-90406480D01*
X77250643Y-90406483D01*
X77253514Y-90413732D01*
X77263175Y-90427029D01*
X77279181Y-90449060D01*
X77285593Y-90458822D01*
X77303856Y-90489702D01*
X77303859Y-90489707D01*
X77307830Y-90496420D01*
X77313345Y-90501935D01*
X77321990Y-90510580D01*
X77334626Y-90525374D01*
X77341819Y-90535275D01*
X77341823Y-90535279D01*
X77346406Y-90541587D01*
X77352415Y-90546558D01*
X77352416Y-90546559D01*
X77380058Y-90569426D01*
X77388699Y-90577289D01*
X79739181Y-92927771D01*
X79766061Y-92967999D01*
X79775500Y-93015452D01*
X79775500Y-93874560D01*
X79775500Y-93874578D01*
X79775501Y-93877872D01*
X79775853Y-93881150D01*
X79775854Y-93881161D01*
X79781079Y-93929770D01*
X79781080Y-93929776D01*
X79781909Y-93937483D01*
X79784617Y-93944746D01*
X79786211Y-93951488D01*
X79786211Y-94008511D01*
X79784617Y-94015254D01*
X79781909Y-94022517D01*
X79781080Y-94030224D01*
X79781079Y-94030230D01*
X79775855Y-94078819D01*
X79775854Y-94078831D01*
X79775500Y-94082127D01*
X79775500Y-94085448D01*
X79775500Y-94085449D01*
X79775500Y-95174560D01*
X79775500Y-95174578D01*
X79775501Y-95177872D01*
X79775853Y-95181150D01*
X79775854Y-95181161D01*
X79781079Y-95229768D01*
X79781080Y-95229773D01*
X79781909Y-95237483D01*
X79784619Y-95244749D01*
X79784620Y-95244753D01*
X79818217Y-95334831D01*
X79832204Y-95372331D01*
X79918454Y-95487546D01*
X80033669Y-95573796D01*
X80168517Y-95624091D01*
X80228127Y-95630500D01*
X81823872Y-95630499D01*
X81883483Y-95624091D01*
X82018331Y-95573796D01*
X82133546Y-95487546D01*
X82219796Y-95372331D01*
X82270091Y-95237483D01*
X82276500Y-95177873D01*
X82276499Y-94082128D01*
X82270091Y-94022517D01*
X82267380Y-94015251D01*
X82265789Y-94008514D01*
X82265789Y-93951484D01*
X82267379Y-93944753D01*
X82270091Y-93937483D01*
X82276500Y-93877873D01*
X82276499Y-92782128D01*
X82270091Y-92722517D01*
X82219796Y-92587669D01*
X82133546Y-92472454D01*
X82018331Y-92386204D01*
X81883483Y-92335909D01*
X81875770Y-92335079D01*
X81875767Y-92335079D01*
X81827180Y-92329855D01*
X81827169Y-92329854D01*
X81823873Y-92329500D01*
X81820551Y-92329500D01*
X80961452Y-92329500D01*
X80913999Y-92320061D01*
X80873771Y-92293181D01*
X78881456Y-90300865D01*
X78847971Y-90239542D01*
X78852955Y-90169850D01*
X78894827Y-90113917D01*
X78918947Y-90095860D01*
X78926046Y-90090546D01*
X79012296Y-89975331D01*
X79062591Y-89840483D01*
X79069000Y-89780873D01*
X79068999Y-89035128D01*
X79062591Y-88975517D01*
X79012296Y-88840669D01*
X79006979Y-88833567D01*
X79006358Y-88832429D01*
X78991189Y-88773000D01*
X79006358Y-88713571D01*
X79006979Y-88712432D01*
X79012296Y-88705331D01*
X79062591Y-88570483D01*
X79069000Y-88510873D01*
X79068999Y-87765128D01*
X79062591Y-87705517D01*
X79012296Y-87570669D01*
X79006979Y-87563567D01*
X79006358Y-87562429D01*
X78991189Y-87503000D01*
X79006358Y-87443571D01*
X79006979Y-87442432D01*
X79012296Y-87435331D01*
X79062591Y-87300483D01*
X79069000Y-87240873D01*
X79068999Y-86495128D01*
X79062591Y-86435517D01*
X79012296Y-86300669D01*
X79006979Y-86293567D01*
X79006358Y-86292429D01*
X78991189Y-86233000D01*
X79006358Y-86173571D01*
X79006979Y-86172432D01*
X79012296Y-86165331D01*
X79062591Y-86030483D01*
X79069000Y-85970873D01*
X79068999Y-85225128D01*
X79062591Y-85165517D01*
X79012296Y-85030669D01*
X79006979Y-85023567D01*
X79006358Y-85022429D01*
X78991189Y-84963000D01*
X79006358Y-84903571D01*
X79006979Y-84902432D01*
X79012296Y-84895331D01*
X79062591Y-84760483D01*
X79069000Y-84700873D01*
X79068999Y-83955128D01*
X79062591Y-83895517D01*
X79012296Y-83760669D01*
X79006979Y-83753567D01*
X79006358Y-83752429D01*
X78991189Y-83693000D01*
X79006358Y-83633571D01*
X79006979Y-83632432D01*
X79012296Y-83625331D01*
X79062591Y-83490483D01*
X79069000Y-83430873D01*
X79068999Y-82685128D01*
X79062591Y-82625517D01*
X79012296Y-82490669D01*
X79006982Y-82483570D01*
X79006357Y-82482426D01*
X78991189Y-82422997D01*
X79006359Y-82363568D01*
X79006977Y-82362435D01*
X79012296Y-82355331D01*
X79062591Y-82220483D01*
X79069000Y-82160873D01*
X79068999Y-81415128D01*
X79062591Y-81355517D01*
X79042087Y-81300544D01*
X79015395Y-81228977D01*
X79015393Y-81228975D01*
X79012296Y-81220669D01*
X79006982Y-81213570D01*
X79006357Y-81212426D01*
X78991189Y-81152997D01*
X79006359Y-81093568D01*
X79006977Y-81092435D01*
X79012296Y-81085331D01*
X79062591Y-80950483D01*
X79069000Y-80890873D01*
X79068999Y-80145128D01*
X79062591Y-80085517D01*
X79012296Y-79950669D01*
X78926046Y-79835454D01*
X78864289Y-79789223D01*
X78817931Y-79754519D01*
X78817930Y-79754518D01*
X78810831Y-79749204D01*
X78675983Y-79698909D01*
X78668270Y-79698079D01*
X78668267Y-79698079D01*
X78619680Y-79692855D01*
X78619669Y-79692854D01*
X78616373Y-79692500D01*
X78613051Y-79692500D01*
X77916452Y-79692500D01*
X77868999Y-79683061D01*
X77828771Y-79656181D01*
X75509286Y-77336695D01*
X75501842Y-77328514D01*
X75497786Y-77322123D01*
X75448775Y-77276098D01*
X75445978Y-77273387D01*
X75429227Y-77256636D01*
X75426471Y-77253880D01*
X75423290Y-77251412D01*
X75414414Y-77243830D01*
X75388269Y-77219278D01*
X75388267Y-77219276D01*
X75382582Y-77213938D01*
X75375749Y-77210182D01*
X75375743Y-77210177D01*
X75365025Y-77204285D01*
X75348766Y-77193606D01*
X75339095Y-77186104D01*
X75339092Y-77186102D01*
X75332936Y-77181327D01*
X75325779Y-77178229D01*
X75325776Y-77178228D01*
X75292849Y-77163978D01*
X75282363Y-77158841D01*
X75250932Y-77141562D01*
X75250923Y-77141558D01*
X75244092Y-77137803D01*
X75236535Y-77135862D01*
X75236531Y-77135861D01*
X75224688Y-77132820D01*
X75206284Y-77126519D01*
X75195057Y-77121660D01*
X75195050Y-77121658D01*
X75187896Y-77118562D01*
X75180192Y-77117341D01*
X75180190Y-77117341D01*
X75144759Y-77111729D01*
X75133324Y-77109361D01*
X75098571Y-77100438D01*
X75098563Y-77100437D01*
X75091019Y-77098500D01*
X75083223Y-77098500D01*
X75070983Y-77098500D01*
X75051597Y-77096974D01*
X75031804Y-77093840D01*
X75024038Y-77094574D01*
X75024035Y-77094574D01*
X74988324Y-77097950D01*
X74976655Y-77098500D01*
X72218775Y-77098500D01*
X72207719Y-77097978D01*
X72200333Y-77096327D01*
X72192545Y-77096571D01*
X72192538Y-77096571D01*
X72133113Y-77098439D01*
X72129219Y-77098500D01*
X72101650Y-77098500D01*
X72097794Y-77098986D01*
X72097791Y-77098987D01*
X72097735Y-77098994D01*
X72097662Y-77099003D01*
X72086044Y-77099917D01*
X72050165Y-77101045D01*
X72050164Y-77101045D01*
X72042373Y-77101290D01*
X72034888Y-77103464D01*
X72034884Y-77103465D01*
X72023125Y-77106881D01*
X72004087Y-77110823D01*
X71991949Y-77112357D01*
X71991941Y-77112358D01*
X71984208Y-77113336D01*
X71976960Y-77116205D01*
X71976954Y-77116207D01*
X71943597Y-77129413D01*
X71932554Y-77133194D01*
X71898100Y-77143205D01*
X71898094Y-77143207D01*
X71890610Y-77145382D01*
X71883898Y-77149351D01*
X71883896Y-77149352D01*
X71873364Y-77155580D01*
X71855904Y-77164134D01*
X71844519Y-77168642D01*
X71844513Y-77168644D01*
X71837268Y-77171514D01*
X71830963Y-77176094D01*
X71830955Y-77176099D01*
X71801932Y-77197185D01*
X71792174Y-77203595D01*
X71761296Y-77221857D01*
X71761290Y-77221861D01*
X71754580Y-77225830D01*
X71749067Y-77231341D01*
X71749060Y-77231348D01*
X71740410Y-77239998D01*
X71725627Y-77252624D01*
X71715726Y-77259817D01*
X71715716Y-77259826D01*
X71709413Y-77264406D01*
X71704444Y-77270411D01*
X71704441Y-77270415D01*
X71681572Y-77298059D01*
X71673711Y-77306697D01*
X70637226Y-78343181D01*
X70596998Y-78370061D01*
X70549545Y-78379500D01*
X69963141Y-78379500D01*
X69963121Y-78379500D01*
X69959992Y-78379501D01*
X69956860Y-78379820D01*
X69956858Y-78379821D01*
X69863938Y-78389312D01*
X69863928Y-78389313D01*
X69857203Y-78390001D01*
X69850781Y-78392128D01*
X69850776Y-78392130D01*
X69697521Y-78442914D01*
X69697517Y-78442915D01*
X69690666Y-78445186D01*
X69684522Y-78448975D01*
X69684519Y-78448977D01*
X69547488Y-78533497D01*
X69547480Y-78533503D01*
X69541344Y-78537288D01*
X69536242Y-78542389D01*
X69536238Y-78542393D01*
X69422393Y-78656238D01*
X69422389Y-78656242D01*
X69417288Y-78661344D01*
X69413503Y-78667480D01*
X69413497Y-78667488D01*
X69328977Y-78804519D01*
X69325186Y-78810666D01*
X69322915Y-78817517D01*
X69322914Y-78817521D01*
X69281195Y-78943421D01*
X69270001Y-78977203D01*
X69269313Y-78983933D01*
X69269312Y-78983940D01*
X69259819Y-79076859D01*
X69259818Y-79076877D01*
X69259500Y-79079991D01*
X69259500Y-79083138D01*
X69259500Y-79083139D01*
X69259500Y-79676858D01*
X69259500Y-79676877D01*
X69259501Y-79680008D01*
X69259820Y-79683140D01*
X69259821Y-79683141D01*
X69269312Y-79776061D01*
X69269313Y-79776069D01*
X69270001Y-79782797D01*
X69325186Y-79949334D01*
X69328977Y-79955480D01*
X69413497Y-80092511D01*
X69413500Y-80092515D01*
X69417288Y-80098656D01*
X69541344Y-80222712D01*
X69547488Y-80226502D01*
X69553157Y-80230984D01*
X69551921Y-80232545D01*
X69587363Y-80269573D01*
X69603083Y-80330000D01*
X69587363Y-80390427D01*
X69551921Y-80427454D01*
X69553157Y-80429016D01*
X69547486Y-80433499D01*
X69541344Y-80437288D01*
X69536242Y-80442389D01*
X69536238Y-80442393D01*
X69422393Y-80556238D01*
X69422389Y-80556242D01*
X69417288Y-80561344D01*
X69413503Y-80567480D01*
X69413497Y-80567488D01*
X69340916Y-80685163D01*
X69325186Y-80710666D01*
X69322915Y-80717517D01*
X69322914Y-80717521D01*
X69279549Y-80848389D01*
X69270001Y-80877203D01*
X69269313Y-80883933D01*
X69269312Y-80883940D01*
X69259819Y-80976859D01*
X69259818Y-80976877D01*
X69259500Y-80979991D01*
X69259500Y-80983138D01*
X69259500Y-80983139D01*
X69259500Y-81576858D01*
X69259500Y-81576877D01*
X68187330Y-81576877D01*
X68184186Y-81546958D01*
X68184186Y-81521039D01*
X68190058Y-81465166D01*
X68190141Y-81464379D01*
X68195530Y-81439027D01*
X68213137Y-81384839D01*
X68223674Y-81361172D01*
X68252165Y-81311824D01*
X68267393Y-81290864D01*
X68307721Y-81246076D01*
X68318084Y-81236182D01*
X68318009Y-81236101D01*
X68332986Y-81222257D01*
X68405267Y-81155442D01*
X68442867Y-81111419D01*
X68508888Y-81012613D01*
X68550018Y-80901124D01*
X68563533Y-80844829D01*
X68577500Y-80726824D01*
X68577500Y-76067336D01*
X68595492Y-76003006D01*
X68644247Y-75957345D01*
X68704000Y-75944783D01*
X68704000Y-75943500D01*
X76579947Y-75943500D01*
X76584000Y-75943500D01*
X76714834Y-75926275D01*
X76776834Y-75909662D01*
X76898750Y-75859163D01*
X77003442Y-75778829D01*
X77048829Y-75733442D01*
X77129163Y-75628750D01*
X77179662Y-75506834D01*
X77196275Y-75444834D01*
X77213500Y-75314000D01*
X77213500Y-71234500D01*
X77230113Y-71172500D01*
X77275500Y-71127113D01*
X77337500Y-71110500D01*
X77540548Y-71110500D01*
X77588001Y-71119939D01*
G37*
%TD.AperFunction*%
%TA.AperFunction,Conductor*%
G36*
X85536000Y-62247113D02*
G01*
X85581387Y-62292500D01*
X85598000Y-62354500D01*
X85598000Y-74942500D01*
X85581387Y-75004500D01*
X85536000Y-75049887D01*
X85474000Y-75066500D01*
X82627775Y-75066500D01*
X82616719Y-75065978D01*
X82609333Y-75064327D01*
X82601545Y-75064571D01*
X82601538Y-75064571D01*
X82542127Y-75066439D01*
X82538232Y-75066500D01*
X82510650Y-75066500D01*
X82506805Y-75066985D01*
X82506780Y-75066987D01*
X82506653Y-75067004D01*
X82495034Y-75067918D01*
X82459172Y-75069045D01*
X82459165Y-75069046D01*
X82451373Y-75069291D01*
X82443888Y-75071465D01*
X82443872Y-75071468D01*
X82432126Y-75074881D01*
X82413083Y-75078825D01*
X82400949Y-75080358D01*
X82400948Y-75080358D01*
X82393208Y-75081336D01*
X82385958Y-75084205D01*
X82385951Y-75084208D01*
X82352598Y-75097413D01*
X82341558Y-75101193D01*
X82318103Y-75108009D01*
X82261228Y-75110918D01*
X82209051Y-75088098D01*
X82172577Y-75044362D01*
X82159500Y-74988935D01*
X82159500Y-74245775D01*
X82160021Y-74234719D01*
X82161673Y-74227333D01*
X82159561Y-74160113D01*
X82159500Y-74156219D01*
X82159500Y-74132542D01*
X82159500Y-74128650D01*
X82158998Y-74124683D01*
X82158081Y-74113026D01*
X82156710Y-74069373D01*
X82151118Y-74050128D01*
X82147174Y-74031083D01*
X82144664Y-74011208D01*
X82128579Y-73970583D01*
X82124806Y-73959562D01*
X82112618Y-73917610D01*
X82102417Y-73900360D01*
X82093863Y-73882901D01*
X82086486Y-73864268D01*
X82060808Y-73828925D01*
X82054401Y-73819171D01*
X82036142Y-73788296D01*
X82036141Y-73788294D01*
X82032170Y-73781580D01*
X82018005Y-73767415D01*
X82005370Y-73752622D01*
X81993594Y-73736413D01*
X81987583Y-73731440D01*
X81987581Y-73731438D01*
X81959941Y-73708573D01*
X81951300Y-73700710D01*
X78348286Y-70097695D01*
X78340842Y-70089514D01*
X78336786Y-70083123D01*
X78287775Y-70037098D01*
X78284978Y-70034387D01*
X78268227Y-70017636D01*
X78268226Y-70017635D01*
X78265471Y-70014880D01*
X78262290Y-70012412D01*
X78253414Y-70004830D01*
X78227269Y-69980278D01*
X78227267Y-69980276D01*
X78221582Y-69974938D01*
X78214749Y-69971182D01*
X78214743Y-69971177D01*
X78204025Y-69965285D01*
X78187766Y-69954606D01*
X78178095Y-69947104D01*
X78178092Y-69947102D01*
X78171936Y-69942327D01*
X78164779Y-69939229D01*
X78164776Y-69939228D01*
X78131849Y-69924978D01*
X78121363Y-69919841D01*
X78089932Y-69902562D01*
X78089923Y-69902558D01*
X78083092Y-69898803D01*
X78075535Y-69896862D01*
X78075531Y-69896861D01*
X78063688Y-69893820D01*
X78045284Y-69887519D01*
X78034057Y-69882660D01*
X78034050Y-69882658D01*
X78026896Y-69879562D01*
X78019192Y-69878341D01*
X78019190Y-69878341D01*
X77983759Y-69872729D01*
X77972324Y-69870361D01*
X77937571Y-69861438D01*
X77937563Y-69861437D01*
X77930019Y-69859500D01*
X77922223Y-69859500D01*
X77909983Y-69859500D01*
X77890597Y-69857974D01*
X77870804Y-69854840D01*
X77863038Y-69855574D01*
X77863035Y-69855574D01*
X77827324Y-69858950D01*
X77815655Y-69859500D01*
X77337500Y-69859500D01*
X77275500Y-69842887D01*
X77230113Y-69797500D01*
X77213500Y-69735500D01*
X77213500Y-64134700D01*
X77213500Y-64130674D01*
X77196510Y-64000719D01*
X77180119Y-63939104D01*
X77130288Y-63817879D01*
X77050965Y-63713540D01*
X77022973Y-63685246D01*
X77008962Y-63671083D01*
X77008956Y-63671078D01*
X77006124Y-63668215D01*
X76986235Y-63652755D01*
X76909018Y-63592731D01*
X76909014Y-63592729D01*
X76902648Y-63587780D01*
X76861132Y-63570190D01*
X76785681Y-63538222D01*
X76785674Y-63538219D01*
X76781972Y-63536651D01*
X76778090Y-63535573D01*
X76778086Y-63535572D01*
X76724420Y-63520675D01*
X76724407Y-63520672D01*
X76720537Y-63519598D01*
X76716556Y-63519034D01*
X76716552Y-63519033D01*
X76594762Y-63501775D01*
X76594747Y-63501773D01*
X76590768Y-63501210D01*
X76586741Y-63501166D01*
X76586732Y-63501166D01*
X53220858Y-63249920D01*
X53220843Y-63249920D01*
X53216768Y-63249877D01*
X53212721Y-63250369D01*
X53212708Y-63250370D01*
X53088936Y-63265426D01*
X53088925Y-63265428D01*
X53084881Y-63265920D01*
X53080938Y-63266938D01*
X53080926Y-63266941D01*
X53026269Y-63281063D01*
X53026262Y-63281065D01*
X53022319Y-63282084D01*
X53018540Y-63283613D01*
X53018533Y-63283616D01*
X52906750Y-63328865D01*
X52906744Y-63328867D01*
X52899163Y-63331937D01*
X52892646Y-63336872D01*
X52892639Y-63336877D01*
X52796507Y-63409690D01*
X52796497Y-63409698D01*
X52793250Y-63412158D01*
X52790351Y-63415025D01*
X52790343Y-63415033D01*
X52750222Y-63454726D01*
X52750214Y-63454734D01*
X52747315Y-63457603D01*
X52744808Y-63460839D01*
X52744808Y-63460840D01*
X52670978Y-63556171D01*
X52670975Y-63556174D01*
X52665968Y-63562641D01*
X52662820Y-63570182D01*
X52662816Y-63570190D01*
X52616366Y-63681483D01*
X52616363Y-63681490D01*
X52614796Y-63685246D01*
X52613736Y-63689171D01*
X52613733Y-63689182D01*
X52599022Y-63743693D01*
X52599020Y-63743700D01*
X52597960Y-63747630D01*
X52597425Y-63751663D01*
X52597424Y-63751670D01*
X52581036Y-63875293D01*
X52581035Y-63875302D01*
X52580500Y-63879341D01*
X52580500Y-76841397D01*
X52581011Y-76845354D01*
X52581012Y-76845359D01*
X52596613Y-76966018D01*
X52596614Y-76966027D01*
X52597125Y-76969973D01*
X52613169Y-77030976D01*
X52614670Y-77034672D01*
X52658746Y-77143205D01*
X52661948Y-77151088D01*
X52666729Y-77157470D01*
X52666730Y-77157472D01*
X52737280Y-77251652D01*
X52737285Y-77251657D01*
X52739671Y-77254843D01*
X52742443Y-77257693D01*
X52742449Y-77257700D01*
X52754816Y-77270415D01*
X52783650Y-77300061D01*
X52885214Y-77380641D01*
X53003933Y-77432737D01*
X53064466Y-77450467D01*
X53192520Y-77470653D01*
X61603943Y-77704304D01*
X61664477Y-77722035D01*
X61708456Y-77767253D01*
X61724500Y-77828256D01*
X61724500Y-79480500D01*
X61707887Y-79542500D01*
X61662500Y-79587887D01*
X61600500Y-79604500D01*
X57460140Y-79604500D01*
X57460120Y-79604500D01*
X57456992Y-79604501D01*
X57453860Y-79604820D01*
X57453858Y-79604821D01*
X57360938Y-79614312D01*
X57360928Y-79614313D01*
X57354203Y-79615001D01*
X57347781Y-79617128D01*
X57347776Y-79617130D01*
X57194521Y-79667914D01*
X57194517Y-79667915D01*
X57187666Y-79670186D01*
X57181522Y-79673975D01*
X57181519Y-79673977D01*
X57044488Y-79758497D01*
X57044480Y-79758503D01*
X57038344Y-79762288D01*
X57033242Y-79767389D01*
X57033238Y-79767393D01*
X56919393Y-79881238D01*
X56919389Y-79881242D01*
X56914288Y-79886344D01*
X56910503Y-79892480D01*
X56910497Y-79892488D01*
X56825977Y-80029519D01*
X56822186Y-80035666D01*
X56819915Y-80042517D01*
X56819914Y-80042521D01*
X56784813Y-80148449D01*
X56767001Y-80202203D01*
X56766313Y-80208933D01*
X56766312Y-80208940D01*
X56756819Y-80301859D01*
X56756818Y-80301877D01*
X56756500Y-80304991D01*
X56756500Y-80634711D01*
X56756501Y-80904500D01*
X56739888Y-80966500D01*
X56694501Y-81011887D01*
X56632501Y-81028500D01*
X56004000Y-81028500D01*
X55999983Y-81029028D01*
X55999980Y-81029029D01*
X55877192Y-81045194D01*
X55877177Y-81045196D01*
X55873166Y-81045725D01*
X55869254Y-81046773D01*
X55869245Y-81046775D01*
X55815090Y-81061286D01*
X55815082Y-81061288D01*
X55811166Y-81062338D01*
X55807420Y-81063889D01*
X55807410Y-81063893D01*
X55696759Y-81109726D01*
X55696754Y-81109728D01*
X55689250Y-81112837D01*
X55682806Y-81117780D01*
X55682800Y-81117785D01*
X55587789Y-81190691D01*
X55587782Y-81190696D01*
X55584558Y-81193171D01*
X55581685Y-81196043D01*
X55581677Y-81196051D01*
X55542051Y-81235677D01*
X55542043Y-81235685D01*
X55539171Y-81238558D01*
X55536696Y-81241782D01*
X55536691Y-81241789D01*
X55463785Y-81336800D01*
X55463780Y-81336806D01*
X55458837Y-81343250D01*
X55455728Y-81350754D01*
X55455726Y-81350759D01*
X55409893Y-81461410D01*
X55409889Y-81461420D01*
X55408338Y-81465166D01*
X55407288Y-81469082D01*
X55407286Y-81469090D01*
X55392775Y-81523245D01*
X55392773Y-81523254D01*
X55391725Y-81527166D01*
X55391196Y-81531177D01*
X55391194Y-81531192D01*
X55375029Y-81653980D01*
X55374500Y-81658000D01*
X55374500Y-83188000D01*
X55375028Y-83192017D01*
X55375029Y-83192019D01*
X55391194Y-83314807D01*
X55391196Y-83314819D01*
X55391725Y-83318834D01*
X55392773Y-83322748D01*
X55392775Y-83322754D01*
X55407286Y-83376909D01*
X55408338Y-83380834D01*
X55409891Y-83384584D01*
X55409893Y-83384589D01*
X55448078Y-83476775D01*
X55458837Y-83502750D01*
X55463783Y-83509196D01*
X55463785Y-83509199D01*
X55522711Y-83585991D01*
X55539171Y-83607442D01*
X55584558Y-83652829D01*
X55608477Y-83671183D01*
X55675830Y-83722866D01*
X55689250Y-83733163D01*
X55811166Y-83783662D01*
X55873166Y-83800275D01*
X56004000Y-83817500D01*
X56834220Y-83817500D01*
X56837270Y-83817500D01*
X56935888Y-83807787D01*
X56983341Y-83798348D01*
X57078172Y-83769581D01*
X57165567Y-83722866D01*
X57205795Y-83695986D01*
X57282393Y-83633123D01*
X57343760Y-83571754D01*
X57366336Y-83553904D01*
X57390420Y-83539049D01*
X57416506Y-83526886D01*
X57416509Y-83526885D01*
X57447763Y-83516528D01*
X57474200Y-83510872D01*
X57476508Y-83510636D01*
X57489064Y-83510000D01*
X61624934Y-83510000D01*
X61637495Y-83510637D01*
X61639800Y-83510873D01*
X61666230Y-83516526D01*
X61697494Y-83526886D01*
X61723581Y-83539051D01*
X61747655Y-83553900D01*
X61747659Y-83553902D01*
X61770243Y-83571759D01*
X61831607Y-83633123D01*
X61833952Y-83635047D01*
X61833957Y-83635052D01*
X61905850Y-83694054D01*
X61905859Y-83694060D01*
X61908205Y-83695986D01*
X61948433Y-83722866D01*
X61951102Y-83724293D01*
X61951106Y-83724295D01*
X61973515Y-83736273D01*
X62035828Y-83769581D01*
X62130659Y-83798348D01*
X62178112Y-83807787D01*
X62276730Y-83817500D01*
X63879947Y-83817500D01*
X63884000Y-83817500D01*
X64014834Y-83800275D01*
X64076834Y-83783662D01*
X64198750Y-83733163D01*
X64303442Y-83652829D01*
X64348829Y-83607442D01*
X64429163Y-83502750D01*
X64479662Y-83380834D01*
X64496275Y-83318834D01*
X64513500Y-83188000D01*
X64513500Y-80893500D01*
X64530113Y-80831500D01*
X64575500Y-80786113D01*
X64637500Y-80769500D01*
X65911947Y-80769500D01*
X65916000Y-80769500D01*
X66046834Y-80752275D01*
X66108834Y-80735662D01*
X66125045Y-80728946D01*
X66184652Y-80720104D01*
X66241390Y-80740404D01*
X66281858Y-80785053D01*
X66296500Y-80843507D01*
X66296500Y-83949822D01*
X66281465Y-84009004D01*
X66240009Y-84053833D01*
X66229924Y-84060378D01*
X66215246Y-84069905D01*
X66215238Y-84069910D01*
X66212338Y-84071793D01*
X66209659Y-84073993D01*
X66209656Y-84073996D01*
X66172449Y-84104562D01*
X66172443Y-84104567D01*
X66169762Y-84106770D01*
X66167344Y-84109257D01*
X66167339Y-84109263D01*
X66095838Y-84182848D01*
X66095834Y-84182851D01*
X66090994Y-84187834D01*
X66087383Y-84193763D01*
X66087376Y-84193773D01*
X66034020Y-84281396D01*
X66032207Y-84284374D01*
X66030740Y-84287530D01*
X66030737Y-84287537D01*
X66010988Y-84330044D01*
X66010983Y-84330054D01*
X66009893Y-84332402D01*
X66008999Y-84334837D01*
X66008998Y-84334841D01*
X65989107Y-84389057D01*
X65986226Y-84388000D01*
X65986192Y-84388091D01*
X65988245Y-84388772D01*
X65975735Y-84426522D01*
X65945713Y-84475194D01*
X65822225Y-84598683D01*
X65782000Y-84625561D01*
X65734547Y-84635000D01*
X64804233Y-84635000D01*
X64791633Y-84634358D01*
X64790184Y-84634210D01*
X64763780Y-84628557D01*
X64754413Y-84625453D01*
X64733916Y-84618661D01*
X64707825Y-84606494D01*
X64684993Y-84592411D01*
X64662409Y-84574554D01*
X64604884Y-84517029D01*
X64602732Y-84514877D01*
X64600387Y-84512952D01*
X64600381Y-84512947D01*
X64528488Y-84453945D01*
X64528476Y-84453936D01*
X64526134Y-84452014D01*
X64514148Y-84444005D01*
X64488427Y-84426818D01*
X64488419Y-84426813D01*
X64485906Y-84425134D01*
X64483242Y-84423710D01*
X64483232Y-84423704D01*
X64403883Y-84381290D01*
X64403879Y-84381288D01*
X64398511Y-84378419D01*
X64348625Y-84363286D01*
X64306605Y-84350539D01*
X64306599Y-84350537D01*
X64303680Y-84349652D01*
X64300689Y-84349057D01*
X64300681Y-84349055D01*
X64259213Y-84340807D01*
X64256227Y-84340213D01*
X64249503Y-84339550D01*
X64160643Y-84330798D01*
X64160626Y-84330797D01*
X64157609Y-84330500D01*
X62238730Y-84330500D01*
X62235713Y-84330797D01*
X62235695Y-84330798D01*
X62143137Y-84339915D01*
X62143135Y-84339915D01*
X62140112Y-84340213D01*
X62137128Y-84340806D01*
X62137125Y-84340807D01*
X62095657Y-84349055D01*
X62095644Y-84349058D01*
X62092659Y-84349652D01*
X62089744Y-84350536D01*
X62089733Y-84350539D01*
X62003662Y-84376649D01*
X62003659Y-84376649D01*
X61997828Y-84378419D01*
X61992463Y-84381286D01*
X61992455Y-84381290D01*
X61913106Y-84423704D01*
X61913087Y-84423715D01*
X61910433Y-84425134D01*
X61907928Y-84426807D01*
X61907911Y-84426818D01*
X61872732Y-84450325D01*
X61872725Y-84450329D01*
X61870205Y-84452014D01*
X61867871Y-84453928D01*
X61867850Y-84453945D01*
X61795960Y-84512945D01*
X61795949Y-84512954D01*
X61793607Y-84514877D01*
X61791465Y-84517018D01*
X61791445Y-84517037D01*
X61770238Y-84538243D01*
X61747658Y-84556097D01*
X61723584Y-84570946D01*
X61697492Y-84583112D01*
X61666238Y-84593469D01*
X61639848Y-84599121D01*
X61638399Y-84599269D01*
X61637548Y-84599356D01*
X61624935Y-84599999D01*
X57489065Y-84599999D01*
X57476456Y-84599356D01*
X57474157Y-84599121D01*
X57447762Y-84593470D01*
X57416507Y-84583113D01*
X57390415Y-84570946D01*
X57366339Y-84556096D01*
X57343754Y-84538238D01*
X57322545Y-84517029D01*
X57320393Y-84514877D01*
X57318048Y-84512952D01*
X57318042Y-84512947D01*
X57246149Y-84453945D01*
X57246137Y-84453936D01*
X57243795Y-84452014D01*
X57231809Y-84444005D01*
X57206088Y-84426818D01*
X57206080Y-84426813D01*
X57203567Y-84425134D01*
X57200903Y-84423710D01*
X57200893Y-84423704D01*
X57121544Y-84381290D01*
X57121540Y-84381288D01*
X57116172Y-84378419D01*
X57066286Y-84363286D01*
X57024266Y-84350539D01*
X57024260Y-84350537D01*
X57021341Y-84349652D01*
X57018350Y-84349057D01*
X57018342Y-84349055D01*
X56976874Y-84340807D01*
X56973888Y-84340213D01*
X56967164Y-84339550D01*
X56878304Y-84330798D01*
X56878287Y-84330797D01*
X56875270Y-84330500D01*
X56004000Y-84330500D01*
X55999983Y-84331028D01*
X55999980Y-84331029D01*
X55877192Y-84347194D01*
X55877177Y-84347196D01*
X55873166Y-84347725D01*
X55869254Y-84348773D01*
X55869245Y-84348775D01*
X55815090Y-84363286D01*
X55815082Y-84363288D01*
X55811166Y-84364338D01*
X55807420Y-84365889D01*
X55807410Y-84365893D01*
X55696759Y-84411726D01*
X55696754Y-84411728D01*
X55689250Y-84414837D01*
X55682806Y-84419780D01*
X55682800Y-84419785D01*
X55587789Y-84492691D01*
X55587782Y-84492696D01*
X55584558Y-84495171D01*
X55581685Y-84498043D01*
X55581677Y-84498051D01*
X55542051Y-84537677D01*
X55542043Y-84537685D01*
X55539171Y-84540558D01*
X55536696Y-84543782D01*
X55536691Y-84543789D01*
X55463785Y-84638800D01*
X55463780Y-84638806D01*
X55458837Y-84645250D01*
X55455728Y-84652754D01*
X55455726Y-84652759D01*
X55409893Y-84763410D01*
X55409889Y-84763420D01*
X55408338Y-84767166D01*
X55407288Y-84771082D01*
X55407286Y-84771090D01*
X55392775Y-84825245D01*
X55392773Y-84825254D01*
X55391725Y-84829166D01*
X55391196Y-84833177D01*
X55391194Y-84833192D01*
X55375029Y-84955980D01*
X55374500Y-84960000D01*
X55374500Y-86236000D01*
X55375028Y-86240017D01*
X55375029Y-86240019D01*
X55391194Y-86362807D01*
X55391196Y-86362819D01*
X55391725Y-86366834D01*
X55408338Y-86428834D01*
X55409891Y-86432584D01*
X55409893Y-86432589D01*
X55454464Y-86540194D01*
X55458837Y-86550750D01*
X55461313Y-86553977D01*
X55477396Y-86613996D01*
X55461314Y-86674021D01*
X55458837Y-86677250D01*
X55455729Y-86684752D01*
X55455728Y-86684755D01*
X55409893Y-86795410D01*
X55409889Y-86795420D01*
X55408338Y-86799166D01*
X55407288Y-86803082D01*
X55407286Y-86803090D01*
X55392775Y-86857245D01*
X55392773Y-86857254D01*
X55391725Y-86861166D01*
X55391196Y-86865177D01*
X55391194Y-86865192D01*
X55384271Y-86917781D01*
X55374500Y-86992000D01*
X55374500Y-88942047D01*
X55374797Y-88945064D01*
X55374798Y-88945081D01*
X55379420Y-88992005D01*
X55384213Y-89040665D01*
X55393652Y-89088118D01*
X55394537Y-89091037D01*
X55394539Y-89091043D01*
X55417024Y-89165164D01*
X55422419Y-89182949D01*
X55425288Y-89188317D01*
X55425290Y-89188321D01*
X55467704Y-89267670D01*
X55467710Y-89267680D01*
X55469134Y-89270344D01*
X55470813Y-89272857D01*
X55470818Y-89272865D01*
X55488005Y-89298586D01*
X55496014Y-89310572D01*
X55497936Y-89312914D01*
X55497945Y-89312926D01*
X55556947Y-89384819D01*
X55556952Y-89384825D01*
X55558877Y-89387170D01*
X55594863Y-89423156D01*
X55612090Y-89439591D01*
X55612617Y-89440070D01*
X55612640Y-89440092D01*
X55615835Y-89442999D01*
X55649701Y-89494555D01*
X55651325Y-89499299D01*
X55659582Y-89521684D01*
X55675664Y-89562301D01*
X55676684Y-89564143D01*
X55678648Y-89570785D01*
X55679071Y-89570610D01*
X55690004Y-89596851D01*
X55691003Y-89598834D01*
X55691005Y-89598839D01*
X55717415Y-89651280D01*
X55722611Y-89661597D01*
X55725160Y-89665244D01*
X55725161Y-89665245D01*
X55752778Y-89704754D01*
X55764145Y-89721014D01*
X55786500Y-89748555D01*
X55788020Y-89750175D01*
X55788021Y-89750176D01*
X55834589Y-89799805D01*
X55834600Y-89799815D01*
X55836108Y-89801423D01*
X58627654Y-92378235D01*
X58657924Y-92421456D01*
X58667483Y-92473349D01*
X58630326Y-93625241D01*
X58630134Y-93633142D01*
X58630122Y-93633743D01*
X58630067Y-93637167D01*
X58630065Y-93637312D01*
X58630064Y-93637404D01*
X58629999Y-93645523D01*
X58629999Y-93645774D01*
X58629999Y-96447851D01*
X58613101Y-96510342D01*
X58612921Y-96510649D01*
X58611651Y-96512648D01*
X58610552Y-96514707D01*
X58610537Y-96514734D01*
X58595026Y-96543815D01*
X58595019Y-96543828D01*
X58593914Y-96545901D01*
X58592967Y-96548057D01*
X58592964Y-96548064D01*
X58564840Y-96612118D01*
X58562940Y-96616446D01*
X58561722Y-96621002D01*
X58561720Y-96621009D01*
X58543657Y-96688596D01*
X58543047Y-96690880D01*
X58542616Y-96693180D01*
X58542611Y-96693206D01*
X58536553Y-96725601D01*
X58536550Y-96725616D01*
X58536119Y-96727925D01*
X58535864Y-96730256D01*
X58535862Y-96730276D01*
X58528021Y-96802215D01*
X58528019Y-96802233D01*
X58527767Y-96804552D01*
X58527691Y-96806884D01*
X58527691Y-96806895D01*
X58442415Y-99450498D01*
X58424509Y-99510794D01*
X58379321Y-99554547D01*
X58318479Y-99570500D01*
X44574500Y-99570500D01*
X44512500Y-99553887D01*
X44467113Y-99508500D01*
X44450500Y-99446500D01*
X44450500Y-63504874D01*
X44450882Y-63495148D01*
X44451335Y-63489382D01*
X44454959Y-63443342D01*
X44455005Y-63442790D01*
X44467286Y-63302416D01*
X44470235Y-63284305D01*
X44489162Y-63205469D01*
X44489901Y-63202559D01*
X44518133Y-63097196D01*
X44523343Y-63081848D01*
X44556637Y-63001469D01*
X44558754Y-62996656D01*
X44602336Y-62903196D01*
X44608954Y-62890878D01*
X44655572Y-62814806D01*
X44659673Y-62808552D01*
X44717608Y-62725812D01*
X44724843Y-62716468D01*
X44783323Y-62647996D01*
X44789883Y-62640900D01*
X44860900Y-62569883D01*
X44867996Y-62563323D01*
X44936468Y-62504843D01*
X44945812Y-62497608D01*
X45028552Y-62439673D01*
X45034806Y-62435572D01*
X45110878Y-62388954D01*
X45123196Y-62382336D01*
X45216656Y-62338754D01*
X45221469Y-62336637D01*
X45301853Y-62303341D01*
X45317196Y-62298133D01*
X45422559Y-62269901D01*
X45425469Y-62269162D01*
X45504305Y-62250235D01*
X45522416Y-62247286D01*
X45662790Y-62235005D01*
X45663342Y-62234959D01*
X45709382Y-62231335D01*
X45715148Y-62230882D01*
X45724874Y-62230500D01*
X85474000Y-62230500D01*
X85536000Y-62247113D01*
G37*
%TD.AperFunction*%
%TA.AperFunction,Conductor*%
G36*
X85536000Y-76334113D02*
G01*
X85581387Y-76379500D01*
X85598000Y-76441500D01*
X85598000Y-80191547D01*
X85588561Y-80239000D01*
X85561681Y-80279228D01*
X84649435Y-81191472D01*
X84591561Y-81224155D01*
X84525124Y-81222257D01*
X84469210Y-81186323D01*
X84439884Y-81126678D01*
X84445571Y-81060461D01*
X84486591Y-80950483D01*
X84493000Y-80890873D01*
X84492999Y-80145128D01*
X84486591Y-80085517D01*
X84436296Y-79950669D01*
X84350046Y-79835454D01*
X84288289Y-79789223D01*
X84241931Y-79754519D01*
X84241930Y-79754518D01*
X84234831Y-79749204D01*
X84099983Y-79698909D01*
X84092270Y-79698079D01*
X84092267Y-79698079D01*
X84043680Y-79692855D01*
X84043669Y-79692854D01*
X84040373Y-79692500D01*
X84037051Y-79692500D01*
X83979500Y-79692500D01*
X83917500Y-79675887D01*
X83872113Y-79630500D01*
X83855500Y-79568500D01*
X83855500Y-78481771D01*
X83856020Y-78470718D01*
X83857672Y-78463332D01*
X83855561Y-78396144D01*
X83855500Y-78392250D01*
X83855500Y-78368545D01*
X83855500Y-78364650D01*
X83854998Y-78360681D01*
X83854080Y-78349024D01*
X83853896Y-78343181D01*
X83852709Y-78305373D01*
X83847120Y-78286140D01*
X83843174Y-78267083D01*
X83841641Y-78254944D01*
X83840664Y-78247208D01*
X83824582Y-78206591D01*
X83820803Y-78195551D01*
X83810795Y-78161102D01*
X83810793Y-78161099D01*
X83808618Y-78153610D01*
X83804647Y-78146896D01*
X83804645Y-78146891D01*
X83798421Y-78136368D01*
X83789858Y-78118890D01*
X83782486Y-78100268D01*
X83777902Y-78093959D01*
X83777899Y-78093953D01*
X83756817Y-78064937D01*
X83750401Y-78055170D01*
X83732143Y-78024296D01*
X83732140Y-78024292D01*
X83728170Y-78017579D01*
X83714006Y-78003415D01*
X83701368Y-77988618D01*
X83694184Y-77978729D01*
X83694178Y-77978723D01*
X83689594Y-77972413D01*
X83655946Y-77944577D01*
X83647305Y-77936714D01*
X82570818Y-76860227D01*
X82543938Y-76819999D01*
X82534499Y-76772546D01*
X82534499Y-76643453D01*
X82543938Y-76596000D01*
X82570818Y-76555772D01*
X82772772Y-76353819D01*
X82813000Y-76326939D01*
X82860453Y-76317500D01*
X85474000Y-76317500D01*
X85536000Y-76334113D01*
G37*
%TD.AperFunction*%
%TD*%
M02*
