M48
; DRILL file {KiCad (7.0.0)} date Thu Dec 28 02:06:22 2023
; FORMAT={-:-/ absolute / inch / decimal}
; #@! TF.CreationDate,2023-12-28T02:06:22-08:00
; #@! TF.GenerationSoftware,Kicad,Pcbnew,(7.0.0)
; #@! TF.FileFunction,Plated,1,2,PTH
FMAT,2
INCH
; #@! TA.AperFunction,Plated,PTH,ViaDrill
T1C0.0157
; #@! TA.AperFunction,Plated,PTH,ComponentDrill
T2C0.0315
; #@! TA.AperFunction,Plated,PTH,ComponentDrill
T3C0.0394
; #@! TA.AperFunction,Plated,PTH,ComponentDrill
T4C0.0630
; #@! TA.AperFunction,Plated,PTH,ComponentDrill
T5C0.0689
%
G90
G05
T1
X1.96Y-3.28
X1.96Y-3.45
X1.96Y-3.61
X2.08Y-3.36
X2.09Y-3.53
X2.2Y-3.29
X2.21Y-3.47
X2.21Y-3.6
T2
X2.13Y-2.7031
X2.13Y-2.9
X2.1764Y-3.9197
X2.3732Y-3.9197
T3
X2.37Y-3.08
X3.5Y-2.59
X3.501Y-2.7766
X3.6Y-2.59
X3.601Y-2.7766
X3.7Y-2.59
X3.701Y-2.7766
X3.8Y-2.59
X3.801Y-2.7766
X3.9Y-2.59
X3.901Y-2.7766
X4.0Y-2.59
X4.001Y-2.7766
T4
X2.8579Y-3.2236
X2.8579Y-3.8236
T5
X1.96Y-4.25
X2.76Y-4.25
T0
M30
