%TF.GenerationSoftware,KiCad,Pcbnew,(7.0.0)*%
%TF.CreationDate,2023-12-28T02:06:20-08:00*%
%TF.ProjectId,Blutooth_Serial,426c7574-6f6f-4746-985f-53657269616c,rev?*%
%TF.SameCoordinates,Original*%
%TF.FileFunction,Copper,L1,Top*%
%TF.FilePolarity,Positive*%
%FSLAX46Y46*%
G04 Gerber Fmt 4.6, Leading zero omitted, Abs format (unit mm)*
G04 Created by KiCad (PCBNEW (7.0.0)) date 2023-12-28 02:06:20*
%MOMM*%
%LPD*%
G01*
G04 APERTURE LIST*
G04 Aperture macros list*
%AMRoundRect*
0 Rectangle with rounded corners*
0 $1 Rounding radius*
0 $2 $3 $4 $5 $6 $7 $8 $9 X,Y pos of 4 corners*
0 Add a 4 corners polygon primitive as box body*
4,1,4,$2,$3,$4,$5,$6,$7,$8,$9,$2,$3,0*
0 Add four circle primitives for the rounded corners*
1,1,$1+$1,$2,$3*
1,1,$1+$1,$4,$5*
1,1,$1+$1,$6,$7*
1,1,$1+$1,$8,$9*
0 Add four rect primitives between the rounded corners*
20,1,$1+$1,$2,$3,$4,$5,0*
20,1,$1+$1,$4,$5,$6,$7,0*
20,1,$1+$1,$6,$7,$8,$9,0*
20,1,$1+$1,$8,$9,$2,$3,0*%
G04 Aperture macros list end*
%TA.AperFunction,ComponentPad*%
%ADD10C,1.700000*%
%TD*%
%TA.AperFunction,ComponentPad*%
%ADD11O,1.700000X1.700000*%
%TD*%
%TA.AperFunction,ComponentPad*%
%ADD12RoundRect,0.250002X-1.699998X-1.699998X1.699998X-1.699998X1.699998X1.699998X-1.699998X1.699998X0*%
%TD*%
%TA.AperFunction,SMDPad,CuDef*%
%ADD13RoundRect,0.250000X2.025000X2.375000X-2.025000X2.375000X-2.025000X-2.375000X2.025000X-2.375000X0*%
%TD*%
%TA.AperFunction,SMDPad,CuDef*%
%ADD14RoundRect,0.250002X4.449998X5.149998X-4.449998X5.149998X-4.449998X-5.149998X4.449998X-5.149998X0*%
%TD*%
%TA.AperFunction,SMDPad,CuDef*%
%ADD15RoundRect,0.250000X2.050000X0.300000X-2.050000X0.300000X-2.050000X-0.300000X2.050000X-0.300000X0*%
%TD*%
%TA.AperFunction,SMDPad,CuDef*%
%ADD16R,5.494000X3.000000*%
%TD*%
%TA.AperFunction,ComponentPad*%
%ADD17O,3.200000X3.200000*%
%TD*%
%TA.AperFunction,ComponentPad*%
%ADD18R,3.200000X3.200000*%
%TD*%
%TA.AperFunction,ComponentPad*%
%ADD19C,1.600000*%
%TD*%
%TA.AperFunction,ViaPad*%
%ADD20C,0.800000*%
%TD*%
%TA.AperFunction,Conductor*%
%ADD21C,0.250000*%
%TD*%
%TA.AperFunction,Conductor*%
%ADD22C,0.400000*%
%TD*%
G04 APERTURE END LIST*
D10*
%TO.P,REF\u002A\u002A,1*%
%TO.N,unconnected-(IC1-EN-Pad1)*%
X88900000Y-65786000D03*
D11*
%TO.P,REF\u002A\u002A,2*%
%TO.N,3.3V*%
X91439999Y-65785999D03*
%TO.P,REF\u002A\u002A,3*%
%TO.N,GND*%
X93979999Y-65785999D03*
%TO.P,REF\u002A\u002A,4*%
%TO.N,unconnected-(IC1-TXD-Pad4)*%
X96519999Y-65785999D03*
%TO.P,REF\u002A\u002A,5*%
%TO.N,unconnected-(IC1-RXD-Pad5)*%
X99059999Y-65785999D03*
%TO.P,REF\u002A\u002A,6*%
%TO.N,unconnected-(IC1-STATE-Pad6)*%
X101599999Y-65785999D03*
%TD*%
D12*
%TO.P,VIN+,1*%
%TO.N,+24V*%
X70104000Y-107950000D03*
%TD*%
%TO.P,GND,1*%
%TO.N,GND*%
X49784000Y-107950000D03*
%TD*%
D11*
%TO.P,IC1,6,STATE*%
%TO.N,unconnected-(IC1-STATE-Pad6)*%
X101624999Y-70524499D03*
%TO.P,IC1,5,RXD*%
%TO.N,unconnected-(IC1-RXD-Pad5)*%
X99084999Y-70524499D03*
%TO.P,IC1,4,TXD*%
%TO.N,unconnected-(IC1-TXD-Pad4)*%
X96544999Y-70524499D03*
%TO.P,IC1,3,GND*%
%TO.N,GND*%
X94004999Y-70524499D03*
%TO.P,IC1,2,Vcc*%
%TO.N,3.3V*%
X91464999Y-70524499D03*
D10*
%TO.P,IC1,1,EN*%
%TO.N,unconnected-(IC1-EN-Pad1)*%
X88925000Y-70524500D03*
%TD*%
D13*
%TO.P,U2,3,GND*%
%TO.N,GND*%
X55640000Y-84260000D03*
X50790000Y-89810000D03*
X55640000Y-89810000D03*
X50790000Y-84260000D03*
D14*
X53215000Y-87035000D03*
D15*
%TO.P,U2,5,~{ON}/OFF*%
%TO.N,Net-(J1-Pin_1)*%
X62365000Y-83635000D03*
%TO.P,U2,4,FB*%
%TO.N,3.3V*%
X62365000Y-85335000D03*
%TO.P,U2,3,GND*%
%TO.N,GND*%
X62365000Y-87035000D03*
%TO.P,U2,2,OUT*%
%TO.N,Net-(D2-K)*%
X62365000Y-88735000D03*
%TO.P,U2,1,VIN*%
%TO.N,+24V*%
X62365000Y-90435000D03*
%TD*%
D16*
%TO.P,L1,2,2*%
%TO.N,3.3V*%
X69056999Y-67479999D03*
%TO.P,L1,1,1*%
%TO.N,Net-(D2-K)*%
X69056999Y-77479999D03*
%TD*%
D10*
%TO.P,J1,1,Pin_1*%
%TO.N,Net-(J1-Pin_1)*%
X60198000Y-78232000D03*
%TD*%
D17*
%TO.P,D2,2,A*%
%TO.N,GND*%
X72589999Y-97119999D03*
D18*
%TO.P,D2,1,K*%
%TO.N,Net-(D2-K)*%
X72589999Y-81879999D03*
%TD*%
D19*
%TO.P,C2,2*%
%TO.N,GND*%
X54102000Y-73660000D03*
%TO.P,C2,1*%
%TO.N,3.3V*%
X54102000Y-68660000D03*
%TD*%
%TO.P,C1,2*%
%TO.N,GND*%
X55280000Y-99560000D03*
%TO.P,C1,1*%
%TO.N,+24V*%
X60280000Y-99560000D03*
%TD*%
D20*
%TO.N,GND*%
X53086000Y-89662000D03*
X52832000Y-85344000D03*
X49784000Y-87630000D03*
X49784000Y-91694000D03*
X56134000Y-91440000D03*
X56134000Y-88138000D03*
X55880000Y-83566000D03*
X49784000Y-83312000D03*
%TD*%
D21*
%TO.N,+24V*%
X70866000Y-109728000D02*
X70448000Y-109728000D01*
%TO.N,Net-(J1-Pin_1)*%
X60198000Y-81468000D02*
X62365000Y-83635000D01*
X60198000Y-78232000D02*
X60198000Y-81468000D01*
%TO.N,unconnected-(IC1-EN-Pad1)*%
X88900000Y-70499500D02*
X88925000Y-70524500D01*
X88900000Y-65786000D02*
X88900000Y-70499500D01*
%TO.N,3.3V*%
X91440000Y-70499500D02*
X91465000Y-70524500D01*
X91440000Y-65786000D02*
X91440000Y-70499500D01*
%TO.N,unconnected-(IC1-STATE-Pad6)*%
X101625000Y-65811000D02*
X101600000Y-65786000D01*
X101625000Y-70524500D02*
X101625000Y-65811000D01*
%TO.N,unconnected-(IC1-RXD-Pad5)*%
X99060000Y-70499500D02*
X99085000Y-70524500D01*
X99060000Y-65786000D02*
X99060000Y-70499500D01*
%TO.N,unconnected-(IC1-TXD-Pad4)*%
X96545000Y-65811000D02*
X96520000Y-65786000D01*
X96545000Y-70524500D02*
X96545000Y-65811000D01*
D22*
%TO.N,GND*%
X94005000Y-65811000D02*
X93980000Y-65786000D01*
X94005000Y-70524500D02*
X94005000Y-65811000D01*
X94005000Y-84303000D02*
X81188000Y-97120000D01*
X94005000Y-70524500D02*
X94005000Y-84303000D01*
X81188000Y-97120000D02*
X72590000Y-97120000D01*
D21*
%TO.N,3.3V*%
X91465000Y-71349000D02*
X91465000Y-70524500D01*
X89408000Y-73406000D02*
X91465000Y-71349000D01*
X80180000Y-67480000D02*
X86106000Y-73406000D01*
X69057000Y-67480000D02*
X80180000Y-67480000D01*
X86106000Y-73406000D02*
X89408000Y-73406000D01*
%TO.N,GND*%
X55280000Y-99560000D02*
X55280000Y-101946000D01*
X54102000Y-82722000D02*
X55640000Y-84260000D01*
X54102000Y-73660000D02*
X54102000Y-82722000D01*
%TO.N,3.3V*%
X55282000Y-67480000D02*
X54102000Y-68660000D01*
X69057000Y-67480000D02*
X55282000Y-67480000D01*
%TO.N,Net-(D2-K)*%
X72590000Y-81013000D02*
X69057000Y-77480000D01*
X72590000Y-81880000D02*
X72590000Y-81013000D01*
%TO.N,GND*%
X50980000Y-84070000D02*
X50790000Y-84260000D01*
%TO.N,3.3V*%
X69057000Y-70323000D02*
X69057000Y-67480000D01*
X63740000Y-78510000D02*
X63740000Y-75640000D01*
X67720000Y-82490000D02*
X63740000Y-78510000D01*
X63740000Y-75640000D02*
X69057000Y-70323000D01*
X63833173Y-85330000D02*
X66460000Y-85330000D01*
X63828173Y-85335000D02*
X63833173Y-85330000D01*
X67720000Y-84070000D02*
X67720000Y-82490000D01*
X62365000Y-85335000D02*
X63828173Y-85335000D01*
X66460000Y-85330000D02*
X67720000Y-84070000D01*
%TO.N,+24V*%
X62460000Y-90530000D02*
X62365000Y-90435000D01*
X60280000Y-99560000D02*
X62460000Y-97380000D01*
D22*
X62460000Y-97380000D02*
X62460000Y-90530000D01*
D21*
%TO.N,Net-(D2-K)*%
X72175000Y-81880000D02*
X72590000Y-81880000D01*
X65320000Y-88735000D02*
X72175000Y-81880000D01*
X62365000Y-88735000D02*
X65320000Y-88735000D01*
%TO.N,GND*%
X55280000Y-84620000D02*
X55280000Y-99560000D01*
X55640000Y-84260000D02*
X55280000Y-84620000D01*
X62365000Y-87035000D02*
X53215000Y-87035000D01*
%TO.N,3.3V*%
X69810000Y-66727000D02*
X69057000Y-67480000D01*
%TD*%
%TA.AperFunction,Conductor*%
%TO.N,GND*%
G36*
X49204117Y-63262320D02*
G01*
X49249259Y-63305743D01*
X49267418Y-63365690D01*
X49253960Y-63426864D01*
X49212321Y-63473656D01*
X49153124Y-63494127D01*
X48918358Y-63512381D01*
X48918347Y-63512382D01*
X48917293Y-63512464D01*
X48916269Y-63512580D01*
X48916231Y-63512584D01*
X48882679Y-63516398D01*
X48882675Y-63516398D01*
X48881571Y-63516524D01*
X48880471Y-63516688D01*
X48880462Y-63516690D01*
X48865237Y-63518971D01*
X48865208Y-63518975D01*
X48864166Y-63519132D01*
X48863127Y-63519325D01*
X48863101Y-63519330D01*
X48829910Y-63525516D01*
X48829889Y-63525520D01*
X48828855Y-63525713D01*
X48827843Y-63525938D01*
X48827819Y-63525944D01*
X48569767Y-63583597D01*
X48569743Y-63583602D01*
X48568744Y-63583826D01*
X48567737Y-63584088D01*
X48567720Y-63584093D01*
X48535063Y-63592618D01*
X48535019Y-63592630D01*
X48533986Y-63592900D01*
X48532941Y-63593212D01*
X48532919Y-63593219D01*
X48518187Y-63597629D01*
X48518143Y-63597642D01*
X48517121Y-63597949D01*
X48516066Y-63598305D01*
X48516054Y-63598310D01*
X48484122Y-63609120D01*
X48484063Y-63609140D01*
X48483071Y-63609477D01*
X48482072Y-63609855D01*
X48482045Y-63609865D01*
X48234831Y-63703486D01*
X48234780Y-63703506D01*
X48233804Y-63703876D01*
X48232791Y-63704301D01*
X48232777Y-63704307D01*
X48201679Y-63717366D01*
X48201623Y-63717390D01*
X48200665Y-63717793D01*
X48199721Y-63718229D01*
X48199670Y-63718252D01*
X48185730Y-63724698D01*
X48185673Y-63724725D01*
X48184699Y-63725176D01*
X48183719Y-63725671D01*
X48183678Y-63725692D01*
X48153625Y-63740908D01*
X48153609Y-63740915D01*
X48152644Y-63741405D01*
X48151730Y-63741909D01*
X48151689Y-63741931D01*
X47920232Y-63869650D01*
X47920202Y-63869666D01*
X47919280Y-63870176D01*
X47918368Y-63870721D01*
X47918353Y-63870731D01*
X47889414Y-63888068D01*
X47889371Y-63888094D01*
X47888471Y-63888634D01*
X47887583Y-63889209D01*
X47887541Y-63889236D01*
X47874597Y-63897630D01*
X47874569Y-63897648D01*
X47873699Y-63898213D01*
X47872872Y-63898791D01*
X47872832Y-63898819D01*
X47845146Y-63918205D01*
X47845104Y-63918235D01*
X47844245Y-63918837D01*
X47843402Y-63919472D01*
X47843354Y-63919508D01*
X47632382Y-64078707D01*
X47632359Y-64078724D01*
X47631487Y-64079383D01*
X47630650Y-64080062D01*
X47630629Y-64080079D01*
X47604440Y-64101342D01*
X47604409Y-64101367D01*
X47603595Y-64102029D01*
X47602786Y-64102734D01*
X47602767Y-64102751D01*
X47591141Y-64112896D01*
X47591091Y-64112940D01*
X47590343Y-64113594D01*
X47589607Y-64114283D01*
X47589566Y-64114321D01*
X47564894Y-64137448D01*
X47564847Y-64137492D01*
X47564118Y-64138177D01*
X47563397Y-64138902D01*
X47563373Y-64138926D01*
X47377021Y-64326493D01*
X47376993Y-64326521D01*
X47376253Y-64327267D01*
X47375531Y-64328047D01*
X47375516Y-64328063D01*
X47352574Y-64352859D01*
X47352546Y-64352889D01*
X47351833Y-64353661D01*
X47351130Y-64354476D01*
X47351107Y-64354503D01*
X47341080Y-64366145D01*
X47341054Y-64366175D01*
X47340354Y-64366989D01*
X47339704Y-64367800D01*
X47339661Y-64367852D01*
X47318588Y-64394154D01*
X47318554Y-64394197D01*
X47317901Y-64395013D01*
X47317277Y-64395850D01*
X47317247Y-64395890D01*
X47178742Y-64581938D01*
X47158735Y-64608813D01*
X47158140Y-64609675D01*
X47158105Y-64609724D01*
X47138961Y-64637445D01*
X47138310Y-64638388D01*
X47137726Y-64639300D01*
X47137701Y-64639339D01*
X47129427Y-64652281D01*
X47129404Y-64652317D01*
X47128834Y-64653210D01*
X47128276Y-64654154D01*
X47128270Y-64654165D01*
X47111131Y-64683197D01*
X47111108Y-64683237D01*
X47110567Y-64684154D01*
X47110073Y-64685061D01*
X47110043Y-64685116D01*
X46987433Y-64910769D01*
X46983311Y-64918356D01*
X46982838Y-64919305D01*
X46982807Y-64919365D01*
X46967779Y-64949534D01*
X46967764Y-64949563D01*
X46967283Y-64950531D01*
X46966829Y-64951528D01*
X46966827Y-64951534D01*
X46960452Y-64965559D01*
X46960441Y-64965583D01*
X46960003Y-64966548D01*
X46959609Y-64967502D01*
X46959588Y-64967552D01*
X46946726Y-64998750D01*
X46946310Y-64999760D01*
X46945940Y-65000756D01*
X46945930Y-65000782D01*
X46853919Y-65248587D01*
X46853899Y-65248643D01*
X46853534Y-65249627D01*
X46853195Y-65250647D01*
X46853182Y-65250687D01*
X46842580Y-65282685D01*
X46842571Y-65282713D01*
X46842229Y-65283746D01*
X46841927Y-65284776D01*
X46841917Y-65284811D01*
X46837588Y-65299618D01*
X46837572Y-65299676D01*
X46837286Y-65300655D01*
X46837025Y-65301681D01*
X46837019Y-65301704D01*
X46831776Y-65322337D01*
X46828437Y-65335475D01*
X46828205Y-65336542D01*
X46828196Y-65336584D01*
X46782972Y-65545365D01*
X46772014Y-65595954D01*
X46771819Y-65597036D01*
X46771818Y-65597044D01*
X46765861Y-65630197D01*
X46765662Y-65631305D01*
X46765507Y-65632383D01*
X46765506Y-65632393D01*
X46764602Y-65638709D01*
X46763168Y-65648719D01*
X46763056Y-65649759D01*
X46763054Y-65649780D01*
X46759457Y-65683364D01*
X46759453Y-65683406D01*
X46759339Y-65684473D01*
X46759261Y-65685556D01*
X46759260Y-65685577D01*
X46740124Y-65954263D01*
X46740119Y-65954328D01*
X46740090Y-65954749D01*
X46740065Y-65955217D01*
X46740063Y-65955250D01*
X46739159Y-65972192D01*
X46739155Y-65972266D01*
X46739132Y-65972710D01*
X46739117Y-65973107D01*
X46739113Y-65973216D01*
X46738838Y-65980965D01*
X46738836Y-65981038D01*
X46738819Y-65981519D01*
X46738809Y-65982048D01*
X46738808Y-65982109D01*
X46738510Y-65998868D01*
X46738509Y-65998941D01*
X46738500Y-65999469D01*
X46738500Y-69369572D01*
X46738509Y-69370111D01*
X46738510Y-69370155D01*
X46738811Y-69387045D01*
X46738813Y-69387133D01*
X46738822Y-69387618D01*
X46738838Y-69388085D01*
X46738841Y-69388172D01*
X46739118Y-69395922D01*
X46739121Y-69395991D01*
X46739138Y-69396464D01*
X46740104Y-69414479D01*
X46740140Y-69414991D01*
X46740143Y-69415029D01*
X46759434Y-69684765D01*
X46759437Y-69684803D01*
X46759512Y-69685846D01*
X46759622Y-69686869D01*
X46759626Y-69686914D01*
X46763251Y-69720636D01*
X46763256Y-69720681D01*
X46763369Y-69721726D01*
X46765886Y-69739232D01*
X46766077Y-69740294D01*
X46766082Y-69740321D01*
X46772093Y-69773638D01*
X46772101Y-69773680D01*
X46772293Y-69774742D01*
X46772531Y-69775837D01*
X46772535Y-69775856D01*
X46797699Y-69891536D01*
X46829181Y-70036254D01*
X46838101Y-70071203D01*
X46838404Y-70072237D01*
X46838415Y-70072275D01*
X46842768Y-70087102D01*
X46842780Y-70087142D01*
X46843080Y-70088162D01*
X46854480Y-70122417D01*
X46854853Y-70123418D01*
X46854859Y-70123434D01*
X46947636Y-70372177D01*
X46948010Y-70373179D01*
X46948411Y-70374148D01*
X46948422Y-70374175D01*
X46959726Y-70401465D01*
X46961819Y-70406517D01*
X46969168Y-70422609D01*
X46985320Y-70454876D01*
X46985862Y-70455870D01*
X46985868Y-70455880D01*
X47113056Y-70688807D01*
X47113577Y-70689761D01*
X47114110Y-70690660D01*
X47114132Y-70690698D01*
X47131396Y-70719796D01*
X47131410Y-70719819D01*
X47131978Y-70720776D01*
X47132595Y-70721736D01*
X47140935Y-70734716D01*
X47140956Y-70734747D01*
X47141536Y-70735650D01*
X47162129Y-70765311D01*
X47162782Y-70766183D01*
X47162789Y-70766193D01*
X47283754Y-70927782D01*
X47322515Y-70979560D01*
X47345168Y-71007670D01*
X47356754Y-71021040D01*
X47381332Y-71047436D01*
X47570563Y-71236667D01*
X47596959Y-71261245D01*
X47610329Y-71272831D01*
X47638439Y-71295484D01*
X47639310Y-71296136D01*
X47851790Y-71455198D01*
X47851807Y-71455210D01*
X47852683Y-71455866D01*
X47882332Y-71476451D01*
X47897216Y-71486016D01*
X47928244Y-71504425D01*
X48163123Y-71632678D01*
X48164078Y-71633156D01*
X48164097Y-71633166D01*
X48179207Y-71640729D01*
X48195376Y-71648824D01*
X48211469Y-71656174D01*
X48244820Y-71669989D01*
X48495574Y-71763516D01*
X48529829Y-71774916D01*
X48546805Y-71779900D01*
X48581754Y-71788820D01*
X48843251Y-71845705D01*
X48878758Y-71852111D01*
X48896270Y-71854629D01*
X48932151Y-71858487D01*
X49203519Y-71877896D01*
X49221536Y-71878862D01*
X49230382Y-71879178D01*
X49248428Y-71879500D01*
X62126743Y-71879500D01*
X62187688Y-71895510D01*
X62232894Y-71939407D01*
X62250689Y-71999855D01*
X62359592Y-75702631D01*
X62344000Y-75766570D01*
X62297885Y-75813525D01*
X62234237Y-75830268D01*
X62170987Y-75812083D01*
X62157963Y-75804124D01*
X62146126Y-75797437D01*
X62128721Y-75787604D01*
X62128704Y-75787594D01*
X62127768Y-75787066D01*
X62126824Y-75786575D01*
X62126810Y-75786567D01*
X61900696Y-75668867D01*
X61900688Y-75668863D01*
X61899787Y-75668394D01*
X61891196Y-75664290D01*
X61869457Y-75653905D01*
X61869429Y-75653892D01*
X61868497Y-75653447D01*
X61867546Y-75653032D01*
X61867515Y-75653018D01*
X61853920Y-75647088D01*
X61853902Y-75647080D01*
X61852938Y-75646660D01*
X61841150Y-75641991D01*
X61821721Y-75634297D01*
X61821695Y-75634287D01*
X61820745Y-75633911D01*
X61819776Y-75633565D01*
X61819757Y-75633558D01*
X61609506Y-75558518D01*
X61578680Y-75547516D01*
X61577713Y-75547208D01*
X61577687Y-75547199D01*
X61546629Y-75537301D01*
X61546628Y-75537300D01*
X61545650Y-75536989D01*
X61544676Y-75536715D01*
X61544656Y-75536709D01*
X61530350Y-75532685D01*
X61530351Y-75532685D01*
X61529305Y-75532391D01*
X61528246Y-75532132D01*
X61528235Y-75532129D01*
X61496719Y-75524418D01*
X61496699Y-75524413D01*
X61495659Y-75524159D01*
X61494633Y-75523944D01*
X61494598Y-75523937D01*
X61245118Y-75471887D01*
X61245121Y-75471887D01*
X61244059Y-75471666D01*
X61243022Y-75471486D01*
X61242983Y-75471479D01*
X61211012Y-75465944D01*
X61210968Y-75465937D01*
X61209939Y-75465759D01*
X61208916Y-75465617D01*
X61208866Y-75465610D01*
X61194170Y-75463582D01*
X61194153Y-75463579D01*
X61193132Y-75463439D01*
X61192147Y-75463337D01*
X61192103Y-75463332D01*
X61159697Y-75459988D01*
X61158641Y-75459879D01*
X61157602Y-75459807D01*
X61157583Y-75459806D01*
X60898440Y-75442010D01*
X60898384Y-75442006D01*
X60897967Y-75441978D01*
X60897546Y-75441956D01*
X60897457Y-75441951D01*
X60881100Y-75441110D01*
X60881037Y-75441107D01*
X60880584Y-75441084D01*
X60880135Y-75441068D01*
X60880096Y-75441067D01*
X60872632Y-75440812D01*
X60872573Y-75440810D01*
X60872090Y-75440794D01*
X60871595Y-75440785D01*
X60871534Y-75440784D01*
X60855426Y-75440509D01*
X60855322Y-75440508D01*
X60854841Y-75440500D01*
X59662428Y-75440500D01*
X59661890Y-75440509D01*
X59661844Y-75440510D01*
X59644960Y-75440811D01*
X59644875Y-75440813D01*
X59644384Y-75440822D01*
X59643931Y-75440838D01*
X59643824Y-75440841D01*
X59636083Y-75441118D01*
X59636026Y-75441120D01*
X59635537Y-75441138D01*
X59635065Y-75441163D01*
X59634982Y-75441167D01*
X59618050Y-75442075D01*
X59617979Y-75442079D01*
X59617521Y-75442104D01*
X59617057Y-75442137D01*
X59616996Y-75442141D01*
X59347270Y-75461431D01*
X59347232Y-75461434D01*
X59346147Y-75461512D01*
X59345035Y-75461631D01*
X59345019Y-75461633D01*
X59311386Y-75465249D01*
X59311346Y-75465253D01*
X59310258Y-75465371D01*
X59309194Y-75465523D01*
X59309154Y-75465529D01*
X59293836Y-75467732D01*
X59293813Y-75467735D01*
X59292761Y-75467887D01*
X59291698Y-75468078D01*
X59291678Y-75468082D01*
X59258374Y-75474090D01*
X59258338Y-75474097D01*
X59257258Y-75474292D01*
X59256151Y-75474532D01*
X59256145Y-75474534D01*
X58996840Y-75530942D01*
X58996802Y-75530950D01*
X58995740Y-75531182D01*
X58994667Y-75531455D01*
X58994641Y-75531462D01*
X58961873Y-75539825D01*
X58961830Y-75539836D01*
X58960783Y-75540104D01*
X58959771Y-75540400D01*
X58959724Y-75540414D01*
X58944902Y-75544766D01*
X58944859Y-75544779D01*
X58943832Y-75545081D01*
X58942818Y-75545418D01*
X58942778Y-75545431D01*
X58910596Y-75556142D01*
X58910553Y-75556156D01*
X58909586Y-75556479D01*
X58908620Y-75556839D01*
X58908584Y-75556852D01*
X58659819Y-75649637D01*
X58659793Y-75649647D01*
X58658815Y-75650012D01*
X58657850Y-75650411D01*
X58657801Y-75650431D01*
X58626514Y-75663391D01*
X58626463Y-75663412D01*
X58625464Y-75663827D01*
X58624475Y-75664278D01*
X58624449Y-75664290D01*
X58610364Y-75670723D01*
X58610340Y-75670734D01*
X58609382Y-75671172D01*
X58608464Y-75671631D01*
X58608417Y-75671654D01*
X58578119Y-75686821D01*
X58578078Y-75686842D01*
X58577128Y-75687318D01*
X58576200Y-75687824D01*
X58576144Y-75687854D01*
X58343195Y-75815054D01*
X58343168Y-75815069D01*
X58342231Y-75815581D01*
X58341332Y-75816114D01*
X58341287Y-75816140D01*
X58312180Y-75833410D01*
X58312143Y-75833432D01*
X58311209Y-75833987D01*
X58310278Y-75834584D01*
X58310259Y-75834597D01*
X58297293Y-75842929D01*
X58297264Y-75842947D01*
X58296348Y-75843537D01*
X58295456Y-75844155D01*
X58295419Y-75844181D01*
X58267602Y-75863494D01*
X58267579Y-75863510D01*
X58266694Y-75864125D01*
X58265845Y-75864760D01*
X58265818Y-75864780D01*
X58053307Y-76023865D01*
X58053289Y-76023878D01*
X58052430Y-76024522D01*
X58051606Y-76025185D01*
X58051570Y-76025214D01*
X58025167Y-76046492D01*
X58025139Y-76046515D01*
X58024323Y-76047173D01*
X58023536Y-76047854D01*
X58023518Y-76047870D01*
X58011790Y-76058032D01*
X58011741Y-76058075D01*
X58010969Y-76058745D01*
X58010195Y-76059464D01*
X58010159Y-76059498D01*
X57985386Y-76082565D01*
X57984570Y-76083325D01*
X57983802Y-76084092D01*
X57983774Y-76084120D01*
X57796120Y-76271774D01*
X57796092Y-76271802D01*
X57795325Y-76272570D01*
X57794571Y-76273379D01*
X57794565Y-76273386D01*
X57771498Y-76298159D01*
X57771464Y-76298195D01*
X57770745Y-76298969D01*
X57770075Y-76299741D01*
X57770032Y-76299790D01*
X57759870Y-76311518D01*
X57759854Y-76311536D01*
X57759173Y-76312323D01*
X57758515Y-76313139D01*
X57758492Y-76313167D01*
X57737214Y-76339570D01*
X57737185Y-76339606D01*
X57736522Y-76340430D01*
X57735878Y-76341289D01*
X57735865Y-76341307D01*
X57576780Y-76553818D01*
X57576760Y-76553845D01*
X57576125Y-76554694D01*
X57575510Y-76555579D01*
X57575494Y-76555602D01*
X57556181Y-76583419D01*
X57556155Y-76583456D01*
X57555537Y-76584348D01*
X57554947Y-76585264D01*
X57554929Y-76585293D01*
X57546597Y-76598259D01*
X57545987Y-76599209D01*
X57545432Y-76600143D01*
X57545410Y-76600180D01*
X57528140Y-76629287D01*
X57528114Y-76629332D01*
X57527581Y-76630231D01*
X57527069Y-76631168D01*
X57527054Y-76631195D01*
X57399854Y-76864144D01*
X57399824Y-76864200D01*
X57399318Y-76865128D01*
X57398842Y-76866078D01*
X57398821Y-76866119D01*
X57383654Y-76896417D01*
X57383631Y-76896464D01*
X57383172Y-76897382D01*
X57382734Y-76898340D01*
X57382723Y-76898364D01*
X57376290Y-76912449D01*
X57376278Y-76912475D01*
X57375827Y-76913464D01*
X57375412Y-76914463D01*
X57375391Y-76914514D01*
X57362431Y-76945801D01*
X57362411Y-76945850D01*
X57362012Y-76946815D01*
X57361647Y-76947793D01*
X57361637Y-76947819D01*
X57268852Y-77196584D01*
X57268839Y-77196620D01*
X57268479Y-77197586D01*
X57268156Y-77198553D01*
X57268142Y-77198596D01*
X57257431Y-77230778D01*
X57257418Y-77230818D01*
X57257081Y-77231832D01*
X57256779Y-77232859D01*
X57256766Y-77232902D01*
X57252414Y-77247724D01*
X57252400Y-77247771D01*
X57252104Y-77248783D01*
X57251836Y-77249830D01*
X57251825Y-77249873D01*
X57243462Y-77282641D01*
X57243182Y-77283740D01*
X57242950Y-77284802D01*
X57242942Y-77284840D01*
X57186534Y-77544145D01*
X57186292Y-77545258D01*
X57186097Y-77546338D01*
X57186090Y-77546374D01*
X57180082Y-77579678D01*
X57179887Y-77580761D01*
X57179735Y-77581813D01*
X57179732Y-77581836D01*
X57177529Y-77597154D01*
X57177523Y-77597194D01*
X57177371Y-77598258D01*
X57177253Y-77599346D01*
X57177249Y-77599386D01*
X57173633Y-77633019D01*
X57173512Y-77634147D01*
X57173434Y-77635232D01*
X57173431Y-77635270D01*
X57154143Y-77904970D01*
X57154104Y-77905522D01*
X57153138Y-77923536D01*
X57153121Y-77924003D01*
X57153118Y-77924077D01*
X57152841Y-77931827D01*
X57152838Y-77931917D01*
X57152822Y-77932382D01*
X57152813Y-77932863D01*
X57152811Y-77932954D01*
X57152510Y-77949844D01*
X57152500Y-77950428D01*
X57152500Y-79620874D01*
X57152532Y-79621872D01*
X57152533Y-79621891D01*
X57153550Y-79652954D01*
X57153551Y-79652994D01*
X57153583Y-79653941D01*
X57154644Y-79670126D01*
X57157886Y-79703040D01*
X57176331Y-79843144D01*
X57189230Y-79907993D01*
X57189744Y-79909913D01*
X57189751Y-79909941D01*
X57197085Y-79937311D01*
X57197089Y-79937325D01*
X57197608Y-79939261D01*
X57218863Y-80001878D01*
X57269806Y-80124865D01*
X57270697Y-80126671D01*
X57270703Y-80126685D01*
X57298150Y-80182342D01*
X57298156Y-80182354D01*
X57299052Y-80184170D01*
X57315237Y-80212203D01*
X57351970Y-80267178D01*
X57433008Y-80372790D01*
X57476608Y-80422505D01*
X57499494Y-80445391D01*
X57549209Y-80488991D01*
X57654821Y-80570029D01*
X57709796Y-80606762D01*
X57737829Y-80622947D01*
X57797134Y-80652193D01*
X57866961Y-80681116D01*
X57918242Y-80702358D01*
X57918250Y-80702361D01*
X57920121Y-80703136D01*
X57982734Y-80724390D01*
X58014001Y-80732768D01*
X58078852Y-80745668D01*
X58227017Y-80765175D01*
X58293000Y-80769500D01*
X58298500Y-80769500D01*
X58360500Y-80786113D01*
X58405887Y-80831500D01*
X58422500Y-80893500D01*
X58422500Y-82577572D01*
X58422509Y-82578111D01*
X58422510Y-82578155D01*
X58422811Y-82595045D01*
X58422813Y-82595133D01*
X58422822Y-82595618D01*
X58422838Y-82596085D01*
X58422841Y-82596172D01*
X58423118Y-82603922D01*
X58423121Y-82603991D01*
X58423138Y-82604464D01*
X58424104Y-82622479D01*
X58424140Y-82622991D01*
X58424143Y-82623029D01*
X58443434Y-82892765D01*
X58443437Y-82892803D01*
X58443512Y-82893846D01*
X58443622Y-82894869D01*
X58443626Y-82894914D01*
X58447251Y-82928636D01*
X58447256Y-82928681D01*
X58447369Y-82929726D01*
X58449886Y-82947232D01*
X58450077Y-82948294D01*
X58450082Y-82948321D01*
X58456093Y-82981638D01*
X58456101Y-82981680D01*
X58456293Y-82982742D01*
X58513181Y-83244254D01*
X58522101Y-83279203D01*
X58522404Y-83280237D01*
X58522415Y-83280275D01*
X58526768Y-83295102D01*
X58526780Y-83295142D01*
X58527080Y-83296162D01*
X58538480Y-83330417D01*
X58632010Y-83581179D01*
X58632411Y-83582148D01*
X58632422Y-83582175D01*
X58643726Y-83609465D01*
X58645819Y-83614517D01*
X58653168Y-83630609D01*
X58669320Y-83662876D01*
X58797577Y-83897761D01*
X58798110Y-83898660D01*
X58798132Y-83898698D01*
X58815396Y-83927796D01*
X58815410Y-83927819D01*
X58815978Y-83928776D01*
X58816595Y-83929736D01*
X58824935Y-83942716D01*
X58824956Y-83942747D01*
X58825536Y-83943650D01*
X58846129Y-83973311D01*
X59006515Y-84187560D01*
X59029168Y-84215670D01*
X59040754Y-84229040D01*
X59065332Y-84255436D01*
X59254563Y-84444667D01*
X59280974Y-84469257D01*
X59294345Y-84480843D01*
X59322441Y-84503484D01*
X59342539Y-84518529D01*
X59344131Y-84519721D01*
X59382438Y-84567093D01*
X59393561Y-84626992D01*
X59374815Y-84684959D01*
X59344870Y-84732617D01*
X59344040Y-84734118D01*
X59344031Y-84734134D01*
X59318278Y-84780730D01*
X59318260Y-84780763D01*
X59317443Y-84782243D01*
X59316705Y-84783775D01*
X59316696Y-84783793D01*
X59306153Y-84805687D01*
X59306143Y-84805708D01*
X59305403Y-84807246D01*
X59304750Y-84808821D01*
X59304735Y-84808856D01*
X59284382Y-84857996D01*
X59284372Y-84858021D01*
X59283716Y-84859606D01*
X59236584Y-84994302D01*
X59236108Y-84995951D01*
X59236100Y-84995979D01*
X59221371Y-85047105D01*
X59221366Y-85047122D01*
X59220893Y-85048766D01*
X59220516Y-85050413D01*
X59220507Y-85050452D01*
X59215104Y-85074124D01*
X59215098Y-85074151D01*
X59214717Y-85075823D01*
X59214428Y-85077518D01*
X59214425Y-85077538D01*
X59205508Y-85130013D01*
X59205505Y-85130032D01*
X59205219Y-85131717D01*
X59189242Y-85273518D01*
X59189145Y-85275242D01*
X59189143Y-85275268D01*
X59186160Y-85328389D01*
X59186159Y-85328423D01*
X59186064Y-85330116D01*
X59186064Y-85357881D01*
X59186159Y-85359574D01*
X59186160Y-85359607D01*
X59189143Y-85412728D01*
X59189145Y-85412751D01*
X59189242Y-85414479D01*
X59189438Y-85416222D01*
X59189439Y-85416229D01*
X59205020Y-85554522D01*
X59205024Y-85554554D01*
X59205219Y-85556280D01*
X59214713Y-85612158D01*
X59215096Y-85613838D01*
X59215100Y-85613856D01*
X59220503Y-85637529D01*
X59220889Y-85639219D01*
X59221362Y-85640860D01*
X59221369Y-85640888D01*
X59236101Y-85692024D01*
X59236107Y-85692042D01*
X59236585Y-85693702D01*
X59283716Y-85828392D01*
X59305404Y-85880752D01*
X59317449Y-85905765D01*
X59318274Y-85907259D01*
X59318285Y-85907279D01*
X59344035Y-85953871D01*
X59344873Y-85955387D01*
X59420792Y-86076212D01*
X59421789Y-86077618D01*
X59421799Y-86077632D01*
X59452607Y-86121050D01*
X59453602Y-86122452D01*
X59470915Y-86144161D01*
X59508683Y-86186422D01*
X59609579Y-86287318D01*
X59651849Y-86325093D01*
X59673559Y-86342406D01*
X59719792Y-86375210D01*
X59780015Y-86413050D01*
X59879995Y-86461456D01*
X59931050Y-86479562D01*
X60039202Y-86504964D01*
X60150291Y-86506128D01*
X60199368Y-86501222D01*
X60199375Y-86501300D01*
X60202264Y-86500849D01*
X60202273Y-86500932D01*
X60204184Y-86500741D01*
X60214777Y-86498485D01*
X60227981Y-86496411D01*
X60266373Y-86492489D01*
X60284461Y-86490642D01*
X60297061Y-86490000D01*
X64432934Y-86490000D01*
X64445495Y-86490637D01*
X64447800Y-86490873D01*
X64474228Y-86496526D01*
X64506468Y-86507209D01*
X64525115Y-86515133D01*
X64525872Y-86515530D01*
X64529519Y-86517780D01*
X64656976Y-86573861D01*
X64722073Y-86592322D01*
X64847441Y-86609755D01*
X64902280Y-86631558D01*
X64940829Y-86676242D01*
X64954358Y-86733684D01*
X64939802Y-86790875D01*
X64939127Y-86792140D01*
X64938348Y-86793517D01*
X64937657Y-86794897D01*
X64937635Y-86794940D01*
X64915779Y-86838647D01*
X64915769Y-86838666D01*
X64915069Y-86840068D01*
X64914450Y-86841481D01*
X64914432Y-86841522D01*
X64905489Y-86861977D01*
X64905480Y-86861997D01*
X64904853Y-86863433D01*
X64904299Y-86864901D01*
X64904290Y-86864924D01*
X64887034Y-86910679D01*
X64886474Y-86912165D01*
X64885996Y-86913661D01*
X64885990Y-86913679D01*
X64824574Y-87105997D01*
X64824088Y-87107520D01*
X64810825Y-87157867D01*
X64810509Y-87159377D01*
X64810503Y-87159404D01*
X64805926Y-87181300D01*
X64805921Y-87181324D01*
X64805606Y-87182834D01*
X64805365Y-87184374D01*
X64805363Y-87184391D01*
X64797839Y-87232683D01*
X64797835Y-87232710D01*
X64797592Y-87234273D01*
X64797429Y-87235843D01*
X64797425Y-87235879D01*
X64775346Y-87449406D01*
X64775344Y-87449427D01*
X64775181Y-87451007D01*
X64775098Y-87452611D01*
X64775098Y-87452615D01*
X64772583Y-87501376D01*
X64772582Y-87501404D01*
X64772500Y-87503000D01*
X64772500Y-87504616D01*
X64772500Y-87508500D01*
X64755887Y-87570500D01*
X64710500Y-87615887D01*
X64648500Y-87632500D01*
X60333126Y-87632500D01*
X60332128Y-87632532D01*
X60332108Y-87632533D01*
X60301047Y-87633550D01*
X60301005Y-87633552D01*
X60300061Y-87633583D01*
X60299070Y-87633647D01*
X60299049Y-87633649D01*
X60284924Y-87634575D01*
X60284909Y-87634576D01*
X60283875Y-87634644D01*
X60282862Y-87634743D01*
X60282847Y-87634745D01*
X60251951Y-87637788D01*
X60251927Y-87637790D01*
X60250960Y-87637886D01*
X60249992Y-87638013D01*
X60249961Y-87638017D01*
X60112871Y-87656065D01*
X60112853Y-87656067D01*
X60110855Y-87656331D01*
X60108883Y-87656723D01*
X60108866Y-87656726D01*
X60048002Y-87668832D01*
X60047996Y-87668833D01*
X60046012Y-87669228D01*
X60044065Y-87669749D01*
X60044042Y-87669755D01*
X60016714Y-87677077D01*
X60016693Y-87677083D01*
X60014746Y-87677605D01*
X60012826Y-87678256D01*
X60012825Y-87678257D01*
X59954042Y-87698210D01*
X59954025Y-87698216D01*
X59952123Y-87698862D01*
X59950265Y-87699631D01*
X59950248Y-87699638D01*
X59831019Y-87749024D01*
X59830998Y-87749033D01*
X59829133Y-87749806D01*
X59827333Y-87750693D01*
X59827299Y-87750709D01*
X59771645Y-87778154D01*
X59771621Y-87778166D01*
X59769830Y-87779050D01*
X59768091Y-87780053D01*
X59768076Y-87780062D01*
X59743561Y-87794216D01*
X59743554Y-87794220D01*
X59741800Y-87795233D01*
X59740136Y-87796344D01*
X59740110Y-87796361D01*
X59688516Y-87830836D01*
X59688500Y-87830847D01*
X59686820Y-87831970D01*
X59685226Y-87833192D01*
X59685208Y-87833206D01*
X59582813Y-87911777D01*
X59582801Y-87911786D01*
X59581203Y-87913013D01*
X59579692Y-87914337D01*
X59579669Y-87914357D01*
X59533022Y-87955267D01*
X59533014Y-87955274D01*
X59531490Y-87956611D01*
X59530061Y-87958039D01*
X59530046Y-87958054D01*
X59510054Y-87978046D01*
X59510039Y-87978061D01*
X59508611Y-87979490D01*
X59465011Y-88029206D01*
X59463777Y-88030813D01*
X59463773Y-88030819D01*
X59385200Y-88133218D01*
X59385188Y-88133233D01*
X59383970Y-88134822D01*
X59382863Y-88136478D01*
X59382847Y-88136501D01*
X59348365Y-88188106D01*
X59348348Y-88188132D01*
X59347237Y-88189796D01*
X59346223Y-88191550D01*
X59346220Y-88191557D01*
X59332070Y-88216064D01*
X59332057Y-88216088D01*
X59331052Y-88217829D01*
X59330163Y-88219631D01*
X59330150Y-88219656D01*
X59302703Y-88275313D01*
X59302691Y-88275338D01*
X59301806Y-88277134D01*
X59301036Y-88278990D01*
X59301030Y-88279006D01*
X59251638Y-88398248D01*
X59251629Y-88398269D01*
X59250863Y-88400121D01*
X59250219Y-88402017D01*
X59250210Y-88402042D01*
X59230263Y-88460803D01*
X59230253Y-88460833D01*
X59229611Y-88462727D01*
X59229089Y-88464673D01*
X59229085Y-88464688D01*
X59221759Y-88492025D01*
X59221751Y-88492056D01*
X59221233Y-88493992D01*
X59220838Y-88495976D01*
X59220836Y-88495986D01*
X59208725Y-88556864D01*
X59208720Y-88556889D01*
X59208330Y-88558854D01*
X59208068Y-88560837D01*
X59208064Y-88560867D01*
X59191218Y-88688829D01*
X59191214Y-88688859D01*
X59190954Y-88690842D01*
X59190823Y-88692828D01*
X59190821Y-88692857D01*
X59186762Y-88754801D01*
X59186630Y-88756821D01*
X59186630Y-88789179D01*
X59186761Y-88791183D01*
X59186762Y-88791202D01*
X59190821Y-88853129D01*
X59190823Y-88853157D01*
X59190955Y-88855159D01*
X59191216Y-88857144D01*
X59191219Y-88857171D01*
X59206811Y-88975597D01*
X59208331Y-88987144D01*
X59208725Y-88989129D01*
X59208727Y-88989136D01*
X59220834Y-89050006D01*
X59220839Y-89050028D01*
X59221231Y-89051998D01*
X59221747Y-89053926D01*
X59221753Y-89053949D01*
X59226238Y-89070685D01*
X59229609Y-89083265D01*
X59250863Y-89145878D01*
X59251631Y-89147732D01*
X59251640Y-89147756D01*
X59287944Y-89235399D01*
X59301806Y-89268865D01*
X59302697Y-89270671D01*
X59302703Y-89270685D01*
X59330150Y-89326342D01*
X59330156Y-89326354D01*
X59331052Y-89328170D01*
X59347237Y-89356203D01*
X59383970Y-89411178D01*
X59422622Y-89461551D01*
X59464847Y-89516581D01*
X59488586Y-89570534D01*
X59484731Y-89629353D01*
X59454151Y-89679747D01*
X59383350Y-89750549D01*
X59382441Y-89751540D01*
X59382419Y-89751564D01*
X59354471Y-89782065D01*
X59354456Y-89782081D01*
X59353548Y-89783073D01*
X59352697Y-89784086D01*
X59352677Y-89784110D01*
X59340527Y-89798590D01*
X59340496Y-89798628D01*
X59339660Y-89799625D01*
X59338842Y-89800690D01*
X59338834Y-89800701D01*
X59321846Y-89822841D01*
X59312823Y-89834600D01*
X59312071Y-89835672D01*
X59312046Y-89835708D01*
X59199065Y-89997062D01*
X59199045Y-89997091D01*
X59198288Y-89998173D01*
X59197576Y-89999289D01*
X59197561Y-89999313D01*
X59175316Y-90034230D01*
X59175299Y-90034257D01*
X59174595Y-90035363D01*
X59173950Y-90036479D01*
X59173927Y-90036518D01*
X59164456Y-90052922D01*
X59164434Y-90052961D01*
X59163788Y-90054081D01*
X59163179Y-90055249D01*
X59163169Y-90055269D01*
X59144033Y-90092027D01*
X59144013Y-90092067D01*
X59143424Y-90093199D01*
X59142872Y-90094382D01*
X59142863Y-90094401D01*
X59059613Y-90272928D01*
X59059591Y-90272976D01*
X59059037Y-90274166D01*
X59058518Y-90275416D01*
X59058510Y-90275437D01*
X59042702Y-90313600D01*
X59042170Y-90314885D01*
X59041719Y-90316122D01*
X59041701Y-90316170D01*
X59035237Y-90333927D01*
X59035221Y-90333972D01*
X59034778Y-90335191D01*
X59034377Y-90336459D01*
X59034369Y-90336486D01*
X59021914Y-90375981D01*
X59021901Y-90376024D01*
X59021507Y-90377275D01*
X59021161Y-90378565D01*
X59021157Y-90378580D01*
X58970170Y-90568865D01*
X58970158Y-90568910D01*
X58969823Y-90570164D01*
X58969538Y-90571447D01*
X58969531Y-90571478D01*
X58960572Y-90611896D01*
X58960278Y-90613221D01*
X58956527Y-90634495D01*
X58956353Y-90635816D01*
X58956347Y-90635858D01*
X58950946Y-90676881D01*
X58950942Y-90676909D01*
X58950771Y-90678215D01*
X58950655Y-90679529D01*
X58950653Y-90679557D01*
X58932958Y-90881820D01*
X58932952Y-90881895D01*
X58932895Y-90882550D01*
X58931453Y-90904548D01*
X58931427Y-90905135D01*
X58931423Y-90905214D01*
X58931009Y-90914705D01*
X58930981Y-90915355D01*
X58930500Y-90937412D01*
X58930500Y-90938089D01*
X58930500Y-90938090D01*
X58930500Y-96906769D01*
X58921631Y-96952821D01*
X58043948Y-99147026D01*
X58043924Y-99147086D01*
X58043676Y-99147708D01*
X58043457Y-99148295D01*
X58043424Y-99148381D01*
X58035535Y-99169552D01*
X58035517Y-99169601D01*
X58035286Y-99170222D01*
X58035059Y-99170878D01*
X58035048Y-99170909D01*
X58031688Y-99180622D01*
X58031659Y-99180708D01*
X58031445Y-99181328D01*
X58031239Y-99181972D01*
X58031218Y-99182036D01*
X58024362Y-99203498D01*
X58024346Y-99203549D01*
X58024125Y-99204242D01*
X58023920Y-99204938D01*
X58023911Y-99204970D01*
X58015501Y-99233636D01*
X57961187Y-99418762D01*
X57960839Y-99420194D01*
X57960830Y-99420231D01*
X57950210Y-99464046D01*
X57950203Y-99464077D01*
X57949862Y-99465485D01*
X57949590Y-99466896D01*
X57949584Y-99466925D01*
X57945688Y-99487156D01*
X57945681Y-99487191D01*
X57945411Y-99488599D01*
X57945208Y-99490007D01*
X57945201Y-99490053D01*
X57938786Y-99534712D01*
X57938576Y-99536175D01*
X57938436Y-99537636D01*
X57938434Y-99537658D01*
X57917419Y-99757923D01*
X57917346Y-99758690D01*
X57917297Y-99759366D01*
X57917293Y-99759422D01*
X57915686Y-99781914D01*
X57915683Y-99781956D01*
X57915634Y-99782649D01*
X57915073Y-99794426D01*
X57915058Y-99795055D01*
X57915056Y-99795111D01*
X57914516Y-99817774D01*
X57914515Y-99817835D01*
X57914500Y-99818478D01*
X57914500Y-103607879D01*
X57914505Y-103610084D01*
X57914510Y-103611230D01*
X57914527Y-103613705D01*
X57914730Y-103635630D01*
X57914796Y-103640393D01*
X57914836Y-103642534D01*
X57914942Y-103647112D01*
X57915547Y-103668915D01*
X57915612Y-103671088D01*
X57915647Y-103672180D01*
X57915734Y-103674695D01*
X57947220Y-104524823D01*
X58123329Y-109279778D01*
X58123332Y-109279858D01*
X58123354Y-109280428D01*
X58123392Y-109281088D01*
X58123393Y-109281098D01*
X58124563Y-109301159D01*
X58124566Y-109301209D01*
X58124606Y-109301887D01*
X58125445Y-109312412D01*
X58127619Y-109333879D01*
X58127694Y-109334491D01*
X58127703Y-109334570D01*
X58151881Y-109531385D01*
X58151884Y-109531411D01*
X58152042Y-109532691D01*
X58152252Y-109533959D01*
X58152258Y-109533994D01*
X58158890Y-109573860D01*
X58158894Y-109573886D01*
X58159109Y-109575173D01*
X58159375Y-109576439D01*
X58159383Y-109576479D01*
X58163183Y-109594532D01*
X58163190Y-109594562D01*
X58163455Y-109595821D01*
X58163776Y-109597079D01*
X58163777Y-109597082D01*
X58173782Y-109636259D01*
X58173789Y-109636285D01*
X58174109Y-109637537D01*
X58174484Y-109638783D01*
X58174490Y-109638803D01*
X58229980Y-109822971D01*
X58229991Y-109823006D01*
X58230362Y-109824236D01*
X58244532Y-109864906D01*
X58245008Y-109866105D01*
X58245018Y-109866132D01*
X58249158Y-109876561D01*
X58252319Y-109884523D01*
X58269892Y-109923825D01*
X58270462Y-109924967D01*
X58270474Y-109924992D01*
X58356219Y-110096729D01*
X58356991Y-110098275D01*
X58357613Y-110099398D01*
X58357626Y-110099423D01*
X58377209Y-110134789D01*
X58377854Y-110135953D01*
X58388855Y-110153965D01*
X58389575Y-110155039D01*
X58389587Y-110155057D01*
X58412104Y-110188622D01*
X58412838Y-110189716D01*
X58528264Y-110346873D01*
X58529088Y-110347901D01*
X58529091Y-110347904D01*
X58546762Y-110369932D01*
X58555206Y-110380457D01*
X58556053Y-110381425D01*
X58568239Y-110395357D01*
X58568253Y-110395373D01*
X58569103Y-110396344D01*
X58598814Y-110427523D01*
X58599777Y-110428451D01*
X58599781Y-110428455D01*
X58738275Y-110561915D01*
X58738291Y-110561930D01*
X58739219Y-110562824D01*
X58740198Y-110563690D01*
X58770466Y-110590469D01*
X58770479Y-110590480D01*
X58771459Y-110591347D01*
X58787845Y-110604644D01*
X58822421Y-110630338D01*
X58983745Y-110739870D01*
X59020354Y-110762511D01*
X59038750Y-110772832D01*
X59077177Y-110792288D01*
X59185135Y-110841284D01*
X59253569Y-110872344D01*
X59253579Y-110872348D01*
X59254744Y-110872877D01*
X59294677Y-110888986D01*
X59314565Y-110896040D01*
X59355730Y-110908694D01*
X59544388Y-110957998D01*
X59586479Y-110967102D01*
X59607278Y-110970681D01*
X59649978Y-110976169D01*
X59849542Y-110993216D01*
X59871030Y-110994591D01*
X59881583Y-110995041D01*
X59903119Y-110995500D01*
X72383937Y-110995500D01*
X72384588Y-110995500D01*
X72406647Y-110995018D01*
X72417453Y-110994546D01*
X72439452Y-110993104D01*
X72643783Y-110975227D01*
X72687497Y-110969473D01*
X72708783Y-110965720D01*
X72751844Y-110956173D01*
X72944720Y-110904492D01*
X72986786Y-110891229D01*
X73007097Y-110883836D01*
X73047833Y-110866962D01*
X73228800Y-110782575D01*
X73267918Y-110762211D01*
X73286636Y-110751404D01*
X73323826Y-110727711D01*
X73487399Y-110613176D01*
X73522388Y-110586328D01*
X73538946Y-110572434D01*
X73571456Y-110542643D01*
X73712643Y-110401456D01*
X73742434Y-110368946D01*
X73756328Y-110352388D01*
X73783176Y-110317399D01*
X73897711Y-110153826D01*
X73921404Y-110116636D01*
X73932211Y-110097918D01*
X73952575Y-110058800D01*
X74036962Y-109877833D01*
X74053836Y-109837097D01*
X74061229Y-109816786D01*
X74074492Y-109774720D01*
X74126173Y-109581844D01*
X74135720Y-109538783D01*
X74139473Y-109517497D01*
X74145227Y-109473784D01*
X74163104Y-109269455D01*
X74164547Y-109247451D01*
X74165019Y-109236643D01*
X74165500Y-109214588D01*
X74165500Y-105923412D01*
X74165019Y-105901357D01*
X74164547Y-105890549D01*
X74163104Y-105868546D01*
X74145227Y-105664216D01*
X74139473Y-105620502D01*
X74135720Y-105599216D01*
X74126173Y-105556155D01*
X74074492Y-105363279D01*
X74061229Y-105321213D01*
X74053836Y-105300902D01*
X74036962Y-105260166D01*
X73952575Y-105079199D01*
X73932211Y-105040081D01*
X73921404Y-105021363D01*
X73897711Y-104984173D01*
X73783176Y-104820600D01*
X73756328Y-104785611D01*
X73742434Y-104769053D01*
X73712643Y-104736543D01*
X73571456Y-104595356D01*
X73538946Y-104565565D01*
X73522388Y-104551671D01*
X73487399Y-104524823D01*
X73486304Y-104524056D01*
X73486290Y-104524046D01*
X73324936Y-104411065D01*
X73324928Y-104411060D01*
X73323826Y-104410288D01*
X73286636Y-104386595D01*
X73285499Y-104385938D01*
X73285480Y-104385927D01*
X73269076Y-104376456D01*
X73269055Y-104376445D01*
X73267918Y-104375788D01*
X73266729Y-104375169D01*
X73229971Y-104356033D01*
X73229949Y-104356022D01*
X73228800Y-104355424D01*
X73047833Y-104271037D01*
X73040999Y-104268206D01*
X73008386Y-104254696D01*
X73008360Y-104254686D01*
X73007105Y-104254166D01*
X73005818Y-104253697D01*
X73005791Y-104253687D01*
X72988096Y-104247246D01*
X72988072Y-104247238D01*
X72986795Y-104246773D01*
X72985509Y-104246367D01*
X72985484Y-104246359D01*
X72946016Y-104233914D01*
X72946001Y-104233909D01*
X72944721Y-104233506D01*
X72940054Y-104232255D01*
X72753116Y-104182165D01*
X72753085Y-104182157D01*
X72751837Y-104181823D01*
X72750569Y-104181542D01*
X72750553Y-104181538D01*
X72710061Y-104172562D01*
X72710025Y-104172554D01*
X72708767Y-104172276D01*
X72707391Y-104172033D01*
X72688816Y-104168758D01*
X72688782Y-104168752D01*
X72687490Y-104168525D01*
X72686169Y-104168351D01*
X72686149Y-104168348D01*
X72645135Y-104162949D01*
X72645129Y-104162948D01*
X72643782Y-104162771D01*
X72642427Y-104162652D01*
X72642423Y-104162652D01*
X72440179Y-104144958D01*
X72440111Y-104144952D01*
X72439450Y-104144895D01*
X72438720Y-104144847D01*
X72438705Y-104144846D01*
X72418143Y-104143498D01*
X72418114Y-104143496D01*
X72417452Y-104143453D01*
X72416860Y-104143427D01*
X72416785Y-104143423D01*
X72407294Y-104143009D01*
X72407262Y-104143007D01*
X72406645Y-104142981D01*
X72406021Y-104142967D01*
X72406009Y-104142967D01*
X72385244Y-104142514D01*
X72385216Y-104142513D01*
X72384588Y-104142500D01*
X72383910Y-104142500D01*
X67979090Y-104142500D01*
X67932103Y-104133253D01*
X67892124Y-104106891D01*
X67865116Y-104067346D01*
X67680178Y-103635825D01*
X65793525Y-99233635D01*
X65783500Y-99184790D01*
X65783500Y-90938089D01*
X65783500Y-90937412D01*
X65783019Y-90915357D01*
X65782547Y-90904549D01*
X65781104Y-90882546D01*
X65763227Y-90678216D01*
X65758281Y-90640640D01*
X65757646Y-90635816D01*
X65757645Y-90635814D01*
X65757473Y-90634502D01*
X65753720Y-90613216D01*
X65744173Y-90570155D01*
X65692492Y-90377279D01*
X65679229Y-90335213D01*
X65671836Y-90314902D01*
X65654962Y-90274166D01*
X65570575Y-90093199D01*
X65570109Y-90092304D01*
X65557483Y-90031406D01*
X65576035Y-89972014D01*
X65621101Y-89929111D01*
X65681333Y-89913500D01*
X80511937Y-89913500D01*
X80512588Y-89913500D01*
X80534647Y-89913018D01*
X80545453Y-89912546D01*
X80567452Y-89911104D01*
X80771783Y-89893227D01*
X80815497Y-89887473D01*
X80836783Y-89883720D01*
X80879844Y-89874173D01*
X81072720Y-89822492D01*
X81114786Y-89809229D01*
X81135097Y-89801836D01*
X81175833Y-89784962D01*
X81356800Y-89700575D01*
X81395918Y-89680211D01*
X81414636Y-89669404D01*
X81451826Y-89645711D01*
X81615399Y-89531176D01*
X81650388Y-89504328D01*
X81666946Y-89490434D01*
X81699456Y-89460643D01*
X81840643Y-89319456D01*
X81870434Y-89286946D01*
X81884328Y-89270388D01*
X81911176Y-89235399D01*
X82025711Y-89071826D01*
X82049404Y-89034636D01*
X82060211Y-89015918D01*
X82080575Y-88976800D01*
X82164962Y-88795833D01*
X82181836Y-88755097D01*
X82189229Y-88734786D01*
X82202492Y-88692720D01*
X82254173Y-88499844D01*
X82263720Y-88456783D01*
X82267473Y-88435497D01*
X82273227Y-88391784D01*
X82291104Y-88187455D01*
X82292547Y-88165451D01*
X82293019Y-88154643D01*
X82293500Y-88132588D01*
X82293500Y-76459412D01*
X82293019Y-76437357D01*
X82292547Y-76426549D01*
X82291104Y-76404546D01*
X82273227Y-76200216D01*
X82267473Y-76156502D01*
X82263720Y-76135216D01*
X82254173Y-76092155D01*
X82202492Y-75899279D01*
X82189229Y-75857213D01*
X82181836Y-75836902D01*
X82164962Y-75796166D01*
X82160969Y-75787604D01*
X82133829Y-75729402D01*
X82080575Y-75615199D01*
X82060211Y-75576081D01*
X82049404Y-75557363D01*
X82025711Y-75520173D01*
X81925195Y-75376621D01*
X81903036Y-75313610D01*
X81916782Y-75248243D01*
X81962443Y-75199491D01*
X82026771Y-75181500D01*
X90705004Y-75181500D01*
X90705572Y-75181500D01*
X90723618Y-75181178D01*
X90732464Y-75180862D01*
X90750481Y-75179896D01*
X91021848Y-75160487D01*
X91057729Y-75156629D01*
X91075241Y-75154111D01*
X91110748Y-75147705D01*
X91372245Y-75090820D01*
X91407194Y-75081900D01*
X91424170Y-75076916D01*
X91458425Y-75065516D01*
X91709179Y-74971989D01*
X91742530Y-74958174D01*
X91758623Y-74950824D01*
X91790876Y-74934678D01*
X92025755Y-74806425D01*
X92056783Y-74788016D01*
X92071667Y-74778451D01*
X92101316Y-74757866D01*
X92315560Y-74597484D01*
X92343670Y-74574831D01*
X92357040Y-74563245D01*
X92383436Y-74538667D01*
X92572667Y-74349436D01*
X92597245Y-74323040D01*
X92608831Y-74309670D01*
X92631484Y-74281560D01*
X92791866Y-74067316D01*
X92812451Y-74037667D01*
X92822016Y-74022783D01*
X92840425Y-73991755D01*
X92968678Y-73756876D01*
X92984824Y-73724623D01*
X92992174Y-73708530D01*
X93005989Y-73675179D01*
X93099516Y-73424425D01*
X93110916Y-73390170D01*
X93115900Y-73373194D01*
X93124820Y-73338245D01*
X93181705Y-73076748D01*
X93188111Y-73041241D01*
X93190629Y-73023729D01*
X93194487Y-72987848D01*
X93213896Y-72716481D01*
X93214862Y-72698464D01*
X93215178Y-72689618D01*
X93215500Y-72671572D01*
X93215500Y-70925752D01*
X93211176Y-70859773D01*
X93206951Y-70827680D01*
X93194051Y-70762828D01*
X93172464Y-70682267D01*
X93168712Y-70660982D01*
X93157716Y-70535301D01*
X93157716Y-70513699D01*
X93168712Y-70388012D01*
X93172465Y-70366730D01*
X93191824Y-70294482D01*
X93194051Y-70286172D01*
X93206951Y-70221320D01*
X93211176Y-70189227D01*
X93215500Y-70123248D01*
X93215500Y-66280554D01*
X93211176Y-66214575D01*
X93206951Y-66182482D01*
X93194051Y-66117629D01*
X93147464Y-65943763D01*
X93143712Y-65922482D01*
X93132716Y-65796800D01*
X93132716Y-65786000D01*
X95164341Y-65786000D01*
X95164813Y-65791395D01*
X95183017Y-65999469D01*
X95184937Y-66021408D01*
X95186336Y-66026630D01*
X95186337Y-66026634D01*
X95244694Y-66244430D01*
X95244697Y-66244438D01*
X95246097Y-66249663D01*
X95248385Y-66254570D01*
X95248386Y-66254572D01*
X95343678Y-66458927D01*
X95343681Y-66458933D01*
X95345965Y-66463830D01*
X95349064Y-66468257D01*
X95349066Y-66468259D01*
X95478399Y-66652966D01*
X95478402Y-66652970D01*
X95481505Y-66657401D01*
X95648599Y-66824495D01*
X95842170Y-66960035D01*
X95847841Y-66962679D01*
X95847900Y-66962707D01*
X95848206Y-66962975D01*
X95851763Y-66965029D01*
X95851354Y-66965736D01*
X95900079Y-67008464D01*
X95919500Y-67075091D01*
X95919500Y-69249274D01*
X95905489Y-69306531D01*
X95866625Y-69350847D01*
X95839883Y-69369572D01*
X95678034Y-69482899D01*
X95678029Y-69482902D01*
X95673599Y-69486005D01*
X95669775Y-69489828D01*
X95669769Y-69489834D01*
X95510334Y-69649269D01*
X95510328Y-69649275D01*
X95506505Y-69653099D01*
X95503402Y-69657529D01*
X95503399Y-69657534D01*
X95374073Y-69842231D01*
X95374068Y-69842238D01*
X95370965Y-69846671D01*
X95368677Y-69851577D01*
X95368675Y-69851581D01*
X95273386Y-70055927D01*
X95273383Y-70055932D01*
X95271097Y-70060837D01*
X95269698Y-70066057D01*
X95269694Y-70066069D01*
X95211337Y-70283865D01*
X95211335Y-70283871D01*
X95209937Y-70289092D01*
X95209465Y-70294477D01*
X95209465Y-70294482D01*
X95190287Y-70513691D01*
X95189341Y-70524500D01*
X95189813Y-70529895D01*
X95207814Y-70735650D01*
X95209937Y-70759908D01*
X95211336Y-70765130D01*
X95211337Y-70765134D01*
X95269694Y-70982930D01*
X95269697Y-70982938D01*
X95271097Y-70988163D01*
X95273385Y-70993070D01*
X95273386Y-70993072D01*
X95368678Y-71197427D01*
X95368681Y-71197433D01*
X95370965Y-71202330D01*
X95374064Y-71206757D01*
X95374066Y-71206759D01*
X95503399Y-71391466D01*
X95503402Y-71391470D01*
X95506505Y-71395901D01*
X95673599Y-71562995D01*
X95678031Y-71566098D01*
X95678033Y-71566100D01*
X95822260Y-71667089D01*
X95867170Y-71698535D01*
X96081337Y-71798403D01*
X96309592Y-71859563D01*
X96545000Y-71880159D01*
X96780408Y-71859563D01*
X97008663Y-71798403D01*
X97222830Y-71698535D01*
X97416401Y-71562995D01*
X97583495Y-71395901D01*
X97669194Y-71273511D01*
X97713425Y-71210342D01*
X97757743Y-71171476D01*
X97815000Y-71157465D01*
X97872257Y-71171476D01*
X97916575Y-71210342D01*
X98043395Y-71391461D01*
X98043401Y-71391468D01*
X98046505Y-71395901D01*
X98213599Y-71562995D01*
X98218031Y-71566098D01*
X98218033Y-71566100D01*
X98362260Y-71667089D01*
X98407170Y-71698535D01*
X98621337Y-71798403D01*
X98849592Y-71859563D01*
X99085000Y-71880159D01*
X99320408Y-71859563D01*
X99548663Y-71798403D01*
X99762830Y-71698535D01*
X99956401Y-71562995D01*
X100123495Y-71395901D01*
X100209194Y-71273511D01*
X100253425Y-71210342D01*
X100297743Y-71171476D01*
X100355000Y-71157465D01*
X100412257Y-71171476D01*
X100456575Y-71210342D01*
X100583395Y-71391461D01*
X100583401Y-71391468D01*
X100586505Y-71395901D01*
X100753599Y-71562995D01*
X100758031Y-71566098D01*
X100758033Y-71566100D01*
X100902260Y-71667089D01*
X100947170Y-71698535D01*
X101161337Y-71798403D01*
X101389592Y-71859563D01*
X101625000Y-71880159D01*
X101860408Y-71859563D01*
X102088663Y-71798403D01*
X102302830Y-71698535D01*
X102496401Y-71562995D01*
X102663495Y-71395901D01*
X102799035Y-71202330D01*
X102898903Y-70988163D01*
X102960063Y-70759908D01*
X102980659Y-70524500D01*
X102960063Y-70289092D01*
X102898903Y-70060837D01*
X102799035Y-69846671D01*
X102663495Y-69653099D01*
X102496401Y-69486005D01*
X102491970Y-69482902D01*
X102491966Y-69482899D01*
X102303376Y-69350847D01*
X102264511Y-69306529D01*
X102250500Y-69249272D01*
X102250500Y-67043722D01*
X102264511Y-66986465D01*
X102303377Y-66942147D01*
X102466961Y-66827604D01*
X102466961Y-66827603D01*
X102471401Y-66824495D01*
X102638495Y-66657401D01*
X102774035Y-66463830D01*
X102873903Y-66249663D01*
X102935063Y-66021408D01*
X102955659Y-65786000D01*
X102935063Y-65550592D01*
X102880218Y-65345905D01*
X102875305Y-65327569D01*
X102875304Y-65327567D01*
X102873903Y-65322337D01*
X102774035Y-65108171D01*
X102638495Y-64914599D01*
X102471401Y-64747505D01*
X102466970Y-64744402D01*
X102466966Y-64744399D01*
X102282259Y-64615066D01*
X102282257Y-64615064D01*
X102277830Y-64611965D01*
X102272933Y-64609681D01*
X102272927Y-64609678D01*
X102068572Y-64514386D01*
X102068570Y-64514385D01*
X102063663Y-64512097D01*
X102058438Y-64510697D01*
X102058430Y-64510694D01*
X101840634Y-64452337D01*
X101840630Y-64452336D01*
X101835408Y-64450937D01*
X101830020Y-64450465D01*
X101830017Y-64450465D01*
X101605395Y-64430813D01*
X101600000Y-64430341D01*
X101594605Y-64430813D01*
X101369982Y-64450465D01*
X101369977Y-64450465D01*
X101364592Y-64450937D01*
X101359371Y-64452335D01*
X101359365Y-64452337D01*
X101141569Y-64510694D01*
X101141557Y-64510698D01*
X101136337Y-64512097D01*
X101131432Y-64514383D01*
X101131427Y-64514386D01*
X100927081Y-64609675D01*
X100927077Y-64609677D01*
X100922171Y-64611965D01*
X100917738Y-64615068D01*
X100917731Y-64615073D01*
X100733034Y-64744399D01*
X100733029Y-64744402D01*
X100728599Y-64747505D01*
X100724775Y-64751328D01*
X100724769Y-64751334D01*
X100565334Y-64910769D01*
X100565328Y-64910775D01*
X100561505Y-64914599D01*
X100558402Y-64919029D01*
X100558399Y-64919034D01*
X100431575Y-65100159D01*
X100387257Y-65139025D01*
X100330000Y-65153036D01*
X100272743Y-65139025D01*
X100228425Y-65100159D01*
X100217327Y-65084310D01*
X100098495Y-64914599D01*
X99931401Y-64747505D01*
X99926970Y-64744402D01*
X99926966Y-64744399D01*
X99742259Y-64615066D01*
X99742257Y-64615064D01*
X99737830Y-64611965D01*
X99732933Y-64609681D01*
X99732927Y-64609678D01*
X99528572Y-64514386D01*
X99528570Y-64514385D01*
X99523663Y-64512097D01*
X99518438Y-64510697D01*
X99518430Y-64510694D01*
X99300634Y-64452337D01*
X99300630Y-64452336D01*
X99295408Y-64450937D01*
X99290020Y-64450465D01*
X99290017Y-64450465D01*
X99065395Y-64430813D01*
X99060000Y-64430341D01*
X99054605Y-64430813D01*
X98829982Y-64450465D01*
X98829977Y-64450465D01*
X98824592Y-64450937D01*
X98819371Y-64452335D01*
X98819365Y-64452337D01*
X98601569Y-64510694D01*
X98601557Y-64510698D01*
X98596337Y-64512097D01*
X98591432Y-64514383D01*
X98591427Y-64514386D01*
X98387081Y-64609675D01*
X98387077Y-64609677D01*
X98382171Y-64611965D01*
X98377738Y-64615068D01*
X98377731Y-64615073D01*
X98193034Y-64744399D01*
X98193029Y-64744402D01*
X98188599Y-64747505D01*
X98184775Y-64751328D01*
X98184769Y-64751334D01*
X98025334Y-64910769D01*
X98025328Y-64910775D01*
X98021505Y-64914599D01*
X98018402Y-64919029D01*
X98018399Y-64919034D01*
X97891575Y-65100159D01*
X97847257Y-65139025D01*
X97790000Y-65153036D01*
X97732743Y-65139025D01*
X97688425Y-65100159D01*
X97677327Y-65084310D01*
X97558495Y-64914599D01*
X97391401Y-64747505D01*
X97386970Y-64744402D01*
X97386966Y-64744399D01*
X97202259Y-64615066D01*
X97202257Y-64615064D01*
X97197830Y-64611965D01*
X97192933Y-64609681D01*
X97192927Y-64609678D01*
X96988572Y-64514386D01*
X96988570Y-64514385D01*
X96983663Y-64512097D01*
X96978438Y-64510697D01*
X96978430Y-64510694D01*
X96760634Y-64452337D01*
X96760630Y-64452336D01*
X96755408Y-64450937D01*
X96750020Y-64450465D01*
X96750017Y-64450465D01*
X96525395Y-64430813D01*
X96520000Y-64430341D01*
X96514605Y-64430813D01*
X96289982Y-64450465D01*
X96289977Y-64450465D01*
X96284592Y-64450937D01*
X96279371Y-64452335D01*
X96279365Y-64452337D01*
X96061569Y-64510694D01*
X96061557Y-64510698D01*
X96056337Y-64512097D01*
X96051432Y-64514383D01*
X96051427Y-64514386D01*
X95847081Y-64609675D01*
X95847077Y-64609677D01*
X95842171Y-64611965D01*
X95837738Y-64615068D01*
X95837731Y-64615073D01*
X95653034Y-64744399D01*
X95653029Y-64744402D01*
X95648599Y-64747505D01*
X95644775Y-64751328D01*
X95644769Y-64751334D01*
X95485334Y-64910769D01*
X95485328Y-64910775D01*
X95481505Y-64914599D01*
X95478402Y-64919029D01*
X95478399Y-64919034D01*
X95349073Y-65103731D01*
X95349068Y-65103738D01*
X95345965Y-65108171D01*
X95343677Y-65113077D01*
X95343675Y-65113081D01*
X95248386Y-65317427D01*
X95248383Y-65317432D01*
X95246097Y-65322337D01*
X95244698Y-65327557D01*
X95244694Y-65327569D01*
X95186337Y-65545365D01*
X95186335Y-65545371D01*
X95184937Y-65550592D01*
X95184465Y-65555977D01*
X95184465Y-65555982D01*
X95172446Y-65693360D01*
X95164341Y-65786000D01*
X93132716Y-65786000D01*
X93132716Y-65775198D01*
X93143712Y-65649510D01*
X93147463Y-65628239D01*
X93194051Y-65454371D01*
X93206951Y-65389518D01*
X93211176Y-65357425D01*
X93215500Y-65291446D01*
X93215500Y-64775412D01*
X93215019Y-64753357D01*
X93214547Y-64742549D01*
X93213104Y-64720546D01*
X93195227Y-64516216D01*
X93189473Y-64472502D01*
X93185720Y-64451216D01*
X93176173Y-64408155D01*
X93124492Y-64215279D01*
X93111229Y-64173213D01*
X93103836Y-64152902D01*
X93086962Y-64112166D01*
X93079440Y-64096036D01*
X93055829Y-64045402D01*
X93002575Y-63931199D01*
X92982211Y-63892081D01*
X92980568Y-63889236D01*
X92972071Y-63874518D01*
X92972067Y-63874512D01*
X92971404Y-63873363D01*
X92947711Y-63836173D01*
X92865142Y-63718252D01*
X92833952Y-63673708D01*
X92833948Y-63673702D01*
X92833176Y-63672600D01*
X92806328Y-63637611D01*
X92792434Y-63621053D01*
X92762643Y-63588543D01*
X92632281Y-63458181D01*
X92602031Y-63408818D01*
X92597489Y-63351102D01*
X92619644Y-63297615D01*
X92663667Y-63260015D01*
X92719962Y-63246500D01*
X103632303Y-63246500D01*
X103643110Y-63246972D01*
X103841727Y-63264348D01*
X103863004Y-63268099D01*
X104055888Y-63319782D01*
X104076198Y-63327175D01*
X104257165Y-63411562D01*
X104275883Y-63422369D01*
X104439456Y-63536904D01*
X104456014Y-63550798D01*
X104597201Y-63691985D01*
X104611095Y-63708543D01*
X104725630Y-63872116D01*
X104736437Y-63890834D01*
X104820824Y-64071801D01*
X104828217Y-64092112D01*
X104879898Y-64284988D01*
X104883651Y-64306274D01*
X104894547Y-64430813D01*
X104899353Y-64485750D01*
X104901028Y-64504889D01*
X104901500Y-64515697D01*
X104901500Y-110744303D01*
X104901028Y-110755111D01*
X104883651Y-110953725D01*
X104879898Y-110975011D01*
X104828217Y-111167887D01*
X104820824Y-111188198D01*
X104736437Y-111369165D01*
X104725630Y-111387883D01*
X104611095Y-111551456D01*
X104597201Y-111568014D01*
X104456014Y-111709201D01*
X104439456Y-111723095D01*
X104275883Y-111837630D01*
X104257165Y-111848437D01*
X104076198Y-111932824D01*
X104055887Y-111940217D01*
X103863011Y-111991898D01*
X103841725Y-111995651D01*
X103667425Y-112010900D01*
X103643109Y-112013028D01*
X103632303Y-112013500D01*
X45719697Y-112013500D01*
X45708890Y-112013028D01*
X45680795Y-112010570D01*
X45510274Y-111995651D01*
X45488988Y-111991898D01*
X45296112Y-111940217D01*
X45275801Y-111932824D01*
X45094834Y-111848437D01*
X45076116Y-111837630D01*
X44912543Y-111723095D01*
X44895985Y-111709201D01*
X44754798Y-111568014D01*
X44740904Y-111551456D01*
X44626369Y-111387883D01*
X44615562Y-111369165D01*
X44531175Y-111188198D01*
X44523782Y-111167887D01*
X44472099Y-110975004D01*
X44468348Y-110953724D01*
X44464437Y-110909025D01*
X44450972Y-110755110D01*
X44450500Y-110744303D01*
X44450500Y-64515697D01*
X44450972Y-64504890D01*
X44451284Y-64501313D01*
X44468348Y-64306270D01*
X44472099Y-64284996D01*
X44523783Y-64092107D01*
X44531175Y-64071801D01*
X44615562Y-63890834D01*
X44626369Y-63872116D01*
X44740904Y-63708543D01*
X44754792Y-63691991D01*
X44895991Y-63550792D01*
X44912543Y-63536904D01*
X45076116Y-63422369D01*
X45094831Y-63411563D01*
X45275803Y-63327174D01*
X45296107Y-63319783D01*
X45488996Y-63268099D01*
X45510270Y-63264348D01*
X45708889Y-63246972D01*
X45719697Y-63246500D01*
X49143511Y-63246500D01*
X49204117Y-63262320D01*
G37*
%TD.AperFunction*%
%TD*%
%TA.AperFunction,Conductor*%
%TO.N,+24V*%
G36*
X60110814Y-89889663D02*
G01*
X60117882Y-89890594D01*
X60176523Y-89894869D01*
X60205316Y-89895289D01*
X60264051Y-89892727D01*
X60284457Y-89890642D01*
X60297062Y-89890000D01*
X64432932Y-89890000D01*
X64445533Y-89890642D01*
X64463788Y-89892506D01*
X64472463Y-89893393D01*
X64489334Y-89896304D01*
X64507500Y-89900750D01*
X64546503Y-89907044D01*
X64627035Y-89913500D01*
X64629528Y-89913500D01*
X64720085Y-89913500D01*
X64757372Y-89919239D01*
X64791207Y-89935924D01*
X64815453Y-89952901D01*
X64832011Y-89966795D01*
X64973201Y-90107985D01*
X64987095Y-90124543D01*
X65101630Y-90288116D01*
X65112437Y-90306834D01*
X65196824Y-90487801D01*
X65204217Y-90508112D01*
X65255898Y-90700988D01*
X65259651Y-90722274D01*
X65277528Y-90926604D01*
X65278000Y-90937412D01*
X65278000Y-99314000D01*
X67564000Y-104648000D01*
X70358000Y-104648000D01*
X72384588Y-104648000D01*
X72395395Y-104648472D01*
X72599727Y-104666348D01*
X72621004Y-104670099D01*
X72813888Y-104721782D01*
X72834198Y-104729175D01*
X73015165Y-104813562D01*
X73033883Y-104824369D01*
X73197456Y-104938904D01*
X73214014Y-104952798D01*
X73355201Y-105093985D01*
X73369095Y-105110543D01*
X73483630Y-105274116D01*
X73494437Y-105292834D01*
X73578824Y-105473801D01*
X73586217Y-105494112D01*
X73637898Y-105686988D01*
X73641651Y-105708274D01*
X73659528Y-105912604D01*
X73660000Y-105923412D01*
X73660000Y-109214588D01*
X73659528Y-109225396D01*
X73641651Y-109429725D01*
X73637898Y-109451011D01*
X73586217Y-109643887D01*
X73578824Y-109664198D01*
X73494437Y-109845165D01*
X73483630Y-109863883D01*
X73369095Y-110027456D01*
X73355201Y-110044014D01*
X73214014Y-110185201D01*
X73197456Y-110199095D01*
X73033883Y-110313630D01*
X73015165Y-110324437D01*
X72834198Y-110408824D01*
X72813887Y-110416217D01*
X72621011Y-110467898D01*
X72599725Y-110471651D01*
X72422008Y-110487199D01*
X72395394Y-110489528D01*
X72384588Y-110490000D01*
X59903119Y-110490000D01*
X59892566Y-110489550D01*
X59871625Y-110487761D01*
X59693002Y-110472503D01*
X59672203Y-110468924D01*
X59483545Y-110419620D01*
X59463657Y-110412566D01*
X59286090Y-110331977D01*
X59267694Y-110321656D01*
X59106370Y-110212124D01*
X59089984Y-110198827D01*
X58949579Y-110063526D01*
X58935682Y-110047639D01*
X58820256Y-109890482D01*
X58809255Y-109872470D01*
X58722156Y-109698020D01*
X58714369Y-109678403D01*
X58658116Y-109491704D01*
X58653770Y-109471056D01*
X58629347Y-109272244D01*
X58628508Y-109261719D01*
X58626963Y-109220000D01*
X58420888Y-103655986D01*
X58420853Y-103654894D01*
X58420248Y-103633091D01*
X58420208Y-103630950D01*
X58420005Y-103609025D01*
X58420000Y-103607879D01*
X58420000Y-99818478D01*
X58420561Y-99806701D01*
X58422145Y-99790093D01*
X58441791Y-99584186D01*
X58446242Y-99561072D01*
X58509180Y-99346552D01*
X58513021Y-99335446D01*
X59345165Y-97255087D01*
X59436000Y-97028000D01*
X59436000Y-94742000D01*
X59436000Y-90937412D01*
X59436472Y-90926605D01*
X59454348Y-90722275D01*
X59454349Y-90722274D01*
X59454348Y-90722270D01*
X59458099Y-90700996D01*
X59509783Y-90508107D01*
X59517175Y-90487801D01*
X59601562Y-90306834D01*
X59612369Y-90288116D01*
X59726904Y-90124543D01*
X59740792Y-90107991D01*
X59881995Y-89966788D01*
X59898539Y-89952906D01*
X59972468Y-89901140D01*
X60018074Y-89881370D01*
X60067780Y-89881101D01*
X60110814Y-89889663D01*
G37*
%TD.AperFunction*%
%TD*%
%TA.AperFunction,Conductor*%
%TO.N,3.3V*%
G36*
X91649727Y-63518348D02*
G01*
X91671004Y-63522099D01*
X91863888Y-63573782D01*
X91884198Y-63581175D01*
X92065165Y-63665562D01*
X92083883Y-63676369D01*
X92247456Y-63790904D01*
X92264014Y-63804798D01*
X92405201Y-63945985D01*
X92419095Y-63962543D01*
X92533630Y-64126116D01*
X92544437Y-64144834D01*
X92628824Y-64325801D01*
X92636217Y-64346112D01*
X92687898Y-64538988D01*
X92691651Y-64560274D01*
X92709528Y-64764604D01*
X92710000Y-64775412D01*
X92710000Y-65291446D01*
X92705775Y-65323539D01*
X92646337Y-65545365D01*
X92646335Y-65545371D01*
X92644937Y-65550592D01*
X92624341Y-65786000D01*
X92624813Y-65791395D01*
X92643017Y-65999469D01*
X92644937Y-66021408D01*
X92646336Y-66026630D01*
X92646337Y-66026634D01*
X92705775Y-66248461D01*
X92710000Y-66280554D01*
X92710000Y-70123248D01*
X92705775Y-70155341D01*
X92671337Y-70283865D01*
X92671335Y-70283871D01*
X92669937Y-70289092D01*
X92649341Y-70524500D01*
X92649813Y-70529895D01*
X92661390Y-70662224D01*
X92669937Y-70759908D01*
X92671336Y-70765130D01*
X92671337Y-70765134D01*
X92705775Y-70893659D01*
X92710000Y-70925752D01*
X92710000Y-72671572D01*
X92709684Y-72680418D01*
X92690275Y-72951785D01*
X92687757Y-72969297D01*
X92630872Y-73230794D01*
X92625888Y-73247770D01*
X92532361Y-73498524D01*
X92525011Y-73514617D01*
X92396758Y-73749496D01*
X92387193Y-73764380D01*
X92226811Y-73978624D01*
X92215225Y-73991994D01*
X92025994Y-74181225D01*
X92012624Y-74192811D01*
X91798380Y-74353193D01*
X91783496Y-74362758D01*
X91548617Y-74491011D01*
X91532524Y-74498361D01*
X91281770Y-74591888D01*
X91264794Y-74596872D01*
X91003297Y-74653757D01*
X90985785Y-74656275D01*
X90714418Y-74675684D01*
X90705572Y-74676000D01*
X71374000Y-74676000D01*
X66040000Y-74676000D01*
X65278000Y-75438000D01*
X65267624Y-75562505D01*
X65260456Y-75574922D01*
X65260434Y-75574961D01*
X65259788Y-75576081D01*
X65259179Y-75577249D01*
X65259169Y-75577269D01*
X65240033Y-75614027D01*
X65240013Y-75614067D01*
X65239424Y-75615199D01*
X65238872Y-75616382D01*
X65238863Y-75616401D01*
X65155613Y-75794928D01*
X65155591Y-75794976D01*
X65155037Y-75796166D01*
X65154518Y-75797416D01*
X65154510Y-75797437D01*
X65139370Y-75833987D01*
X65138170Y-75836885D01*
X65137719Y-75838122D01*
X65137701Y-75838170D01*
X65131237Y-75855927D01*
X65131221Y-75855972D01*
X65130778Y-75857191D01*
X65130377Y-75858459D01*
X65130369Y-75858486D01*
X65117914Y-75897981D01*
X65117901Y-75898024D01*
X65117507Y-75899275D01*
X65117161Y-75900565D01*
X65117157Y-75900580D01*
X65066170Y-76090865D01*
X65066158Y-76090910D01*
X65065823Y-76092164D01*
X65065538Y-76093447D01*
X65065531Y-76093478D01*
X65056570Y-76133903D01*
X65056278Y-76135221D01*
X65052527Y-76156495D01*
X65052350Y-76157833D01*
X65052347Y-76157858D01*
X65046946Y-76198881D01*
X65046942Y-76198909D01*
X65046771Y-76200215D01*
X65046655Y-76201529D01*
X65046653Y-76201557D01*
X65028958Y-76403820D01*
X65028952Y-76403895D01*
X65028895Y-76404550D01*
X65027453Y-76426548D01*
X65027427Y-76427135D01*
X65027423Y-76427214D01*
X65027009Y-76436705D01*
X65026981Y-76437355D01*
X65026500Y-76459412D01*
X65026500Y-78181089D01*
X65026512Y-78181690D01*
X65026513Y-78181756D01*
X65026914Y-78201276D01*
X65026916Y-78201362D01*
X65026927Y-78201865D01*
X65026948Y-78202376D01*
X65026951Y-78202472D01*
X65027309Y-78211164D01*
X65027346Y-78212051D01*
X65027382Y-78212637D01*
X65027386Y-78212712D01*
X65028584Y-78232110D01*
X65028627Y-78232801D01*
X65028682Y-78233468D01*
X65036818Y-78332181D01*
X65024000Y-78486000D01*
X65058954Y-78515576D01*
X65061185Y-78526271D01*
X65061190Y-78526296D01*
X65061445Y-78527515D01*
X65061743Y-78528701D01*
X65061752Y-78528737D01*
X65107099Y-78708785D01*
X65107414Y-78710034D01*
X65107770Y-78711239D01*
X65107782Y-78711280D01*
X65118854Y-78748676D01*
X65118863Y-78748706D01*
X65119215Y-78749893D01*
X65119613Y-78751059D01*
X65119622Y-78751087D01*
X65125375Y-78767938D01*
X65125797Y-78769173D01*
X65126264Y-78770377D01*
X65126270Y-78770393D01*
X65140353Y-78806691D01*
X65140367Y-78806727D01*
X65140828Y-78807913D01*
X65216063Y-78980442D01*
X65234218Y-79017806D01*
X65243862Y-79035739D01*
X65265046Y-79071519D01*
X65367522Y-79229410D01*
X65368256Y-79230445D01*
X65390826Y-79262275D01*
X65390839Y-79262293D01*
X65391569Y-79263322D01*
X65404024Y-79279438D01*
X65404827Y-79280393D01*
X65404839Y-79280408D01*
X65429955Y-79310283D01*
X65429976Y-79310307D01*
X65430763Y-79311243D01*
X65561152Y-79453992D01*
X65575485Y-79469049D01*
X65582663Y-79476286D01*
X65597597Y-79490737D01*
X68269542Y-81971829D01*
X68275977Y-81977804D01*
X68303396Y-82015025D01*
X68315276Y-82059702D01*
X68325675Y-82203115D01*
X68326000Y-82212083D01*
X68326000Y-83282429D01*
X68325709Y-83290926D01*
X68307802Y-83551643D01*
X68305478Y-83568477D01*
X68252967Y-83820107D01*
X68248364Y-83836465D01*
X68161939Y-84078564D01*
X68155142Y-84094140D01*
X68036433Y-84322139D01*
X68027571Y-84336638D01*
X67878800Y-84546271D01*
X67868038Y-84559423D01*
X67691999Y-84746750D01*
X67679541Y-84758307D01*
X67476238Y-84922477D01*
X67469453Y-84927581D01*
X67328042Y-85026570D01*
X67112668Y-85177332D01*
X67105356Y-85182076D01*
X65712778Y-86017621D01*
X65677133Y-86032054D01*
X65468971Y-86080580D01*
X65450276Y-86083457D01*
X65160276Y-86105639D01*
X65150819Y-86106000D01*
X64859990Y-86106000D01*
X64794893Y-86087539D01*
X64783611Y-86080580D01*
X64734334Y-86050186D01*
X64727482Y-86047915D01*
X64727479Y-86047914D01*
X64574225Y-85997131D01*
X64574224Y-85997130D01*
X64567797Y-85995001D01*
X64561064Y-85994313D01*
X64561059Y-85994312D01*
X64468140Y-85984819D01*
X64468123Y-85984818D01*
X64465009Y-85984500D01*
X64461860Y-85984500D01*
X60268140Y-85984500D01*
X60268120Y-85984500D01*
X60264992Y-85984501D01*
X60261860Y-85984820D01*
X60261858Y-85984821D01*
X60168933Y-85994313D01*
X60168928Y-85994314D01*
X60162203Y-85995001D01*
X60155791Y-85997125D01*
X60155771Y-85997130D01*
X60153911Y-85997747D01*
X60152000Y-85997938D01*
X60149155Y-85998547D01*
X60149086Y-85998229D01*
X60100009Y-86003135D01*
X60048954Y-85985029D01*
X59988731Y-85947189D01*
X59967021Y-85929876D01*
X59866125Y-85828980D01*
X59848812Y-85807271D01*
X59772893Y-85686446D01*
X59760848Y-85661433D01*
X59713717Y-85526743D01*
X59707541Y-85499682D01*
X59691564Y-85357881D01*
X59691564Y-85330116D01*
X59707541Y-85188315D01*
X59713717Y-85161258D01*
X59760849Y-85026562D01*
X59772889Y-85001559D01*
X59838242Y-84897550D01*
X59888193Y-84852410D01*
X59953170Y-84840249D01*
X59956236Y-84840847D01*
X60059646Y-84839548D01*
X60109783Y-84833755D01*
X60210760Y-84811440D01*
X60255763Y-84796527D01*
X60282195Y-84790873D01*
X60284510Y-84790636D01*
X60297061Y-84790000D01*
X64432934Y-84790000D01*
X64445495Y-84790637D01*
X64447800Y-84790873D01*
X64474230Y-84796526D01*
X64539169Y-84818045D01*
X64554015Y-84824055D01*
X64582295Y-84837694D01*
X64630164Y-84854952D01*
X64731379Y-84880011D01*
X64835583Y-84883770D01*
X64886353Y-84880350D01*
X64989117Y-84862648D01*
X65086061Y-84824237D01*
X65131182Y-84800714D01*
X65218183Y-84743228D01*
X65291663Y-84682925D01*
X65328421Y-84649609D01*
X65345610Y-84632420D01*
X65378925Y-84595663D01*
X65390138Y-84582000D01*
X65532000Y-84582000D01*
X65532000Y-84401782D01*
X65532834Y-84400534D01*
X65558340Y-84357981D01*
X65640713Y-84203874D01*
X65661923Y-84159030D01*
X65671226Y-84136571D01*
X65687939Y-84089860D01*
X65738666Y-83922636D01*
X65750721Y-83874510D01*
X65755463Y-83850669D01*
X65762741Y-83801604D01*
X65780469Y-83621609D01*
X65782294Y-83596861D01*
X65782891Y-83584707D01*
X65783500Y-83559907D01*
X65783500Y-83322015D01*
X65783160Y-83303487D01*
X65782827Y-83294408D01*
X65781810Y-83275924D01*
X65761367Y-82997465D01*
X65757307Y-82960674D01*
X65754656Y-82942711D01*
X65747906Y-82906276D01*
X65688008Y-82638222D01*
X65678610Y-82602386D01*
X65673363Y-82585003D01*
X65661373Y-82549974D01*
X65562973Y-82293549D01*
X65548444Y-82259475D01*
X65540715Y-82243045D01*
X65523737Y-82210140D01*
X65388945Y-81970834D01*
X65369588Y-81939235D01*
X65359544Y-81924113D01*
X65337948Y-81894049D01*
X65166865Y-81673399D01*
X65155282Y-81659011D01*
X65149457Y-81652040D01*
X65149093Y-81651620D01*
X65149063Y-81651585D01*
X65137625Y-81638397D01*
X65137612Y-81638382D01*
X65137290Y-81638011D01*
X63514426Y-79834828D01*
X63492269Y-79799894D01*
X63482836Y-79759616D01*
X63359983Y-77793949D01*
X63358603Y-77776654D01*
X63357782Y-77768194D01*
X63355816Y-77751000D01*
X63321694Y-77491976D01*
X63315994Y-77457796D01*
X63312626Y-77441142D01*
X63304596Y-77407431D01*
X63236512Y-77159605D01*
X63226189Y-77126514D01*
X63220576Y-77110478D01*
X63208019Y-77078197D01*
X63106700Y-76842007D01*
X63091951Y-76810640D01*
X63084203Y-76795530D01*
X63067350Y-76765264D01*
X62967279Y-76599209D01*
X62935265Y-76546085D01*
X62935252Y-76546064D01*
X62934689Y-76545130D01*
X62915805Y-76516094D01*
X62909354Y-76506882D01*
X62893228Y-76474781D01*
X62886982Y-76439407D01*
X62738000Y-71374000D01*
X60795959Y-71374000D01*
X60793789Y-71374000D01*
X49248428Y-71374000D01*
X49239582Y-71373684D01*
X48968214Y-71354275D01*
X48950702Y-71351757D01*
X48689205Y-71294872D01*
X48672229Y-71289888D01*
X48421475Y-71196361D01*
X48405382Y-71189011D01*
X48170503Y-71060758D01*
X48155619Y-71051193D01*
X47941375Y-70890811D01*
X47928005Y-70879225D01*
X47738774Y-70689994D01*
X47727188Y-70676624D01*
X47716408Y-70662224D01*
X47566802Y-70462375D01*
X47557244Y-70447501D01*
X47428987Y-70212616D01*
X47421638Y-70196524D01*
X47328108Y-69945762D01*
X47323129Y-69928803D01*
X47266241Y-69667291D01*
X47263724Y-69649785D01*
X47244316Y-69378418D01*
X47244000Y-69369572D01*
X47244000Y-65999469D01*
X47244313Y-65990660D01*
X47258505Y-65791395D01*
X47263562Y-65720384D01*
X47266056Y-65702970D01*
X47322479Y-65442491D01*
X47327422Y-65425582D01*
X47420198Y-65175715D01*
X47427478Y-65159698D01*
X47554734Y-64925496D01*
X47564210Y-64910674D01*
X47723376Y-64696874D01*
X47734855Y-64683546D01*
X47922720Y-64494456D01*
X47935972Y-64482891D01*
X48148730Y-64322345D01*
X48163502Y-64312766D01*
X48396866Y-64183995D01*
X48412832Y-64176612D01*
X48662099Y-64082213D01*
X48678964Y-64077164D01*
X48939075Y-64019051D01*
X48956480Y-64016443D01*
X49186967Y-63998521D01*
X49226624Y-63995438D01*
X49235423Y-63995068D01*
X84404575Y-63766697D01*
X84413271Y-63766945D01*
X84680532Y-63784015D01*
X84697768Y-63786340D01*
X84955711Y-63839792D01*
X84972462Y-63844511D01*
X85220368Y-63933569D01*
X85236302Y-63940592D01*
X85469290Y-64063501D01*
X85484076Y-64072682D01*
X85557983Y-64126116D01*
X85697545Y-64227017D01*
X85710905Y-64238185D01*
X85900644Y-64420895D01*
X85912309Y-64433825D01*
X86011201Y-64560274D01*
X86074584Y-64641318D01*
X86084322Y-64655755D01*
X86215930Y-64883935D01*
X86223550Y-64899593D01*
X86321894Y-65143957D01*
X86327245Y-65160529D01*
X86390386Y-65416260D01*
X86393363Y-65433417D01*
X86420501Y-65699833D01*
X86421078Y-65708526D01*
X86555930Y-70023771D01*
X86614000Y-71882000D01*
X88392000Y-71882000D01*
X90170000Y-71882000D01*
X90170000Y-71050146D01*
X90198903Y-70988163D01*
X90260063Y-70759908D01*
X90280659Y-70524500D01*
X90260063Y-70289092D01*
X90198903Y-70060837D01*
X90181617Y-70023768D01*
X90170000Y-69971365D01*
X90170000Y-66280554D01*
X90174225Y-66248461D01*
X90235063Y-66021408D01*
X90255659Y-65786000D01*
X90235063Y-65550592D01*
X90174224Y-65323538D01*
X90170000Y-65291446D01*
X90170000Y-64775412D01*
X90170472Y-64764605D01*
X90177016Y-64689801D01*
X90188348Y-64560270D01*
X90192099Y-64538996D01*
X90243783Y-64346107D01*
X90251175Y-64325801D01*
X90257255Y-64312763D01*
X90335563Y-64144831D01*
X90346369Y-64126116D01*
X90460904Y-63962543D01*
X90474792Y-63945991D01*
X90615991Y-63804792D01*
X90632543Y-63790904D01*
X90796116Y-63676369D01*
X90814831Y-63665563D01*
X90995803Y-63581174D01*
X91016107Y-63573783D01*
X91208996Y-63522099D01*
X91230270Y-63518348D01*
X91429199Y-63500945D01*
X91450801Y-63500945D01*
X91649727Y-63518348D01*
G37*
%TD.AperFunction*%
%TD*%
%TA.AperFunction,Conductor*%
%TO.N,Net-(D2-K)*%
G36*
X80523395Y-75184472D02*
G01*
X80727727Y-75202348D01*
X80749004Y-75206099D01*
X80941888Y-75257782D01*
X80962198Y-75265175D01*
X81143165Y-75349562D01*
X81161883Y-75360369D01*
X81325456Y-75474904D01*
X81342014Y-75488798D01*
X81483201Y-75629985D01*
X81497095Y-75646543D01*
X81611630Y-75810116D01*
X81622437Y-75828834D01*
X81706824Y-76009801D01*
X81714217Y-76030112D01*
X81765898Y-76222988D01*
X81769651Y-76244274D01*
X81787528Y-76448604D01*
X81788000Y-76459412D01*
X81788000Y-88132588D01*
X81787528Y-88143396D01*
X81769651Y-88347725D01*
X81765898Y-88369011D01*
X81714217Y-88561887D01*
X81706824Y-88582198D01*
X81622437Y-88763165D01*
X81611630Y-88781883D01*
X81497095Y-88945456D01*
X81483201Y-88962014D01*
X81342014Y-89103201D01*
X81325456Y-89117095D01*
X81161883Y-89231630D01*
X81143165Y-89242437D01*
X80962198Y-89326824D01*
X80941887Y-89334217D01*
X80749011Y-89385898D01*
X80727725Y-89389651D01*
X80550008Y-89405199D01*
X80523394Y-89407528D01*
X80512588Y-89408000D01*
X64627035Y-89408000D01*
X64588032Y-89401706D01*
X64567797Y-89395001D01*
X64561064Y-89394313D01*
X64561059Y-89394312D01*
X64468140Y-89384819D01*
X64468123Y-89384818D01*
X64465009Y-89384500D01*
X64461860Y-89384500D01*
X60268140Y-89384500D01*
X60268120Y-89384500D01*
X60264992Y-89384501D01*
X60261863Y-89384820D01*
X60261855Y-89384821D01*
X60212689Y-89389843D01*
X60183896Y-89389423D01*
X60176828Y-89388492D01*
X60145568Y-89380115D01*
X60022581Y-89329172D01*
X59994548Y-89312987D01*
X59902604Y-89242437D01*
X59888936Y-89231949D01*
X59866050Y-89209063D01*
X59785012Y-89103451D01*
X59768827Y-89075418D01*
X59717884Y-88952431D01*
X59709506Y-88921164D01*
X59692130Y-88789179D01*
X59692130Y-88756821D01*
X59709506Y-88624833D01*
X59717884Y-88593568D01*
X59768827Y-88470581D01*
X59785012Y-88442548D01*
X59866053Y-88336932D01*
X59888932Y-88314053D01*
X59994549Y-88233010D01*
X60022579Y-88216827D01*
X60145569Y-88165883D01*
X60176835Y-88157506D01*
X60316940Y-88139061D01*
X60333126Y-88138000D01*
X64638947Y-88138000D01*
X64643000Y-88138000D01*
X65278000Y-88138000D01*
X65278000Y-87503000D01*
X65300411Y-87286266D01*
X65305630Y-87261299D01*
X65368016Y-87065944D01*
X65378232Y-87042579D01*
X65479273Y-86864124D01*
X65494050Y-86843346D01*
X65629470Y-86689338D01*
X65648185Y-86672025D01*
X65817400Y-86545125D01*
X65827988Y-86538006D01*
X68471410Y-84951954D01*
X68471410Y-84951953D01*
X69088000Y-84582000D01*
X69088000Y-82042000D01*
X65941565Y-79120310D01*
X65934387Y-79113073D01*
X65803998Y-78970324D01*
X65791543Y-78954208D01*
X65689067Y-78796317D01*
X65679423Y-78778384D01*
X65604188Y-78605855D01*
X65597606Y-78586575D01*
X65551637Y-78404056D01*
X65548301Y-78383957D01*
X65532419Y-78191275D01*
X65532000Y-78181089D01*
X65532000Y-76459412D01*
X65532472Y-76448605D01*
X65550348Y-76244275D01*
X65550349Y-76244274D01*
X65550348Y-76244270D01*
X65554099Y-76222996D01*
X65605783Y-76030107D01*
X65613175Y-76009801D01*
X65697562Y-75828834D01*
X65708369Y-75810116D01*
X65822904Y-75646543D01*
X65836792Y-75629991D01*
X65977991Y-75488792D01*
X65994543Y-75474904D01*
X66158116Y-75360369D01*
X66176831Y-75349563D01*
X66357803Y-75265174D01*
X66378107Y-75257783D01*
X66570996Y-75206099D01*
X66592270Y-75202348D01*
X66796604Y-75184472D01*
X66807412Y-75184000D01*
X80512588Y-75184000D01*
X80523395Y-75184472D01*
G37*
%TD.AperFunction*%
%TD*%
%TA.AperFunction,Conductor*%
%TO.N,Net-(J1-Pin_1)*%
G36*
X60863335Y-75946290D02*
G01*
X61124009Y-75964191D01*
X61140816Y-75966511D01*
X61392416Y-76019004D01*
X61408761Y-76023602D01*
X61650826Y-76109997D01*
X61666385Y-76116784D01*
X61894366Y-76235456D01*
X61908859Y-76244313D01*
X62118464Y-76393024D01*
X62131612Y-76403778D01*
X62170993Y-76440774D01*
X62318938Y-76579761D01*
X62330485Y-76592205D01*
X62491992Y-76792139D01*
X62501731Y-76806047D01*
X62634392Y-77026181D01*
X62642140Y-77041291D01*
X62743459Y-77277481D01*
X62749072Y-77293517D01*
X62817156Y-77541343D01*
X62820524Y-77557997D01*
X62854646Y-77817021D01*
X62855467Y-77825481D01*
X62863276Y-77950428D01*
X62992000Y-80010000D01*
X63458059Y-80527843D01*
X63459437Y-80529374D01*
X64761555Y-81976173D01*
X64767380Y-81983144D01*
X64938463Y-82203794D01*
X64948507Y-82218916D01*
X65083299Y-82458222D01*
X65091028Y-82474652D01*
X65189428Y-82731077D01*
X65194675Y-82748460D01*
X65254573Y-83016514D01*
X65257224Y-83034477D01*
X65277667Y-83312936D01*
X65278000Y-83322015D01*
X65278000Y-83559907D01*
X65277403Y-83572061D01*
X65259675Y-83752056D01*
X65254933Y-83775897D01*
X65204206Y-83943121D01*
X65194903Y-83965580D01*
X65112530Y-84119687D01*
X65099025Y-84139898D01*
X64988168Y-84274978D01*
X64970979Y-84292167D01*
X64897499Y-84352470D01*
X64852378Y-84375993D01*
X64801608Y-84379413D01*
X64753739Y-84362155D01*
X64740480Y-84353977D01*
X64734334Y-84350186D01*
X64695715Y-84337389D01*
X64574225Y-84297131D01*
X64574224Y-84297130D01*
X64567797Y-84295001D01*
X64561064Y-84294313D01*
X64561059Y-84294312D01*
X64468140Y-84284819D01*
X64468123Y-84284818D01*
X64465009Y-84284500D01*
X64461860Y-84284500D01*
X60268140Y-84284500D01*
X60268120Y-84284500D01*
X60264992Y-84284501D01*
X60261860Y-84284820D01*
X60261858Y-84284821D01*
X60168938Y-84294312D01*
X60168928Y-84294313D01*
X60162203Y-84295001D01*
X60155780Y-84297129D01*
X60155772Y-84297131D01*
X60051762Y-84331596D01*
X60001625Y-84337389D01*
X59953332Y-84322722D01*
X59854504Y-84268758D01*
X59839621Y-84259193D01*
X59625376Y-84098811D01*
X59612005Y-84087225D01*
X59422774Y-83897994D01*
X59411188Y-83884624D01*
X59329796Y-83775897D01*
X59250802Y-83670375D01*
X59241244Y-83655501D01*
X59112987Y-83420616D01*
X59105638Y-83404524D01*
X59071477Y-83312936D01*
X59012108Y-83153762D01*
X59007129Y-83136803D01*
X58950241Y-82875291D01*
X58947724Y-82857785D01*
X58928316Y-82586418D01*
X58928000Y-82577572D01*
X58928000Y-80903053D01*
X58928000Y-80899000D01*
X58928000Y-80264000D01*
X58293000Y-80264000D01*
X58271765Y-80261204D01*
X58144835Y-80244493D01*
X58113568Y-80236115D01*
X57990581Y-80185172D01*
X57962548Y-80168987D01*
X57859245Y-80089721D01*
X57856936Y-80087949D01*
X57834050Y-80065063D01*
X57753012Y-79959451D01*
X57736827Y-79931418D01*
X57685884Y-79808431D01*
X57677506Y-79777163D01*
X57659061Y-79637059D01*
X57658000Y-79620874D01*
X57658000Y-77950428D01*
X57658316Y-77941582D01*
X57659131Y-77930180D01*
X57677724Y-77670207D01*
X57680240Y-77652710D01*
X57737130Y-77391192D01*
X57742107Y-77374241D01*
X57835640Y-77123470D01*
X57842985Y-77107388D01*
X57971248Y-76872491D01*
X57980798Y-76857630D01*
X58141195Y-76643366D01*
X58152767Y-76630012D01*
X58342012Y-76440767D01*
X58355366Y-76429195D01*
X58569630Y-76268798D01*
X58584491Y-76259248D01*
X58819388Y-76130985D01*
X58835470Y-76123640D01*
X59086241Y-76030107D01*
X59103192Y-76025130D01*
X59364710Y-75968240D01*
X59382207Y-75965724D01*
X59653581Y-75946316D01*
X59662428Y-75946000D01*
X60854841Y-75946000D01*
X60863335Y-75946290D01*
G37*
%TD.AperFunction*%
%TD*%
M02*
