%TF.GenerationSoftware,KiCad,Pcbnew,(7.0.0)*%
%TF.CreationDate,2024-02-26T20:32:27-08:00*%
%TF.ProjectId,Blutooth_Serial,426c7574-6f6f-4746-985f-53657269616c,rev?*%
%TF.SameCoordinates,Original*%
%TF.FileFunction,Paste,Top*%
%TF.FilePolarity,Positive*%
%FSLAX46Y46*%
G04 Gerber Fmt 4.6, Leading zero omitted, Abs format (unit mm)*
G04 Created by KiCad (PCBNEW (7.0.0)) date 2024-02-26 20:32:27*
%MOMM*%
%LPD*%
G01*
G04 APERTURE LIST*
G04 Aperture macros list*
%AMRoundRect*
0 Rectangle with rounded corners*
0 $1 Rounding radius*
0 $2 $3 $4 $5 $6 $7 $8 $9 X,Y pos of 4 corners*
0 Add a 4 corners polygon primitive as box body*
4,1,4,$2,$3,$4,$5,$6,$7,$8,$9,$2,$3,0*
0 Add four circle primitives for the rounded corners*
1,1,$1+$1,$2,$3*
1,1,$1+$1,$4,$5*
1,1,$1+$1,$6,$7*
1,1,$1+$1,$8,$9*
0 Add four rect primitives between the rounded corners*
20,1,$1+$1,$2,$3,$4,$5,0*
20,1,$1+$1,$4,$5,$6,$7,0*
20,1,$1+$1,$6,$7,$8,$9,0*
20,1,$1+$1,$8,$9,$2,$3,0*%
G04 Aperture macros list end*
%ADD10RoundRect,0.243750X0.456250X-0.243750X0.456250X0.243750X-0.456250X0.243750X-0.456250X-0.243750X0*%
%ADD11RoundRect,0.250000X2.050000X0.300000X-2.050000X0.300000X-2.050000X-0.300000X2.050000X-0.300000X0*%
%ADD12RoundRect,0.250000X2.025000X2.375000X-2.025000X2.375000X-2.025000X-2.375000X2.025000X-2.375000X0*%
%ADD13R,1.700000X3.600000*%
%ADD14R,2.800000X6.800000*%
%ADD15R,5.650000X2.350000*%
%ADD16RoundRect,0.250000X-0.475000X0.250000X-0.475000X-0.250000X0.475000X-0.250000X0.475000X0.250000X0*%
%ADD17RoundRect,0.250000X0.250000X0.475000X-0.250000X0.475000X-0.250000X-0.475000X0.250000X-0.475000X0*%
%ADD18R,1.525000X0.650000*%
%ADD19R,3.000000X5.494000*%
G04 APERTURE END LIST*
D10*
%TO.C,D1*%
X65278000Y-86027500D03*
X65278000Y-84152500D03*
%TD*%
D11*
%TO.C,U1*%
X59557000Y-87455000D03*
X59557000Y-85755000D03*
X59557000Y-84055000D03*
D12*
X52832000Y-86830000D03*
X52832000Y-81280000D03*
X47982000Y-86830000D03*
X47982000Y-81280000D03*
D11*
X59557000Y-82355000D03*
X59557000Y-80655000D03*
%TD*%
D13*
%TO.C,C7*%
X53284999Y-106679999D03*
D14*
X55534999Y-106979999D03*
D13*
X57784999Y-106679999D03*
X53284999Y-94679999D03*
D14*
X55534999Y-94379999D03*
D13*
X57784999Y-94679999D03*
%TD*%
D15*
%TO.C,C1*%
X58189999Y-70484999D03*
X48489999Y-70484999D03*
%TD*%
D16*
%TO.C,C3*%
X70485000Y-79380000D03*
X70485000Y-81280000D03*
%TD*%
%TO.C,C4*%
X73914000Y-79380000D03*
X73914000Y-81280000D03*
%TD*%
%TO.C,C5*%
X73914000Y-83886000D03*
X73914000Y-85786000D03*
%TD*%
%TO.C,C6*%
X73914000Y-88204000D03*
X73914000Y-90104000D03*
%TD*%
D17*
%TO.C,C2*%
X81534000Y-76708000D03*
X79634000Y-76708000D03*
%TD*%
D18*
%TO.C,U2*%
X77805999Y-80517999D03*
X77805999Y-81787999D03*
X77805999Y-83057999D03*
X77805999Y-84327999D03*
X77805999Y-85597999D03*
X77805999Y-86867999D03*
X77805999Y-88137999D03*
X77805999Y-89407999D03*
X83229999Y-89407999D03*
X83229999Y-88137999D03*
X83229999Y-86867999D03*
X83229999Y-85597999D03*
X83229999Y-84327999D03*
X83229999Y-83057999D03*
X83229999Y-81787999D03*
X83229999Y-80517999D03*
%TD*%
D19*
%TO.C,L1*%
X64294999Y-70484999D03*
X74294999Y-70484999D03*
%TD*%
M02*
