%TF.GenerationSoftware,KiCad,Pcbnew,(7.0.0)*%
%TF.CreationDate,2024-02-26T20:32:27-08:00*%
%TF.ProjectId,Blutooth_Serial,426c7574-6f6f-4746-985f-53657269616c,rev?*%
%TF.SameCoordinates,Original*%
%TF.FileFunction,Copper,L2,Bot*%
%TF.FilePolarity,Positive*%
%FSLAX46Y46*%
G04 Gerber Fmt 4.6, Leading zero omitted, Abs format (unit mm)*
G04 Created by KiCad (PCBNEW (7.0.0)) date 2024-02-26 20:32:27*
%MOMM*%
%LPD*%
G01*
G04 APERTURE LIST*
%TA.AperFunction,ComponentPad*%
%ADD10C,1.509000*%
%TD*%
%TA.AperFunction,ComponentPad*%
%ADD11R,1.700000X1.700000*%
%TD*%
%TA.AperFunction,ComponentPad*%
%ADD12O,1.700000X1.700000*%
%TD*%
%TA.AperFunction,ViaPad*%
%ADD13C,0.800000*%
%TD*%
%TA.AperFunction,Conductor*%
%ADD14C,0.250000*%
%TD*%
G04 APERTURE END LIST*
D10*
%TO.P,J1,1,Pin_1*%
%TO.N,+24V*%
X74930000Y-102175000D03*
%TO.P,J1,2,Pin_2*%
%TO.N,GND*%
X77470000Y-102175000D03*
%TO.P,J1,3,Pin_3*%
%TO.N,Net-(J1-Pin_3)*%
X80010000Y-102175000D03*
%TO.P,J1,4,Pin_4*%
%TO.N,Net-(J1-Pin_4)*%
X82550000Y-102175000D03*
%TD*%
D11*
%TO.P,IC1,1,EN*%
%TO.N,unconnected-(IC1-EN-Pad1)*%
X96519999Y-66039999D03*
D12*
%TO.P,IC1,2,Vcc*%
%TO.N,Net-(IC1-Vcc)*%
X99059999Y-66039999D03*
%TO.P,IC1,3,GND*%
%TO.N,GND*%
X101599999Y-66039999D03*
%TO.P,IC1,4,TXD*%
%TO.N,T1IN*%
X104139999Y-66039999D03*
%TO.P,IC1,5,RXD*%
%TO.N,R1OUT*%
X106679999Y-66039999D03*
%TO.P,IC1,6,STATE*%
%TO.N,unconnected-(IC1-STATE-Pad6)*%
X109219999Y-66039999D03*
%TD*%
D13*
%TO.N,GND*%
X73406000Y-96520000D03*
X83058000Y-98806000D03*
X55626000Y-99060000D03*
X53848000Y-87884000D03*
X51308000Y-87884000D03*
X49276000Y-87884000D03*
X46990000Y-87884000D03*
X46990000Y-84074000D03*
X49022000Y-84074000D03*
X51308000Y-84074000D03*
X54102000Y-83820000D03*
X53848000Y-80264000D03*
X51308000Y-80264000D03*
X49022000Y-80264000D03*
X46990000Y-80264000D03*
X101346000Y-98806000D03*
X68580000Y-81534000D03*
X65786000Y-81534000D03*
X77724000Y-76708000D03*
X72390000Y-81534000D03*
%TO.N,Net-(J1-Pin_3)*%
X90932000Y-82550000D03*
%TO.N,Net-(J1-Pin_4)*%
X93472000Y-79248000D03*
X93472000Y-102108000D03*
%TO.N,Net-(J1-Pin_3)*%
X90932000Y-100330000D03*
%TO.N,GND*%
X85090000Y-80010000D03*
%TO.N,T1IN*%
X103378000Y-89408000D03*
%TD*%
D14*
%TO.N,Net-(J1-Pin_4)*%
X93472000Y-102108000D02*
X93472000Y-79248000D01*
%TO.N,GND*%
X74355000Y-99060000D02*
X55626000Y-99060000D01*
X77470000Y-102175000D02*
X74355000Y-99060000D01*
X80010000Y-78994000D02*
X84074000Y-78994000D01*
X77724000Y-76708000D02*
X80010000Y-78994000D01*
X84074000Y-78994000D02*
X85090000Y-80010000D01*
X101600000Y-98552000D02*
X101600000Y-66040000D01*
X101346000Y-98806000D02*
X101600000Y-98552000D01*
X68580000Y-81534000D02*
X65786000Y-81534000D01*
X72390000Y-81534000D02*
X68580000Y-81534000D01*
X73660000Y-76708000D02*
X77724000Y-76708000D01*
X72390000Y-77978000D02*
X73660000Y-76708000D01*
X72390000Y-81534000D02*
X72390000Y-77978000D01*
%TO.N,Net-(J1-Pin_3)*%
X90932000Y-100330000D02*
X90932000Y-82550000D01*
%TO.N,T1IN*%
X104140000Y-88646000D02*
X104140000Y-66040000D01*
X103378000Y-89408000D02*
X104140000Y-88646000D01*
%TD*%
%TA.AperFunction,Conductor*%
%TO.N,GND*%
G36*
X85536000Y-62247113D02*
G01*
X85581387Y-62292500D01*
X85598000Y-62354500D01*
X85598000Y-101345004D01*
X85597983Y-101347037D01*
X85429286Y-111637533D01*
X85412006Y-111698670D01*
X85366715Y-111743224D01*
X85305303Y-111759500D01*
X45724877Y-111759500D01*
X45715147Y-111759118D01*
X45710829Y-111758778D01*
X45663562Y-111755057D01*
X45662487Y-111754967D01*
X45522430Y-111742714D01*
X45504290Y-111739760D01*
X45425589Y-111720866D01*
X45422442Y-111720067D01*
X45317205Y-111691868D01*
X45301848Y-111686655D01*
X45221531Y-111653388D01*
X45216577Y-111651208D01*
X45187251Y-111637533D01*
X45123224Y-111607676D01*
X45110852Y-111601028D01*
X45063554Y-111572044D01*
X45034845Y-111554451D01*
X45028513Y-111550299D01*
X44993624Y-111525869D01*
X44945839Y-111492410D01*
X44936442Y-111485135D01*
X44868023Y-111426699D01*
X44860874Y-111420090D01*
X44789908Y-111349124D01*
X44783299Y-111341975D01*
X44762545Y-111317675D01*
X44724860Y-111273551D01*
X44717594Y-111264166D01*
X44659694Y-111181477D01*
X44655547Y-111175153D01*
X44608963Y-111099135D01*
X44602329Y-111086788D01*
X44558770Y-110993376D01*
X44556622Y-110988496D01*
X44523343Y-110908150D01*
X44518130Y-110892793D01*
X44489910Y-110787476D01*
X44489153Y-110784494D01*
X44470236Y-110705698D01*
X44467285Y-110687579D01*
X44455008Y-110547244D01*
X44454957Y-110546632D01*
X44450882Y-110494853D01*
X44450500Y-110485126D01*
X44450500Y-102175000D01*
X73670206Y-102175000D01*
X73670678Y-102180395D01*
X73688872Y-102388362D01*
X73688873Y-102388369D01*
X73689345Y-102393761D01*
X73690744Y-102398983D01*
X73690746Y-102398993D01*
X73744781Y-102600653D01*
X73744783Y-102600660D01*
X73746181Y-102605875D01*
X73838986Y-102804897D01*
X73842093Y-102809334D01*
X73961836Y-102980345D01*
X73961839Y-102980349D01*
X73964942Y-102984780D01*
X74120220Y-103140058D01*
X74300103Y-103266014D01*
X74499125Y-103358819D01*
X74504345Y-103360217D01*
X74504346Y-103360218D01*
X74706006Y-103414253D01*
X74706008Y-103414253D01*
X74711239Y-103415655D01*
X74930000Y-103434794D01*
X75148761Y-103415655D01*
X75360875Y-103358819D01*
X75559897Y-103266014D01*
X75739780Y-103140058D01*
X75895058Y-102984780D01*
X76021014Y-102804897D01*
X76113819Y-102605875D01*
X76170655Y-102393761D01*
X76189794Y-102175000D01*
X78750206Y-102175000D01*
X78750678Y-102180395D01*
X78768872Y-102388362D01*
X78768873Y-102388369D01*
X78769345Y-102393761D01*
X78770744Y-102398983D01*
X78770746Y-102398993D01*
X78824781Y-102600653D01*
X78824783Y-102600660D01*
X78826181Y-102605875D01*
X78918986Y-102804897D01*
X78922093Y-102809334D01*
X79041836Y-102980345D01*
X79041839Y-102980349D01*
X79044942Y-102984780D01*
X79200220Y-103140058D01*
X79380103Y-103266014D01*
X79579125Y-103358819D01*
X79584345Y-103360217D01*
X79584346Y-103360218D01*
X79786006Y-103414253D01*
X79786008Y-103414253D01*
X79791239Y-103415655D01*
X80010000Y-103434794D01*
X80228761Y-103415655D01*
X80440875Y-103358819D01*
X80639897Y-103266014D01*
X80819780Y-103140058D01*
X80975058Y-102984780D01*
X81101014Y-102804897D01*
X81167618Y-102662062D01*
X81213375Y-102609887D01*
X81280000Y-102590467D01*
X81346625Y-102609887D01*
X81392381Y-102662062D01*
X81458986Y-102804897D01*
X81462093Y-102809334D01*
X81581836Y-102980345D01*
X81581839Y-102980349D01*
X81584942Y-102984780D01*
X81740220Y-103140058D01*
X81920103Y-103266014D01*
X82119125Y-103358819D01*
X82124345Y-103360217D01*
X82124346Y-103360218D01*
X82326006Y-103414253D01*
X82326008Y-103414253D01*
X82331239Y-103415655D01*
X82550000Y-103434794D01*
X82768761Y-103415655D01*
X82980875Y-103358819D01*
X83179897Y-103266014D01*
X83359780Y-103140058D01*
X83515058Y-102984780D01*
X83641014Y-102804897D01*
X83733819Y-102605875D01*
X83790655Y-102393761D01*
X83809794Y-102175000D01*
X83790655Y-101956239D01*
X83733819Y-101744125D01*
X83641014Y-101545103D01*
X83515058Y-101365220D01*
X83359780Y-101209942D01*
X83355349Y-101206839D01*
X83355345Y-101206836D01*
X83184334Y-101087093D01*
X83184335Y-101087093D01*
X83179897Y-101083986D01*
X82980875Y-100991181D01*
X82975660Y-100989783D01*
X82975653Y-100989781D01*
X82773993Y-100935746D01*
X82773983Y-100935744D01*
X82768761Y-100934345D01*
X82763369Y-100933873D01*
X82763362Y-100933872D01*
X82555395Y-100915678D01*
X82550000Y-100915206D01*
X82544605Y-100915678D01*
X82336637Y-100933872D01*
X82336628Y-100933873D01*
X82331239Y-100934345D01*
X82326018Y-100935743D01*
X82326006Y-100935746D01*
X82124346Y-100989781D01*
X82124335Y-100989784D01*
X82119125Y-100991181D01*
X82114224Y-100993465D01*
X82114222Y-100993467D01*
X81925017Y-101081694D01*
X81925011Y-101081696D01*
X81920103Y-101083986D01*
X81915669Y-101087090D01*
X81915665Y-101087093D01*
X81744654Y-101206836D01*
X81744644Y-101206843D01*
X81740220Y-101209942D01*
X81736394Y-101213767D01*
X81736388Y-101213773D01*
X81588773Y-101361388D01*
X81588767Y-101361394D01*
X81584942Y-101365220D01*
X81581843Y-101369644D01*
X81581836Y-101369654D01*
X81462093Y-101540665D01*
X81462090Y-101540669D01*
X81458986Y-101545103D01*
X81456698Y-101550009D01*
X81456696Y-101550013D01*
X81392382Y-101687937D01*
X81346625Y-101740113D01*
X81280000Y-101759532D01*
X81213375Y-101740113D01*
X81167618Y-101687937D01*
X81103305Y-101550017D01*
X81101014Y-101545103D01*
X80975058Y-101365220D01*
X80819780Y-101209942D01*
X80815349Y-101206839D01*
X80815345Y-101206836D01*
X80644334Y-101087093D01*
X80644335Y-101087093D01*
X80639897Y-101083986D01*
X80440875Y-100991181D01*
X80435660Y-100989783D01*
X80435653Y-100989781D01*
X80233993Y-100935746D01*
X80233983Y-100935744D01*
X80228761Y-100934345D01*
X80223369Y-100933873D01*
X80223362Y-100933872D01*
X80015395Y-100915678D01*
X80010000Y-100915206D01*
X80004605Y-100915678D01*
X79796637Y-100933872D01*
X79796628Y-100933873D01*
X79791239Y-100934345D01*
X79786018Y-100935743D01*
X79786006Y-100935746D01*
X79584346Y-100989781D01*
X79584335Y-100989784D01*
X79579125Y-100991181D01*
X79574224Y-100993465D01*
X79574222Y-100993467D01*
X79385017Y-101081694D01*
X79385011Y-101081696D01*
X79380103Y-101083986D01*
X79375669Y-101087090D01*
X79375665Y-101087093D01*
X79204654Y-101206836D01*
X79204644Y-101206843D01*
X79200220Y-101209942D01*
X79196394Y-101213767D01*
X79196388Y-101213773D01*
X79048773Y-101361388D01*
X79048767Y-101361394D01*
X79044942Y-101365220D01*
X79041843Y-101369644D01*
X79041836Y-101369654D01*
X78922093Y-101540665D01*
X78922090Y-101540669D01*
X78918986Y-101545103D01*
X78916696Y-101550011D01*
X78916694Y-101550017D01*
X78828467Y-101739222D01*
X78826181Y-101744125D01*
X78824784Y-101749335D01*
X78824781Y-101749346D01*
X78770746Y-101951006D01*
X78770743Y-101951018D01*
X78769345Y-101956239D01*
X78768873Y-101961628D01*
X78768872Y-101961637D01*
X78750710Y-102169236D01*
X78750206Y-102175000D01*
X76189794Y-102175000D01*
X76170655Y-101956239D01*
X76113819Y-101744125D01*
X76021014Y-101545103D01*
X75895058Y-101365220D01*
X75739780Y-101209942D01*
X75735349Y-101206839D01*
X75735345Y-101206836D01*
X75564334Y-101087093D01*
X75564335Y-101087093D01*
X75559897Y-101083986D01*
X75360875Y-100991181D01*
X75355660Y-100989783D01*
X75355653Y-100989781D01*
X75153993Y-100935746D01*
X75153983Y-100935744D01*
X75148761Y-100934345D01*
X75143369Y-100933873D01*
X75143362Y-100933872D01*
X74935395Y-100915678D01*
X74930000Y-100915206D01*
X74924605Y-100915678D01*
X74716637Y-100933872D01*
X74716628Y-100933873D01*
X74711239Y-100934345D01*
X74706018Y-100935743D01*
X74706006Y-100935746D01*
X74504346Y-100989781D01*
X74504335Y-100989784D01*
X74499125Y-100991181D01*
X74494224Y-100993465D01*
X74494222Y-100993467D01*
X74305017Y-101081694D01*
X74305011Y-101081696D01*
X74300103Y-101083986D01*
X74295669Y-101087090D01*
X74295665Y-101087093D01*
X74124654Y-101206836D01*
X74124644Y-101206843D01*
X74120220Y-101209942D01*
X74116394Y-101213767D01*
X74116388Y-101213773D01*
X73968773Y-101361388D01*
X73968767Y-101361394D01*
X73964942Y-101365220D01*
X73961843Y-101369644D01*
X73961836Y-101369654D01*
X73842093Y-101540665D01*
X73842090Y-101540669D01*
X73838986Y-101545103D01*
X73836696Y-101550011D01*
X73836694Y-101550017D01*
X73748467Y-101739222D01*
X73746181Y-101744125D01*
X73744784Y-101749335D01*
X73744781Y-101749346D01*
X73690746Y-101951006D01*
X73690743Y-101951018D01*
X73689345Y-101956239D01*
X73688873Y-101961628D01*
X73688872Y-101961637D01*
X73670710Y-102169236D01*
X73670206Y-102175000D01*
X44450500Y-102175000D01*
X44450500Y-63504874D01*
X44450882Y-63495148D01*
X44451335Y-63489382D01*
X44454959Y-63443342D01*
X44455005Y-63442790D01*
X44467286Y-63302416D01*
X44470235Y-63284305D01*
X44489162Y-63205469D01*
X44489901Y-63202559D01*
X44518133Y-63097196D01*
X44523343Y-63081848D01*
X44556637Y-63001469D01*
X44558754Y-62996656D01*
X44602336Y-62903196D01*
X44608954Y-62890878D01*
X44655572Y-62814806D01*
X44659673Y-62808552D01*
X44717608Y-62725812D01*
X44724843Y-62716468D01*
X44783323Y-62647996D01*
X44789883Y-62640900D01*
X44860900Y-62569883D01*
X44867996Y-62563323D01*
X44936468Y-62504843D01*
X44945812Y-62497608D01*
X45028552Y-62439673D01*
X45034806Y-62435572D01*
X45110878Y-62388954D01*
X45123196Y-62382336D01*
X45216656Y-62338754D01*
X45221469Y-62336637D01*
X45301853Y-62303341D01*
X45317196Y-62298133D01*
X45422559Y-62269901D01*
X45425469Y-62269162D01*
X45504305Y-62250235D01*
X45522416Y-62247286D01*
X45662790Y-62235005D01*
X45663342Y-62234959D01*
X45709382Y-62231335D01*
X45715148Y-62230882D01*
X45724874Y-62230500D01*
X85474000Y-62230500D01*
X85536000Y-62247113D01*
G37*
%TD.AperFunction*%
%TD*%
M02*
