%TF.GenerationSoftware,KiCad,Pcbnew,(7.0.0)*%
%TF.CreationDate,2023-12-28T02:06:20-08:00*%
%TF.ProjectId,Blutooth_Serial,426c7574-6f6f-4746-985f-53657269616c,rev?*%
%TF.SameCoordinates,Original*%
%TF.FileFunction,Copper,L2,Bot*%
%TF.FilePolarity,Positive*%
%FSLAX46Y46*%
G04 Gerber Fmt 4.6, Leading zero omitted, Abs format (unit mm)*
G04 Created by KiCad (PCBNEW (7.0.0)) date 2023-12-28 02:06:20*
%MOMM*%
%LPD*%
G01*
G04 APERTURE LIST*
G04 Aperture macros list*
%AMRoundRect*
0 Rectangle with rounded corners*
0 $1 Rounding radius*
0 $2 $3 $4 $5 $6 $7 $8 $9 X,Y pos of 4 corners*
0 Add a 4 corners polygon primitive as box body*
4,1,4,$2,$3,$4,$5,$6,$7,$8,$9,$2,$3,0*
0 Add four circle primitives for the rounded corners*
1,1,$1+$1,$2,$3*
1,1,$1+$1,$4,$5*
1,1,$1+$1,$6,$7*
1,1,$1+$1,$8,$9*
0 Add four rect primitives between the rounded corners*
20,1,$1+$1,$2,$3,$4,$5,0*
20,1,$1+$1,$4,$5,$6,$7,0*
20,1,$1+$1,$6,$7,$8,$9,0*
20,1,$1+$1,$8,$9,$2,$3,0*%
G04 Aperture macros list end*
%TA.AperFunction,ComponentPad*%
%ADD10C,1.700000*%
%TD*%
%TA.AperFunction,ComponentPad*%
%ADD11O,1.700000X1.700000*%
%TD*%
%TA.AperFunction,ComponentPad*%
%ADD12RoundRect,0.250002X-1.699998X-1.699998X1.699998X-1.699998X1.699998X1.699998X-1.699998X1.699998X0*%
%TD*%
%TA.AperFunction,ComponentPad*%
%ADD13O,3.200000X3.200000*%
%TD*%
%TA.AperFunction,ComponentPad*%
%ADD14R,3.200000X3.200000*%
%TD*%
%TA.AperFunction,ComponentPad*%
%ADD15C,1.600000*%
%TD*%
%TA.AperFunction,ViaPad*%
%ADD16C,0.800000*%
%TD*%
G04 APERTURE END LIST*
D10*
%TO.P,REF\u002A\u002A,1*%
%TO.N,unconnected-(IC1-EN-Pad1)*%
X88900000Y-65786000D03*
D11*
%TO.P,REF\u002A\u002A,2*%
%TO.N,3.3V*%
X91439999Y-65785999D03*
%TO.P,REF\u002A\u002A,3*%
%TO.N,GND*%
X93979999Y-65785999D03*
%TO.P,REF\u002A\u002A,4*%
%TO.N,unconnected-(IC1-TXD-Pad4)*%
X96519999Y-65785999D03*
%TO.P,REF\u002A\u002A,5*%
%TO.N,unconnected-(IC1-RXD-Pad5)*%
X99059999Y-65785999D03*
%TO.P,REF\u002A\u002A,6*%
%TO.N,unconnected-(IC1-STATE-Pad6)*%
X101599999Y-65785999D03*
%TD*%
D12*
%TO.P,VIN+,1*%
%TO.N,+24V*%
X70104000Y-107950000D03*
%TD*%
%TO.P,GND,1*%
%TO.N,GND*%
X49784000Y-107950000D03*
%TD*%
D11*
%TO.P,IC1,6,STATE*%
%TO.N,unconnected-(IC1-STATE-Pad6)*%
X101624999Y-70524499D03*
%TO.P,IC1,5,RXD*%
%TO.N,unconnected-(IC1-RXD-Pad5)*%
X99084999Y-70524499D03*
%TO.P,IC1,4,TXD*%
%TO.N,unconnected-(IC1-TXD-Pad4)*%
X96544999Y-70524499D03*
%TO.P,IC1,3,GND*%
%TO.N,GND*%
X94004999Y-70524499D03*
%TO.P,IC1,2,Vcc*%
%TO.N,3.3V*%
X91464999Y-70524499D03*
D10*
%TO.P,IC1,1,EN*%
%TO.N,unconnected-(IC1-EN-Pad1)*%
X88925000Y-70524500D03*
%TD*%
%TO.P,J1,1,Pin_1*%
%TO.N,Net-(J1-Pin_1)*%
X60198000Y-78232000D03*
%TD*%
D13*
%TO.P,D2,2,A*%
%TO.N,GND*%
X72589999Y-97119999D03*
D14*
%TO.P,D2,1,K*%
%TO.N,Net-(D2-K)*%
X72589999Y-81879999D03*
%TD*%
D15*
%TO.P,C2,2*%
%TO.N,GND*%
X54102000Y-73660000D03*
%TO.P,C2,1*%
%TO.N,3.3V*%
X54102000Y-68660000D03*
%TD*%
%TO.P,C1,2*%
%TO.N,GND*%
X55280000Y-99560000D03*
%TO.P,C1,1*%
%TO.N,+24V*%
X60280000Y-99560000D03*
%TD*%
D16*
%TO.N,GND*%
X53086000Y-89662000D03*
X52832000Y-85344000D03*
X49784000Y-87630000D03*
X49784000Y-91694000D03*
X56134000Y-91440000D03*
X56134000Y-88138000D03*
X55880000Y-83566000D03*
X49784000Y-83312000D03*
%TD*%
%TA.AperFunction,Conductor*%
%TO.N,GND*%
G36*
X103643110Y-63246972D02*
G01*
X103841727Y-63264348D01*
X103863004Y-63268099D01*
X104055888Y-63319782D01*
X104076198Y-63327175D01*
X104257165Y-63411562D01*
X104275883Y-63422369D01*
X104439456Y-63536904D01*
X104456014Y-63550798D01*
X104597201Y-63691985D01*
X104611095Y-63708543D01*
X104725630Y-63872116D01*
X104736437Y-63890834D01*
X104820824Y-64071801D01*
X104828217Y-64092112D01*
X104879898Y-64284988D01*
X104883651Y-64306274D01*
X104901028Y-64504889D01*
X104901500Y-64515697D01*
X104901500Y-110744303D01*
X104901028Y-110755111D01*
X104883651Y-110953725D01*
X104879898Y-110975011D01*
X104828217Y-111167887D01*
X104820824Y-111188198D01*
X104736437Y-111369165D01*
X104725630Y-111387883D01*
X104611095Y-111551456D01*
X104597201Y-111568014D01*
X104456014Y-111709201D01*
X104439456Y-111723095D01*
X104275883Y-111837630D01*
X104257165Y-111848437D01*
X104076198Y-111932824D01*
X104055887Y-111940217D01*
X103863011Y-111991898D01*
X103841725Y-111995651D01*
X103667425Y-112010900D01*
X103643109Y-112013028D01*
X103632303Y-112013500D01*
X45719697Y-112013500D01*
X45708890Y-112013028D01*
X45680795Y-112010570D01*
X45510274Y-111995651D01*
X45488988Y-111991898D01*
X45296112Y-111940217D01*
X45275801Y-111932824D01*
X45094834Y-111848437D01*
X45076116Y-111837630D01*
X44912543Y-111723095D01*
X44895985Y-111709201D01*
X44754798Y-111568014D01*
X44740904Y-111551456D01*
X44626369Y-111387883D01*
X44615562Y-111369165D01*
X44531175Y-111188198D01*
X44523782Y-111167887D01*
X44472099Y-110975004D01*
X44468348Y-110953724D01*
X44450972Y-110755110D01*
X44450500Y-110744303D01*
X44450500Y-109696876D01*
X67653500Y-109696876D01*
X67653501Y-109700006D01*
X67653820Y-109703138D01*
X67653821Y-109703139D01*
X67663312Y-109796060D01*
X67663313Y-109796068D01*
X67664001Y-109802796D01*
X67719186Y-109969333D01*
X67811289Y-110118655D01*
X67935345Y-110242711D01*
X68084667Y-110334814D01*
X68251204Y-110389999D01*
X68353993Y-110400500D01*
X71854006Y-110400499D01*
X71956796Y-110389999D01*
X72123333Y-110334814D01*
X72272655Y-110242711D01*
X72396711Y-110118655D01*
X72488814Y-109969333D01*
X72543999Y-109802796D01*
X72554500Y-109700007D01*
X72554499Y-106199994D01*
X72543999Y-106097204D01*
X72488814Y-105930667D01*
X72396711Y-105781345D01*
X72272655Y-105657289D01*
X72123333Y-105565186D01*
X72116481Y-105562915D01*
X72116478Y-105562914D01*
X71963224Y-105512131D01*
X71963223Y-105512130D01*
X71956796Y-105510001D01*
X71950063Y-105509313D01*
X71950058Y-105509312D01*
X71857138Y-105499819D01*
X71857121Y-105499818D01*
X71854007Y-105499500D01*
X71850858Y-105499500D01*
X68357142Y-105499500D01*
X68357122Y-105499500D01*
X68353994Y-105499501D01*
X68350862Y-105499820D01*
X68350860Y-105499821D01*
X68257939Y-105509312D01*
X68257929Y-105509313D01*
X68251204Y-105510001D01*
X68244782Y-105512128D01*
X68244777Y-105512130D01*
X68091521Y-105562914D01*
X68091515Y-105562916D01*
X68084667Y-105565186D01*
X67935345Y-105657289D01*
X67930237Y-105662396D01*
X67930233Y-105662400D01*
X67816400Y-105776233D01*
X67816396Y-105776237D01*
X67811289Y-105781345D01*
X67719186Y-105930667D01*
X67716916Y-105937515D01*
X67716914Y-105937521D01*
X67666131Y-106090775D01*
X67664001Y-106097204D01*
X67663313Y-106103934D01*
X67663312Y-106103941D01*
X67653819Y-106196861D01*
X67653818Y-106196879D01*
X67653500Y-106199993D01*
X67653500Y-106203140D01*
X67653500Y-106203141D01*
X67653500Y-109696857D01*
X67653500Y-109696876D01*
X44450500Y-109696876D01*
X44450500Y-99560000D01*
X58974532Y-99560000D01*
X58994365Y-99786692D01*
X58995762Y-99791907D01*
X58995764Y-99791916D01*
X59051858Y-100001263D01*
X59051861Y-100001271D01*
X59053261Y-100006496D01*
X59149432Y-100212734D01*
X59279953Y-100399139D01*
X59440861Y-100560047D01*
X59627266Y-100690568D01*
X59833504Y-100786739D01*
X60053308Y-100845635D01*
X60280000Y-100865468D01*
X60506692Y-100845635D01*
X60726496Y-100786739D01*
X60932734Y-100690568D01*
X61119139Y-100560047D01*
X61280047Y-100399139D01*
X61410568Y-100212734D01*
X61506739Y-100006496D01*
X61565635Y-99786692D01*
X61585468Y-99560000D01*
X61565635Y-99333308D01*
X61506739Y-99113504D01*
X61410568Y-98907266D01*
X61280047Y-98720861D01*
X61119139Y-98559953D01*
X60932734Y-98429432D01*
X60726496Y-98333261D01*
X60721271Y-98331861D01*
X60721263Y-98331858D01*
X60511916Y-98275764D01*
X60511907Y-98275762D01*
X60506692Y-98274365D01*
X60501304Y-98273893D01*
X60501301Y-98273893D01*
X60285395Y-98255004D01*
X60280000Y-98254532D01*
X60274605Y-98255004D01*
X60058698Y-98273893D01*
X60058693Y-98273893D01*
X60053308Y-98274365D01*
X60048094Y-98275762D01*
X60048083Y-98275764D01*
X59838736Y-98331858D01*
X59838724Y-98331862D01*
X59833504Y-98333261D01*
X59828599Y-98335547D01*
X59828594Y-98335550D01*
X59632176Y-98427142D01*
X59632172Y-98427144D01*
X59627266Y-98429432D01*
X59622833Y-98432535D01*
X59622826Y-98432540D01*
X59445296Y-98556847D01*
X59445291Y-98556850D01*
X59440861Y-98559953D01*
X59437037Y-98563776D01*
X59437031Y-98563782D01*
X59283782Y-98717031D01*
X59283776Y-98717037D01*
X59279953Y-98720861D01*
X59276850Y-98725291D01*
X59276847Y-98725296D01*
X59152540Y-98902826D01*
X59152535Y-98902833D01*
X59149432Y-98907266D01*
X59147144Y-98912172D01*
X59147142Y-98912176D01*
X59055550Y-99108594D01*
X59055547Y-99108599D01*
X59053261Y-99113504D01*
X59051862Y-99118724D01*
X59051858Y-99118736D01*
X58995764Y-99328083D01*
X58995762Y-99328094D01*
X58994365Y-99333308D01*
X58974532Y-99560000D01*
X44450500Y-99560000D01*
X44450500Y-83524578D01*
X70489500Y-83524578D01*
X70489501Y-83527872D01*
X70489853Y-83531150D01*
X70489854Y-83531161D01*
X70495079Y-83579768D01*
X70495080Y-83579773D01*
X70495909Y-83587483D01*
X70498619Y-83594749D01*
X70498620Y-83594753D01*
X70532217Y-83684831D01*
X70546204Y-83722331D01*
X70632454Y-83837546D01*
X70747669Y-83923796D01*
X70882517Y-83974091D01*
X70942127Y-83980500D01*
X74237872Y-83980499D01*
X74297483Y-83974091D01*
X74432331Y-83923796D01*
X74547546Y-83837546D01*
X74633796Y-83722331D01*
X74684091Y-83587483D01*
X74690500Y-83527873D01*
X74690499Y-80232128D01*
X74684091Y-80172517D01*
X74633796Y-80037669D01*
X74547546Y-79922454D01*
X74432331Y-79836204D01*
X74297483Y-79785909D01*
X74289770Y-79785079D01*
X74289767Y-79785079D01*
X74241180Y-79779855D01*
X74241169Y-79779854D01*
X74237873Y-79779500D01*
X74234550Y-79779500D01*
X70945439Y-79779500D01*
X70945420Y-79779500D01*
X70942128Y-79779501D01*
X70938850Y-79779853D01*
X70938838Y-79779854D01*
X70890231Y-79785079D01*
X70890225Y-79785080D01*
X70882517Y-79785909D01*
X70875252Y-79788618D01*
X70875246Y-79788620D01*
X70755980Y-79833104D01*
X70755978Y-79833104D01*
X70747669Y-79836204D01*
X70740572Y-79841516D01*
X70740568Y-79841519D01*
X70639550Y-79917141D01*
X70639546Y-79917144D01*
X70632454Y-79922454D01*
X70627144Y-79929546D01*
X70627141Y-79929550D01*
X70551519Y-80030568D01*
X70551516Y-80030572D01*
X70546204Y-80037669D01*
X70543104Y-80045978D01*
X70543104Y-80045980D01*
X70498620Y-80165247D01*
X70498619Y-80165250D01*
X70495909Y-80172517D01*
X70495079Y-80180227D01*
X70495079Y-80180232D01*
X70489855Y-80228819D01*
X70489854Y-80228831D01*
X70489500Y-80232127D01*
X70489500Y-80235448D01*
X70489500Y-80235449D01*
X70489500Y-83524560D01*
X70489500Y-83524578D01*
X44450500Y-83524578D01*
X44450500Y-78232000D01*
X58842341Y-78232000D01*
X58862937Y-78467408D01*
X58864336Y-78472630D01*
X58864337Y-78472634D01*
X58922694Y-78690430D01*
X58922697Y-78690438D01*
X58924097Y-78695663D01*
X58926385Y-78700570D01*
X58926386Y-78700572D01*
X59021678Y-78904927D01*
X59021681Y-78904933D01*
X59023965Y-78909830D01*
X59027064Y-78914257D01*
X59027066Y-78914259D01*
X59156399Y-79098966D01*
X59156402Y-79098970D01*
X59159505Y-79103401D01*
X59326599Y-79270495D01*
X59520170Y-79406035D01*
X59734337Y-79505903D01*
X59962592Y-79567063D01*
X60198000Y-79587659D01*
X60433408Y-79567063D01*
X60661663Y-79505903D01*
X60875830Y-79406035D01*
X61069401Y-79270495D01*
X61236495Y-79103401D01*
X61372035Y-78909830D01*
X61471903Y-78695663D01*
X61533063Y-78467408D01*
X61553659Y-78232000D01*
X61533063Y-77996592D01*
X61471903Y-77768337D01*
X61372035Y-77554171D01*
X61236495Y-77360599D01*
X61069401Y-77193505D01*
X61064970Y-77190402D01*
X61064966Y-77190399D01*
X60880259Y-77061066D01*
X60880257Y-77061064D01*
X60875830Y-77057965D01*
X60870933Y-77055681D01*
X60870927Y-77055678D01*
X60666572Y-76960386D01*
X60666570Y-76960385D01*
X60661663Y-76958097D01*
X60656438Y-76956697D01*
X60656430Y-76956694D01*
X60438634Y-76898337D01*
X60438630Y-76898336D01*
X60433408Y-76896937D01*
X60428020Y-76896465D01*
X60428017Y-76896465D01*
X60203395Y-76876813D01*
X60198000Y-76876341D01*
X60192605Y-76876813D01*
X59967982Y-76896465D01*
X59967977Y-76896465D01*
X59962592Y-76896937D01*
X59957371Y-76898335D01*
X59957365Y-76898337D01*
X59739569Y-76956694D01*
X59739557Y-76956698D01*
X59734337Y-76958097D01*
X59729432Y-76960383D01*
X59729427Y-76960386D01*
X59525081Y-77055675D01*
X59525077Y-77055677D01*
X59520171Y-77057965D01*
X59515738Y-77061068D01*
X59515731Y-77061073D01*
X59331034Y-77190399D01*
X59331029Y-77190402D01*
X59326599Y-77193505D01*
X59322775Y-77197328D01*
X59322769Y-77197334D01*
X59163334Y-77356769D01*
X59163328Y-77356775D01*
X59159505Y-77360599D01*
X59156402Y-77365029D01*
X59156399Y-77365034D01*
X59027073Y-77549731D01*
X59027068Y-77549738D01*
X59023965Y-77554171D01*
X59021677Y-77559077D01*
X59021675Y-77559081D01*
X58926386Y-77763427D01*
X58926383Y-77763432D01*
X58924097Y-77768337D01*
X58922698Y-77773557D01*
X58922694Y-77773569D01*
X58864337Y-77991365D01*
X58864335Y-77991371D01*
X58862937Y-77996592D01*
X58842341Y-78232000D01*
X44450500Y-78232000D01*
X44450500Y-70524500D01*
X87569341Y-70524500D01*
X87589937Y-70759908D01*
X87591336Y-70765130D01*
X87591337Y-70765134D01*
X87649694Y-70982930D01*
X87649697Y-70982938D01*
X87651097Y-70988163D01*
X87653385Y-70993070D01*
X87653386Y-70993072D01*
X87748678Y-71197427D01*
X87748681Y-71197433D01*
X87750965Y-71202330D01*
X87754064Y-71206757D01*
X87754066Y-71206759D01*
X87883399Y-71391466D01*
X87883402Y-71391470D01*
X87886505Y-71395901D01*
X88053599Y-71562995D01*
X88247170Y-71698535D01*
X88461337Y-71798403D01*
X88689592Y-71859563D01*
X88925000Y-71880159D01*
X89160408Y-71859563D01*
X89388663Y-71798403D01*
X89602830Y-71698535D01*
X89796401Y-71562995D01*
X89963495Y-71395901D01*
X90093424Y-71210342D01*
X90137743Y-71171476D01*
X90195000Y-71157465D01*
X90252257Y-71171476D01*
X90296575Y-71210342D01*
X90423395Y-71391461D01*
X90423401Y-71391468D01*
X90426505Y-71395901D01*
X90593599Y-71562995D01*
X90787170Y-71698535D01*
X91001337Y-71798403D01*
X91229592Y-71859563D01*
X91465000Y-71880159D01*
X91700408Y-71859563D01*
X91928663Y-71798403D01*
X92142830Y-71698535D01*
X92336401Y-71562995D01*
X92503495Y-71395901D01*
X92639035Y-71202330D01*
X92738903Y-70988163D01*
X92800063Y-70759908D01*
X92820659Y-70524500D01*
X95189341Y-70524500D01*
X95209937Y-70759908D01*
X95211336Y-70765130D01*
X95211337Y-70765134D01*
X95269694Y-70982930D01*
X95269697Y-70982938D01*
X95271097Y-70988163D01*
X95273385Y-70993070D01*
X95273386Y-70993072D01*
X95368678Y-71197427D01*
X95368681Y-71197433D01*
X95370965Y-71202330D01*
X95374064Y-71206757D01*
X95374066Y-71206759D01*
X95503399Y-71391466D01*
X95503402Y-71391470D01*
X95506505Y-71395901D01*
X95673599Y-71562995D01*
X95867170Y-71698535D01*
X96081337Y-71798403D01*
X96309592Y-71859563D01*
X96545000Y-71880159D01*
X96780408Y-71859563D01*
X97008663Y-71798403D01*
X97222830Y-71698535D01*
X97416401Y-71562995D01*
X97583495Y-71395901D01*
X97713424Y-71210342D01*
X97757743Y-71171476D01*
X97815000Y-71157465D01*
X97872257Y-71171476D01*
X97916575Y-71210342D01*
X98043395Y-71391461D01*
X98043401Y-71391468D01*
X98046505Y-71395901D01*
X98213599Y-71562995D01*
X98407170Y-71698535D01*
X98621337Y-71798403D01*
X98849592Y-71859563D01*
X99085000Y-71880159D01*
X99320408Y-71859563D01*
X99548663Y-71798403D01*
X99762830Y-71698535D01*
X99956401Y-71562995D01*
X100123495Y-71395901D01*
X100253424Y-71210342D01*
X100297743Y-71171476D01*
X100355000Y-71157465D01*
X100412257Y-71171476D01*
X100456575Y-71210342D01*
X100583395Y-71391461D01*
X100583401Y-71391468D01*
X100586505Y-71395901D01*
X100753599Y-71562995D01*
X100947170Y-71698535D01*
X101161337Y-71798403D01*
X101389592Y-71859563D01*
X101625000Y-71880159D01*
X101860408Y-71859563D01*
X102088663Y-71798403D01*
X102302830Y-71698535D01*
X102496401Y-71562995D01*
X102663495Y-71395901D01*
X102799035Y-71202330D01*
X102898903Y-70988163D01*
X102960063Y-70759908D01*
X102980659Y-70524500D01*
X102960063Y-70289092D01*
X102898903Y-70060837D01*
X102799035Y-69846671D01*
X102663495Y-69653099D01*
X102496401Y-69486005D01*
X102491970Y-69482902D01*
X102491966Y-69482899D01*
X102307259Y-69353566D01*
X102307257Y-69353564D01*
X102302830Y-69350465D01*
X102297933Y-69348181D01*
X102297927Y-69348178D01*
X102093572Y-69252886D01*
X102093570Y-69252885D01*
X102088663Y-69250597D01*
X102083438Y-69249197D01*
X102083430Y-69249194D01*
X101865634Y-69190837D01*
X101865630Y-69190836D01*
X101860408Y-69189437D01*
X101855020Y-69188965D01*
X101855017Y-69188965D01*
X101630395Y-69169313D01*
X101625000Y-69168841D01*
X101619605Y-69169313D01*
X101394982Y-69188965D01*
X101394977Y-69188965D01*
X101389592Y-69189437D01*
X101384371Y-69190835D01*
X101384365Y-69190837D01*
X101166569Y-69249194D01*
X101166557Y-69249198D01*
X101161337Y-69250597D01*
X101156432Y-69252883D01*
X101156427Y-69252886D01*
X100952081Y-69348175D01*
X100952077Y-69348177D01*
X100947171Y-69350465D01*
X100942738Y-69353568D01*
X100942731Y-69353573D01*
X100758034Y-69482899D01*
X100758029Y-69482902D01*
X100753599Y-69486005D01*
X100749775Y-69489828D01*
X100749769Y-69489834D01*
X100590334Y-69649269D01*
X100590328Y-69649275D01*
X100586505Y-69653099D01*
X100583402Y-69657529D01*
X100583399Y-69657534D01*
X100456575Y-69838659D01*
X100412257Y-69877525D01*
X100355000Y-69891536D01*
X100297743Y-69877525D01*
X100253425Y-69838659D01*
X100126600Y-69657534D01*
X100123495Y-69653099D01*
X99956401Y-69486005D01*
X99951970Y-69482902D01*
X99951966Y-69482899D01*
X99767259Y-69353566D01*
X99767257Y-69353564D01*
X99762830Y-69350465D01*
X99757933Y-69348181D01*
X99757927Y-69348178D01*
X99553572Y-69252886D01*
X99553570Y-69252885D01*
X99548663Y-69250597D01*
X99543438Y-69249197D01*
X99543430Y-69249194D01*
X99325634Y-69190837D01*
X99325630Y-69190836D01*
X99320408Y-69189437D01*
X99315020Y-69188965D01*
X99315017Y-69188965D01*
X99090395Y-69169313D01*
X99085000Y-69168841D01*
X99079605Y-69169313D01*
X98854982Y-69188965D01*
X98854977Y-69188965D01*
X98849592Y-69189437D01*
X98844371Y-69190835D01*
X98844365Y-69190837D01*
X98626569Y-69249194D01*
X98626557Y-69249198D01*
X98621337Y-69250597D01*
X98616432Y-69252883D01*
X98616427Y-69252886D01*
X98412081Y-69348175D01*
X98412077Y-69348177D01*
X98407171Y-69350465D01*
X98402738Y-69353568D01*
X98402731Y-69353573D01*
X98218034Y-69482899D01*
X98218029Y-69482902D01*
X98213599Y-69486005D01*
X98209775Y-69489828D01*
X98209769Y-69489834D01*
X98050334Y-69649269D01*
X98050328Y-69649275D01*
X98046505Y-69653099D01*
X98043402Y-69657529D01*
X98043399Y-69657534D01*
X97916575Y-69838659D01*
X97872257Y-69877525D01*
X97815000Y-69891536D01*
X97757743Y-69877525D01*
X97713425Y-69838659D01*
X97586600Y-69657534D01*
X97583495Y-69653099D01*
X97416401Y-69486005D01*
X97411970Y-69482902D01*
X97411966Y-69482899D01*
X97227259Y-69353566D01*
X97227257Y-69353564D01*
X97222830Y-69350465D01*
X97217933Y-69348181D01*
X97217927Y-69348178D01*
X97013572Y-69252886D01*
X97013570Y-69252885D01*
X97008663Y-69250597D01*
X97003438Y-69249197D01*
X97003430Y-69249194D01*
X96785634Y-69190837D01*
X96785630Y-69190836D01*
X96780408Y-69189437D01*
X96775020Y-69188965D01*
X96775017Y-69188965D01*
X96550395Y-69169313D01*
X96545000Y-69168841D01*
X96539605Y-69169313D01*
X96314982Y-69188965D01*
X96314977Y-69188965D01*
X96309592Y-69189437D01*
X96304371Y-69190835D01*
X96304365Y-69190837D01*
X96086569Y-69249194D01*
X96086557Y-69249198D01*
X96081337Y-69250597D01*
X96076432Y-69252883D01*
X96076427Y-69252886D01*
X95872081Y-69348175D01*
X95872077Y-69348177D01*
X95867171Y-69350465D01*
X95862738Y-69353568D01*
X95862731Y-69353573D01*
X95678034Y-69482899D01*
X95678029Y-69482902D01*
X95673599Y-69486005D01*
X95669775Y-69489828D01*
X95669769Y-69489834D01*
X95510334Y-69649269D01*
X95510328Y-69649275D01*
X95506505Y-69653099D01*
X95503402Y-69657529D01*
X95503399Y-69657534D01*
X95374073Y-69842231D01*
X95374068Y-69842238D01*
X95370965Y-69846671D01*
X95368677Y-69851577D01*
X95368675Y-69851581D01*
X95273386Y-70055927D01*
X95273383Y-70055932D01*
X95271097Y-70060837D01*
X95269698Y-70066057D01*
X95269694Y-70066069D01*
X95211337Y-70283865D01*
X95211335Y-70283871D01*
X95209937Y-70289092D01*
X95189341Y-70524500D01*
X92820659Y-70524500D01*
X92800063Y-70289092D01*
X92738903Y-70060837D01*
X92639035Y-69846671D01*
X92503495Y-69653099D01*
X92336401Y-69486005D01*
X92331970Y-69482902D01*
X92331966Y-69482899D01*
X92147259Y-69353566D01*
X92147257Y-69353564D01*
X92142830Y-69350465D01*
X92137933Y-69348181D01*
X92137927Y-69348178D01*
X91933572Y-69252886D01*
X91933570Y-69252885D01*
X91928663Y-69250597D01*
X91923438Y-69249197D01*
X91923430Y-69249194D01*
X91705634Y-69190837D01*
X91705630Y-69190836D01*
X91700408Y-69189437D01*
X91695020Y-69188965D01*
X91695017Y-69188965D01*
X91470395Y-69169313D01*
X91465000Y-69168841D01*
X91459605Y-69169313D01*
X91234982Y-69188965D01*
X91234977Y-69188965D01*
X91229592Y-69189437D01*
X91224371Y-69190835D01*
X91224365Y-69190837D01*
X91006569Y-69249194D01*
X91006557Y-69249198D01*
X91001337Y-69250597D01*
X90996432Y-69252883D01*
X90996427Y-69252886D01*
X90792081Y-69348175D01*
X90792077Y-69348177D01*
X90787171Y-69350465D01*
X90782738Y-69353568D01*
X90782731Y-69353573D01*
X90598034Y-69482899D01*
X90598029Y-69482902D01*
X90593599Y-69486005D01*
X90589775Y-69489828D01*
X90589769Y-69489834D01*
X90430334Y-69649269D01*
X90430328Y-69649275D01*
X90426505Y-69653099D01*
X90423402Y-69657529D01*
X90423399Y-69657534D01*
X90296575Y-69838659D01*
X90252257Y-69877525D01*
X90195000Y-69891536D01*
X90137743Y-69877525D01*
X90093425Y-69838659D01*
X89966600Y-69657534D01*
X89963495Y-69653099D01*
X89796401Y-69486005D01*
X89791970Y-69482902D01*
X89791966Y-69482899D01*
X89607259Y-69353566D01*
X89607257Y-69353564D01*
X89602830Y-69350465D01*
X89597933Y-69348181D01*
X89597927Y-69348178D01*
X89393572Y-69252886D01*
X89393570Y-69252885D01*
X89388663Y-69250597D01*
X89383438Y-69249197D01*
X89383430Y-69249194D01*
X89165634Y-69190837D01*
X89165630Y-69190836D01*
X89160408Y-69189437D01*
X89155020Y-69188965D01*
X89155017Y-69188965D01*
X88930395Y-69169313D01*
X88925000Y-69168841D01*
X88919605Y-69169313D01*
X88694982Y-69188965D01*
X88694977Y-69188965D01*
X88689592Y-69189437D01*
X88684371Y-69190835D01*
X88684365Y-69190837D01*
X88466569Y-69249194D01*
X88466557Y-69249198D01*
X88461337Y-69250597D01*
X88456432Y-69252883D01*
X88456427Y-69252886D01*
X88252081Y-69348175D01*
X88252077Y-69348177D01*
X88247171Y-69350465D01*
X88242738Y-69353568D01*
X88242731Y-69353573D01*
X88058034Y-69482899D01*
X88058029Y-69482902D01*
X88053599Y-69486005D01*
X88049775Y-69489828D01*
X88049769Y-69489834D01*
X87890334Y-69649269D01*
X87890328Y-69649275D01*
X87886505Y-69653099D01*
X87883402Y-69657529D01*
X87883399Y-69657534D01*
X87754073Y-69842231D01*
X87754068Y-69842238D01*
X87750965Y-69846671D01*
X87748677Y-69851577D01*
X87748675Y-69851581D01*
X87653386Y-70055927D01*
X87653383Y-70055932D01*
X87651097Y-70060837D01*
X87649698Y-70066057D01*
X87649694Y-70066069D01*
X87591337Y-70283865D01*
X87591335Y-70283871D01*
X87589937Y-70289092D01*
X87569341Y-70524500D01*
X44450500Y-70524500D01*
X44450500Y-68660000D01*
X52796532Y-68660000D01*
X52816365Y-68886692D01*
X52817762Y-68891907D01*
X52817764Y-68891916D01*
X52873858Y-69101263D01*
X52873861Y-69101271D01*
X52875261Y-69106496D01*
X52971432Y-69312734D01*
X52974539Y-69317171D01*
X52974540Y-69317173D01*
X53058600Y-69437224D01*
X53101953Y-69499139D01*
X53262861Y-69660047D01*
X53449266Y-69790568D01*
X53655504Y-69886739D01*
X53660734Y-69888140D01*
X53660736Y-69888141D01*
X53870083Y-69944235D01*
X53875308Y-69945635D01*
X54102000Y-69965468D01*
X54328692Y-69945635D01*
X54548496Y-69886739D01*
X54754734Y-69790568D01*
X54941139Y-69660047D01*
X55102047Y-69499139D01*
X55232568Y-69312734D01*
X55328739Y-69106496D01*
X55387635Y-68886692D01*
X55407468Y-68660000D01*
X55387635Y-68433308D01*
X55328739Y-68213504D01*
X55232568Y-68007266D01*
X55102047Y-67820861D01*
X54941139Y-67659953D01*
X54754734Y-67529432D01*
X54548496Y-67433261D01*
X54543271Y-67431861D01*
X54543263Y-67431858D01*
X54333916Y-67375764D01*
X54333907Y-67375762D01*
X54328692Y-67374365D01*
X54323304Y-67373893D01*
X54323301Y-67373893D01*
X54107395Y-67355004D01*
X54102000Y-67354532D01*
X54096605Y-67355004D01*
X53880698Y-67373893D01*
X53880693Y-67373893D01*
X53875308Y-67374365D01*
X53870094Y-67375762D01*
X53870083Y-67375764D01*
X53660736Y-67431858D01*
X53660724Y-67431862D01*
X53655504Y-67433261D01*
X53650599Y-67435547D01*
X53650594Y-67435550D01*
X53454176Y-67527142D01*
X53454172Y-67527144D01*
X53449266Y-67529432D01*
X53444833Y-67532535D01*
X53444826Y-67532540D01*
X53267296Y-67656847D01*
X53267291Y-67656850D01*
X53262861Y-67659953D01*
X53259037Y-67663776D01*
X53259031Y-67663782D01*
X53105782Y-67817031D01*
X53105776Y-67817037D01*
X53101953Y-67820861D01*
X53098850Y-67825291D01*
X53098847Y-67825296D01*
X52974540Y-68002826D01*
X52974535Y-68002833D01*
X52971432Y-68007266D01*
X52969144Y-68012172D01*
X52969142Y-68012176D01*
X52877550Y-68208594D01*
X52877547Y-68208599D01*
X52875261Y-68213504D01*
X52873862Y-68218724D01*
X52873858Y-68218736D01*
X52817764Y-68428083D01*
X52817762Y-68428094D01*
X52816365Y-68433308D01*
X52796532Y-68660000D01*
X44450500Y-68660000D01*
X44450500Y-65786000D01*
X87544341Y-65786000D01*
X87564937Y-66021408D01*
X87566336Y-66026630D01*
X87566337Y-66026634D01*
X87624694Y-66244430D01*
X87624697Y-66244438D01*
X87626097Y-66249663D01*
X87628385Y-66254570D01*
X87628386Y-66254572D01*
X87723678Y-66458927D01*
X87723681Y-66458933D01*
X87725965Y-66463830D01*
X87729064Y-66468257D01*
X87729066Y-66468259D01*
X87858399Y-66652966D01*
X87858402Y-66652970D01*
X87861505Y-66657401D01*
X88028599Y-66824495D01*
X88222170Y-66960035D01*
X88436337Y-67059903D01*
X88664592Y-67121063D01*
X88900000Y-67141659D01*
X89135408Y-67121063D01*
X89363663Y-67059903D01*
X89577830Y-66960035D01*
X89771401Y-66824495D01*
X89938495Y-66657401D01*
X90068424Y-66471842D01*
X90112743Y-66432976D01*
X90170000Y-66418965D01*
X90227257Y-66432976D01*
X90271575Y-66471842D01*
X90398395Y-66652961D01*
X90398401Y-66652968D01*
X90401505Y-66657401D01*
X90568599Y-66824495D01*
X90762170Y-66960035D01*
X90976337Y-67059903D01*
X91204592Y-67121063D01*
X91440000Y-67141659D01*
X91675408Y-67121063D01*
X91903663Y-67059903D01*
X92117830Y-66960035D01*
X92311401Y-66824495D01*
X92478495Y-66657401D01*
X92614035Y-66463830D01*
X92713903Y-66249663D01*
X92775063Y-66021408D01*
X92795659Y-65786000D01*
X95164341Y-65786000D01*
X95184937Y-66021408D01*
X95186336Y-66026630D01*
X95186337Y-66026634D01*
X95244694Y-66244430D01*
X95244697Y-66244438D01*
X95246097Y-66249663D01*
X95248385Y-66254570D01*
X95248386Y-66254572D01*
X95343678Y-66458927D01*
X95343681Y-66458933D01*
X95345965Y-66463830D01*
X95349064Y-66468257D01*
X95349066Y-66468259D01*
X95478399Y-66652966D01*
X95478402Y-66652970D01*
X95481505Y-66657401D01*
X95648599Y-66824495D01*
X95842170Y-66960035D01*
X96056337Y-67059903D01*
X96284592Y-67121063D01*
X96520000Y-67141659D01*
X96755408Y-67121063D01*
X96983663Y-67059903D01*
X97197830Y-66960035D01*
X97391401Y-66824495D01*
X97558495Y-66657401D01*
X97688424Y-66471842D01*
X97732743Y-66432976D01*
X97790000Y-66418965D01*
X97847257Y-66432976D01*
X97891575Y-66471842D01*
X98018395Y-66652961D01*
X98018401Y-66652968D01*
X98021505Y-66657401D01*
X98188599Y-66824495D01*
X98382170Y-66960035D01*
X98596337Y-67059903D01*
X98824592Y-67121063D01*
X99060000Y-67141659D01*
X99295408Y-67121063D01*
X99523663Y-67059903D01*
X99737830Y-66960035D01*
X99931401Y-66824495D01*
X100098495Y-66657401D01*
X100228424Y-66471842D01*
X100272743Y-66432976D01*
X100330000Y-66418965D01*
X100387257Y-66432976D01*
X100431575Y-66471842D01*
X100558395Y-66652961D01*
X100558401Y-66652968D01*
X100561505Y-66657401D01*
X100728599Y-66824495D01*
X100922170Y-66960035D01*
X101136337Y-67059903D01*
X101364592Y-67121063D01*
X101600000Y-67141659D01*
X101835408Y-67121063D01*
X102063663Y-67059903D01*
X102277830Y-66960035D01*
X102471401Y-66824495D01*
X102638495Y-66657401D01*
X102774035Y-66463830D01*
X102873903Y-66249663D01*
X102935063Y-66021408D01*
X102955659Y-65786000D01*
X102935063Y-65550592D01*
X102873903Y-65322337D01*
X102774035Y-65108171D01*
X102638495Y-64914599D01*
X102471401Y-64747505D01*
X102466970Y-64744402D01*
X102466966Y-64744399D01*
X102282259Y-64615066D01*
X102282257Y-64615064D01*
X102277830Y-64611965D01*
X102272933Y-64609681D01*
X102272927Y-64609678D01*
X102068572Y-64514386D01*
X102068570Y-64514385D01*
X102063663Y-64512097D01*
X102058438Y-64510697D01*
X102058430Y-64510694D01*
X101840634Y-64452337D01*
X101840630Y-64452336D01*
X101835408Y-64450937D01*
X101830020Y-64450465D01*
X101830017Y-64450465D01*
X101605395Y-64430813D01*
X101600000Y-64430341D01*
X101594605Y-64430813D01*
X101369982Y-64450465D01*
X101369977Y-64450465D01*
X101364592Y-64450937D01*
X101359371Y-64452335D01*
X101359365Y-64452337D01*
X101141569Y-64510694D01*
X101141557Y-64510698D01*
X101136337Y-64512097D01*
X101131432Y-64514383D01*
X101131427Y-64514386D01*
X100927081Y-64609675D01*
X100927077Y-64609677D01*
X100922171Y-64611965D01*
X100917738Y-64615068D01*
X100917731Y-64615073D01*
X100733034Y-64744399D01*
X100733029Y-64744402D01*
X100728599Y-64747505D01*
X100724775Y-64751328D01*
X100724769Y-64751334D01*
X100565334Y-64910769D01*
X100565328Y-64910775D01*
X100561505Y-64914599D01*
X100558402Y-64919029D01*
X100558399Y-64919034D01*
X100431575Y-65100159D01*
X100387257Y-65139025D01*
X100330000Y-65153036D01*
X100272743Y-65139025D01*
X100228425Y-65100159D01*
X100101600Y-64919034D01*
X100098495Y-64914599D01*
X99931401Y-64747505D01*
X99926970Y-64744402D01*
X99926966Y-64744399D01*
X99742259Y-64615066D01*
X99742257Y-64615064D01*
X99737830Y-64611965D01*
X99732933Y-64609681D01*
X99732927Y-64609678D01*
X99528572Y-64514386D01*
X99528570Y-64514385D01*
X99523663Y-64512097D01*
X99518438Y-64510697D01*
X99518430Y-64510694D01*
X99300634Y-64452337D01*
X99300630Y-64452336D01*
X99295408Y-64450937D01*
X99290020Y-64450465D01*
X99290017Y-64450465D01*
X99065395Y-64430813D01*
X99060000Y-64430341D01*
X99054605Y-64430813D01*
X98829982Y-64450465D01*
X98829977Y-64450465D01*
X98824592Y-64450937D01*
X98819371Y-64452335D01*
X98819365Y-64452337D01*
X98601569Y-64510694D01*
X98601557Y-64510698D01*
X98596337Y-64512097D01*
X98591432Y-64514383D01*
X98591427Y-64514386D01*
X98387081Y-64609675D01*
X98387077Y-64609677D01*
X98382171Y-64611965D01*
X98377738Y-64615068D01*
X98377731Y-64615073D01*
X98193034Y-64744399D01*
X98193029Y-64744402D01*
X98188599Y-64747505D01*
X98184775Y-64751328D01*
X98184769Y-64751334D01*
X98025334Y-64910769D01*
X98025328Y-64910775D01*
X98021505Y-64914599D01*
X98018402Y-64919029D01*
X98018399Y-64919034D01*
X97891575Y-65100159D01*
X97847257Y-65139025D01*
X97790000Y-65153036D01*
X97732743Y-65139025D01*
X97688425Y-65100159D01*
X97561600Y-64919034D01*
X97558495Y-64914599D01*
X97391401Y-64747505D01*
X97386970Y-64744402D01*
X97386966Y-64744399D01*
X97202259Y-64615066D01*
X97202257Y-64615064D01*
X97197830Y-64611965D01*
X97192933Y-64609681D01*
X97192927Y-64609678D01*
X96988572Y-64514386D01*
X96988570Y-64514385D01*
X96983663Y-64512097D01*
X96978438Y-64510697D01*
X96978430Y-64510694D01*
X96760634Y-64452337D01*
X96760630Y-64452336D01*
X96755408Y-64450937D01*
X96750020Y-64450465D01*
X96750017Y-64450465D01*
X96525395Y-64430813D01*
X96520000Y-64430341D01*
X96514605Y-64430813D01*
X96289982Y-64450465D01*
X96289977Y-64450465D01*
X96284592Y-64450937D01*
X96279371Y-64452335D01*
X96279365Y-64452337D01*
X96061569Y-64510694D01*
X96061557Y-64510698D01*
X96056337Y-64512097D01*
X96051432Y-64514383D01*
X96051427Y-64514386D01*
X95847081Y-64609675D01*
X95847077Y-64609677D01*
X95842171Y-64611965D01*
X95837738Y-64615068D01*
X95837731Y-64615073D01*
X95653034Y-64744399D01*
X95653029Y-64744402D01*
X95648599Y-64747505D01*
X95644775Y-64751328D01*
X95644769Y-64751334D01*
X95485334Y-64910769D01*
X95485328Y-64910775D01*
X95481505Y-64914599D01*
X95478402Y-64919029D01*
X95478399Y-64919034D01*
X95349073Y-65103731D01*
X95349068Y-65103738D01*
X95345965Y-65108171D01*
X95343677Y-65113077D01*
X95343675Y-65113081D01*
X95248386Y-65317427D01*
X95248383Y-65317432D01*
X95246097Y-65322337D01*
X95244698Y-65327557D01*
X95244694Y-65327569D01*
X95186337Y-65545365D01*
X95186335Y-65545371D01*
X95184937Y-65550592D01*
X95164341Y-65786000D01*
X92795659Y-65786000D01*
X92775063Y-65550592D01*
X92713903Y-65322337D01*
X92614035Y-65108171D01*
X92478495Y-64914599D01*
X92311401Y-64747505D01*
X92306970Y-64744402D01*
X92306966Y-64744399D01*
X92122259Y-64615066D01*
X92122257Y-64615064D01*
X92117830Y-64611965D01*
X92112933Y-64609681D01*
X92112927Y-64609678D01*
X91908572Y-64514386D01*
X91908570Y-64514385D01*
X91903663Y-64512097D01*
X91898438Y-64510697D01*
X91898430Y-64510694D01*
X91680634Y-64452337D01*
X91680630Y-64452336D01*
X91675408Y-64450937D01*
X91670020Y-64450465D01*
X91670017Y-64450465D01*
X91445395Y-64430813D01*
X91440000Y-64430341D01*
X91434605Y-64430813D01*
X91209982Y-64450465D01*
X91209977Y-64450465D01*
X91204592Y-64450937D01*
X91199371Y-64452335D01*
X91199365Y-64452337D01*
X90981569Y-64510694D01*
X90981557Y-64510698D01*
X90976337Y-64512097D01*
X90971432Y-64514383D01*
X90971427Y-64514386D01*
X90767081Y-64609675D01*
X90767077Y-64609677D01*
X90762171Y-64611965D01*
X90757738Y-64615068D01*
X90757731Y-64615073D01*
X90573034Y-64744399D01*
X90573029Y-64744402D01*
X90568599Y-64747505D01*
X90564775Y-64751328D01*
X90564769Y-64751334D01*
X90405334Y-64910769D01*
X90405328Y-64910775D01*
X90401505Y-64914599D01*
X90398402Y-64919029D01*
X90398399Y-64919034D01*
X90271575Y-65100159D01*
X90227257Y-65139025D01*
X90170000Y-65153036D01*
X90112743Y-65139025D01*
X90068425Y-65100159D01*
X89941600Y-64919034D01*
X89938495Y-64914599D01*
X89771401Y-64747505D01*
X89766970Y-64744402D01*
X89766966Y-64744399D01*
X89582259Y-64615066D01*
X89582257Y-64615064D01*
X89577830Y-64611965D01*
X89572933Y-64609681D01*
X89572927Y-64609678D01*
X89368572Y-64514386D01*
X89368570Y-64514385D01*
X89363663Y-64512097D01*
X89358438Y-64510697D01*
X89358430Y-64510694D01*
X89140634Y-64452337D01*
X89140630Y-64452336D01*
X89135408Y-64450937D01*
X89130020Y-64450465D01*
X89130017Y-64450465D01*
X88905395Y-64430813D01*
X88900000Y-64430341D01*
X88894605Y-64430813D01*
X88669982Y-64450465D01*
X88669977Y-64450465D01*
X88664592Y-64450937D01*
X88659371Y-64452335D01*
X88659365Y-64452337D01*
X88441569Y-64510694D01*
X88441557Y-64510698D01*
X88436337Y-64512097D01*
X88431432Y-64514383D01*
X88431427Y-64514386D01*
X88227081Y-64609675D01*
X88227077Y-64609677D01*
X88222171Y-64611965D01*
X88217738Y-64615068D01*
X88217731Y-64615073D01*
X88033034Y-64744399D01*
X88033029Y-64744402D01*
X88028599Y-64747505D01*
X88024775Y-64751328D01*
X88024769Y-64751334D01*
X87865334Y-64910769D01*
X87865328Y-64910775D01*
X87861505Y-64914599D01*
X87858402Y-64919029D01*
X87858399Y-64919034D01*
X87729073Y-65103731D01*
X87729068Y-65103738D01*
X87725965Y-65108171D01*
X87723677Y-65113077D01*
X87723675Y-65113081D01*
X87628386Y-65317427D01*
X87628383Y-65317432D01*
X87626097Y-65322337D01*
X87624698Y-65327557D01*
X87624694Y-65327569D01*
X87566337Y-65545365D01*
X87566335Y-65545371D01*
X87564937Y-65550592D01*
X87544341Y-65786000D01*
X44450500Y-65786000D01*
X44450500Y-64515697D01*
X44450972Y-64504890D01*
X44455570Y-64452337D01*
X44468348Y-64306270D01*
X44472099Y-64284996D01*
X44523783Y-64092107D01*
X44531175Y-64071801D01*
X44615562Y-63890834D01*
X44626369Y-63872116D01*
X44740904Y-63708543D01*
X44754792Y-63691991D01*
X44895991Y-63550792D01*
X44912543Y-63536904D01*
X45076116Y-63422369D01*
X45094831Y-63411563D01*
X45275803Y-63327174D01*
X45296107Y-63319783D01*
X45488996Y-63268099D01*
X45510270Y-63264348D01*
X45708889Y-63246972D01*
X45719697Y-63246500D01*
X103632303Y-63246500D01*
X103643110Y-63246972D01*
G37*
%TD.AperFunction*%
%TD*%
M02*
